G04 #@! TF.GenerationSoftware,KiCad,Pcbnew,5.0.2+dfsg1-1*
G04 #@! TF.CreationDate,2019-12-28T21:20:38-05:00*
G04 #@! TF.ProjectId,2001captchpad,32303031-6361-4707-9463-687061642e6b,rev?*
G04 #@! TF.SameCoordinates,Original*
G04 #@! TF.FileFunction,Copper,L2,Bot*
G04 #@! TF.FilePolarity,Positive*
%FSLAX46Y46*%
G04 Gerber Fmt 4.6, Leading zero omitted, Abs format (unit mm)*
G04 Created by KiCad (PCBNEW 5.0.2+dfsg1-1) date Sat 28 Dec 2019 09:20:38 PM EST*
%MOMM*%
%LPD*%
G01*
G04 APERTURE LIST*
G04 #@! TA.AperFunction,ComponentPad*
%ADD10C,2.499360*%
G04 #@! TD*
G04 #@! TA.AperFunction,ViaPad*
%ADD11C,0.800000*%
G04 #@! TD*
G04 #@! TA.AperFunction,Conductor*
%ADD12C,0.254000*%
G04 #@! TD*
G04 APERTURE END LIST*
D10*
G04 #@! TO.P,J1,1*
G04 #@! TO.N,Net-(J1-Pad1)*
X178562000Y-88138000D03*
G04 #@! TD*
G04 #@! TO.P,J2,1*
G04 #@! TO.N,GND*
X178562000Y-95758000D03*
G04 #@! TD*
G04 #@! TO.P,J3,1*
G04 #@! TO.N,Net-(J3-Pad1)*
X178562000Y-103632000D03*
G04 #@! TD*
G04 #@! TO.P,J4,1*
G04 #@! TO.N,Net-(J4-Pad1)*
X143002000Y-90932000D03*
G04 #@! TD*
G04 #@! TO.P,J5,1*
G04 #@! TO.N,Net-(J5-Pad1)*
X143002000Y-106172000D03*
G04 #@! TD*
G04 #@! TO.P,J6,1*
G04 #@! TO.N,+3V3*
X166878000Y-112014000D03*
G04 #@! TD*
G04 #@! TO.P,J7,1*
G04 #@! TO.N,GND*
X173990000Y-112014000D03*
G04 #@! TD*
D11*
G04 #@! TO.N,GND*
X176784000Y-112014000D03*
X170434000Y-112014000D03*
X163322000Y-112268000D03*
X178816000Y-109728000D03*
X178562000Y-98298000D03*
X178562000Y-90678000D03*
X140208000Y-90932000D03*
X139954000Y-106172000D03*
G04 #@! TD*
D12*
G04 #@! TO.N,GND*
G36*
X185980001Y-115876000D02*
X138886000Y-115876000D01*
X138886000Y-113417050D01*
X139085000Y-113417050D01*
X139085000Y-114166950D01*
X139371974Y-114859767D01*
X139902233Y-115390026D01*
X140595050Y-115677000D01*
X141344950Y-115677000D01*
X142037767Y-115390026D01*
X142568026Y-114859767D01*
X142855000Y-114166950D01*
X142855000Y-113417050D01*
X142568026Y-112724233D01*
X142037767Y-112193974D01*
X141344950Y-111907000D01*
X140595050Y-111907000D01*
X139902233Y-112193974D01*
X139371974Y-112724233D01*
X139085000Y-113417050D01*
X138886000Y-113417050D01*
X138886000Y-111639114D01*
X164993320Y-111639114D01*
X164993320Y-112388886D01*
X165280245Y-113081585D01*
X165810415Y-113611755D01*
X166503114Y-113898680D01*
X167252886Y-113898680D01*
X167945585Y-113611755D01*
X168210251Y-113347089D01*
X172836517Y-113347089D01*
X172965725Y-113639859D01*
X173665883Y-113908071D01*
X174415384Y-113887928D01*
X175014275Y-113639859D01*
X175112607Y-113417050D01*
X182011000Y-113417050D01*
X182011000Y-114166950D01*
X182297974Y-114859767D01*
X182828233Y-115390026D01*
X183521050Y-115677000D01*
X184270950Y-115677000D01*
X184963767Y-115390026D01*
X185494026Y-114859767D01*
X185781000Y-114166950D01*
X185781000Y-113417050D01*
X185494026Y-112724233D01*
X184963767Y-112193974D01*
X184270950Y-111907000D01*
X183521050Y-111907000D01*
X182828233Y-112193974D01*
X182297974Y-112724233D01*
X182011000Y-113417050D01*
X175112607Y-113417050D01*
X175143483Y-113347089D01*
X173990000Y-112193605D01*
X172836517Y-113347089D01*
X168210251Y-113347089D01*
X168475755Y-113081585D01*
X168762680Y-112388886D01*
X168762680Y-111689883D01*
X172095929Y-111689883D01*
X172116072Y-112439384D01*
X172364141Y-113038275D01*
X172656911Y-113167483D01*
X173810395Y-112014000D01*
X174169605Y-112014000D01*
X175323089Y-113167483D01*
X175615859Y-113038275D01*
X175884071Y-112338117D01*
X175863928Y-111588616D01*
X175615859Y-110989725D01*
X175323089Y-110860517D01*
X174169605Y-112014000D01*
X173810395Y-112014000D01*
X172656911Y-110860517D01*
X172364141Y-110989725D01*
X172095929Y-111689883D01*
X168762680Y-111689883D01*
X168762680Y-111639114D01*
X168475755Y-110946415D01*
X168210251Y-110680911D01*
X172836517Y-110680911D01*
X173990000Y-111834395D01*
X175143483Y-110680911D01*
X175014275Y-110388141D01*
X174314117Y-110119929D01*
X173564616Y-110140072D01*
X172965725Y-110388141D01*
X172836517Y-110680911D01*
X168210251Y-110680911D01*
X167945585Y-110416245D01*
X167252886Y-110129320D01*
X166503114Y-110129320D01*
X165810415Y-110416245D01*
X165280245Y-110946415D01*
X164993320Y-111639114D01*
X138886000Y-111639114D01*
X138886000Y-105797114D01*
X141117320Y-105797114D01*
X141117320Y-106546886D01*
X141404245Y-107239585D01*
X141934415Y-107769755D01*
X142627114Y-108056680D01*
X143376886Y-108056680D01*
X144069585Y-107769755D01*
X144599755Y-107239585D01*
X144886680Y-106546886D01*
X144886680Y-105797114D01*
X144599755Y-105104415D01*
X144069585Y-104574245D01*
X143376886Y-104287320D01*
X142627114Y-104287320D01*
X141934415Y-104574245D01*
X141404245Y-105104415D01*
X141117320Y-105797114D01*
X138886000Y-105797114D01*
X138886000Y-103257114D01*
X176677320Y-103257114D01*
X176677320Y-104006886D01*
X176964245Y-104699585D01*
X177494415Y-105229755D01*
X178187114Y-105516680D01*
X178936886Y-105516680D01*
X179629585Y-105229755D01*
X180159755Y-104699585D01*
X180446680Y-104006886D01*
X180446680Y-103257114D01*
X180159755Y-102564415D01*
X179629585Y-102034245D01*
X178936886Y-101747320D01*
X178187114Y-101747320D01*
X177494415Y-102034245D01*
X176964245Y-102564415D01*
X176677320Y-103257114D01*
X138886000Y-103257114D01*
X138886000Y-97091089D01*
X177408517Y-97091089D01*
X177537725Y-97383859D01*
X178237883Y-97652071D01*
X178987384Y-97631928D01*
X179586275Y-97383859D01*
X179715483Y-97091089D01*
X178562000Y-95937605D01*
X177408517Y-97091089D01*
X138886000Y-97091089D01*
X138886000Y-95433883D01*
X176667929Y-95433883D01*
X176688072Y-96183384D01*
X176936141Y-96782275D01*
X177228911Y-96911483D01*
X178382395Y-95758000D01*
X178741605Y-95758000D01*
X179895089Y-96911483D01*
X180187859Y-96782275D01*
X180456071Y-96082117D01*
X180435928Y-95332616D01*
X180187859Y-94733725D01*
X179895089Y-94604517D01*
X178741605Y-95758000D01*
X178382395Y-95758000D01*
X177228911Y-94604517D01*
X176936141Y-94733725D01*
X176667929Y-95433883D01*
X138886000Y-95433883D01*
X138886000Y-94424911D01*
X177408517Y-94424911D01*
X178562000Y-95578395D01*
X179715483Y-94424911D01*
X179586275Y-94132141D01*
X178886117Y-93863929D01*
X178136616Y-93884072D01*
X177537725Y-94132141D01*
X177408517Y-94424911D01*
X138886000Y-94424911D01*
X138886000Y-90557114D01*
X141117320Y-90557114D01*
X141117320Y-91306886D01*
X141404245Y-91999585D01*
X141934415Y-92529755D01*
X142627114Y-92816680D01*
X143376886Y-92816680D01*
X144069585Y-92529755D01*
X144599755Y-91999585D01*
X144886680Y-91306886D01*
X144886680Y-90557114D01*
X144599755Y-89864415D01*
X144069585Y-89334245D01*
X143376886Y-89047320D01*
X142627114Y-89047320D01*
X141934415Y-89334245D01*
X141404245Y-89864415D01*
X141117320Y-90557114D01*
X138886000Y-90557114D01*
X138886000Y-87763114D01*
X176677320Y-87763114D01*
X176677320Y-88512886D01*
X176964245Y-89205585D01*
X177494415Y-89735755D01*
X178187114Y-90022680D01*
X178936886Y-90022680D01*
X179629585Y-89735755D01*
X180159755Y-89205585D01*
X180446680Y-88512886D01*
X180446680Y-87763114D01*
X180159755Y-87070415D01*
X179629585Y-86540245D01*
X178936886Y-86253320D01*
X178187114Y-86253320D01*
X177494415Y-86540245D01*
X176964245Y-87070415D01*
X176677320Y-87763114D01*
X138886000Y-87763114D01*
X138886000Y-84715050D01*
X139085000Y-84715050D01*
X139085000Y-85464950D01*
X139371974Y-86157767D01*
X139902233Y-86688026D01*
X140595050Y-86975000D01*
X141344950Y-86975000D01*
X142037767Y-86688026D01*
X142568026Y-86157767D01*
X142855000Y-85464950D01*
X142855000Y-84715050D01*
X182011000Y-84715050D01*
X182011000Y-85464950D01*
X182297974Y-86157767D01*
X182828233Y-86688026D01*
X183521050Y-86975000D01*
X184270950Y-86975000D01*
X184963767Y-86688026D01*
X185494026Y-86157767D01*
X185781000Y-85464950D01*
X185781000Y-84715050D01*
X185494026Y-84022233D01*
X184963767Y-83491974D01*
X184270950Y-83205000D01*
X183521050Y-83205000D01*
X182828233Y-83491974D01*
X182297974Y-84022233D01*
X182011000Y-84715050D01*
X142855000Y-84715050D01*
X142568026Y-84022233D01*
X142037767Y-83491974D01*
X141344950Y-83205000D01*
X140595050Y-83205000D01*
X139902233Y-83491974D01*
X139371974Y-84022233D01*
X139085000Y-84715050D01*
X138886000Y-84715050D01*
X138886000Y-83006000D01*
X185980000Y-83006000D01*
X185980001Y-115876000D01*
X185980001Y-115876000D01*
G37*
X185980001Y-115876000D02*
X138886000Y-115876000D01*
X138886000Y-113417050D01*
X139085000Y-113417050D01*
X139085000Y-114166950D01*
X139371974Y-114859767D01*
X139902233Y-115390026D01*
X140595050Y-115677000D01*
X141344950Y-115677000D01*
X142037767Y-115390026D01*
X142568026Y-114859767D01*
X142855000Y-114166950D01*
X142855000Y-113417050D01*
X142568026Y-112724233D01*
X142037767Y-112193974D01*
X141344950Y-111907000D01*
X140595050Y-111907000D01*
X139902233Y-112193974D01*
X139371974Y-112724233D01*
X139085000Y-113417050D01*
X138886000Y-113417050D01*
X138886000Y-111639114D01*
X164993320Y-111639114D01*
X164993320Y-112388886D01*
X165280245Y-113081585D01*
X165810415Y-113611755D01*
X166503114Y-113898680D01*
X167252886Y-113898680D01*
X167945585Y-113611755D01*
X168210251Y-113347089D01*
X172836517Y-113347089D01*
X172965725Y-113639859D01*
X173665883Y-113908071D01*
X174415384Y-113887928D01*
X175014275Y-113639859D01*
X175112607Y-113417050D01*
X182011000Y-113417050D01*
X182011000Y-114166950D01*
X182297974Y-114859767D01*
X182828233Y-115390026D01*
X183521050Y-115677000D01*
X184270950Y-115677000D01*
X184963767Y-115390026D01*
X185494026Y-114859767D01*
X185781000Y-114166950D01*
X185781000Y-113417050D01*
X185494026Y-112724233D01*
X184963767Y-112193974D01*
X184270950Y-111907000D01*
X183521050Y-111907000D01*
X182828233Y-112193974D01*
X182297974Y-112724233D01*
X182011000Y-113417050D01*
X175112607Y-113417050D01*
X175143483Y-113347089D01*
X173990000Y-112193605D01*
X172836517Y-113347089D01*
X168210251Y-113347089D01*
X168475755Y-113081585D01*
X168762680Y-112388886D01*
X168762680Y-111689883D01*
X172095929Y-111689883D01*
X172116072Y-112439384D01*
X172364141Y-113038275D01*
X172656911Y-113167483D01*
X173810395Y-112014000D01*
X174169605Y-112014000D01*
X175323089Y-113167483D01*
X175615859Y-113038275D01*
X175884071Y-112338117D01*
X175863928Y-111588616D01*
X175615859Y-110989725D01*
X175323089Y-110860517D01*
X174169605Y-112014000D01*
X173810395Y-112014000D01*
X172656911Y-110860517D01*
X172364141Y-110989725D01*
X172095929Y-111689883D01*
X168762680Y-111689883D01*
X168762680Y-111639114D01*
X168475755Y-110946415D01*
X168210251Y-110680911D01*
X172836517Y-110680911D01*
X173990000Y-111834395D01*
X175143483Y-110680911D01*
X175014275Y-110388141D01*
X174314117Y-110119929D01*
X173564616Y-110140072D01*
X172965725Y-110388141D01*
X172836517Y-110680911D01*
X168210251Y-110680911D01*
X167945585Y-110416245D01*
X167252886Y-110129320D01*
X166503114Y-110129320D01*
X165810415Y-110416245D01*
X165280245Y-110946415D01*
X164993320Y-111639114D01*
X138886000Y-111639114D01*
X138886000Y-105797114D01*
X141117320Y-105797114D01*
X141117320Y-106546886D01*
X141404245Y-107239585D01*
X141934415Y-107769755D01*
X142627114Y-108056680D01*
X143376886Y-108056680D01*
X144069585Y-107769755D01*
X144599755Y-107239585D01*
X144886680Y-106546886D01*
X144886680Y-105797114D01*
X144599755Y-105104415D01*
X144069585Y-104574245D01*
X143376886Y-104287320D01*
X142627114Y-104287320D01*
X141934415Y-104574245D01*
X141404245Y-105104415D01*
X141117320Y-105797114D01*
X138886000Y-105797114D01*
X138886000Y-103257114D01*
X176677320Y-103257114D01*
X176677320Y-104006886D01*
X176964245Y-104699585D01*
X177494415Y-105229755D01*
X178187114Y-105516680D01*
X178936886Y-105516680D01*
X179629585Y-105229755D01*
X180159755Y-104699585D01*
X180446680Y-104006886D01*
X180446680Y-103257114D01*
X180159755Y-102564415D01*
X179629585Y-102034245D01*
X178936886Y-101747320D01*
X178187114Y-101747320D01*
X177494415Y-102034245D01*
X176964245Y-102564415D01*
X176677320Y-103257114D01*
X138886000Y-103257114D01*
X138886000Y-97091089D01*
X177408517Y-97091089D01*
X177537725Y-97383859D01*
X178237883Y-97652071D01*
X178987384Y-97631928D01*
X179586275Y-97383859D01*
X179715483Y-97091089D01*
X178562000Y-95937605D01*
X177408517Y-97091089D01*
X138886000Y-97091089D01*
X138886000Y-95433883D01*
X176667929Y-95433883D01*
X176688072Y-96183384D01*
X176936141Y-96782275D01*
X177228911Y-96911483D01*
X178382395Y-95758000D01*
X178741605Y-95758000D01*
X179895089Y-96911483D01*
X180187859Y-96782275D01*
X180456071Y-96082117D01*
X180435928Y-95332616D01*
X180187859Y-94733725D01*
X179895089Y-94604517D01*
X178741605Y-95758000D01*
X178382395Y-95758000D01*
X177228911Y-94604517D01*
X176936141Y-94733725D01*
X176667929Y-95433883D01*
X138886000Y-95433883D01*
X138886000Y-94424911D01*
X177408517Y-94424911D01*
X178562000Y-95578395D01*
X179715483Y-94424911D01*
X179586275Y-94132141D01*
X178886117Y-93863929D01*
X178136616Y-93884072D01*
X177537725Y-94132141D01*
X177408517Y-94424911D01*
X138886000Y-94424911D01*
X138886000Y-90557114D01*
X141117320Y-90557114D01*
X141117320Y-91306886D01*
X141404245Y-91999585D01*
X141934415Y-92529755D01*
X142627114Y-92816680D01*
X143376886Y-92816680D01*
X144069585Y-92529755D01*
X144599755Y-91999585D01*
X144886680Y-91306886D01*
X144886680Y-90557114D01*
X144599755Y-89864415D01*
X144069585Y-89334245D01*
X143376886Y-89047320D01*
X142627114Y-89047320D01*
X141934415Y-89334245D01*
X141404245Y-89864415D01*
X141117320Y-90557114D01*
X138886000Y-90557114D01*
X138886000Y-87763114D01*
X176677320Y-87763114D01*
X176677320Y-88512886D01*
X176964245Y-89205585D01*
X177494415Y-89735755D01*
X178187114Y-90022680D01*
X178936886Y-90022680D01*
X179629585Y-89735755D01*
X180159755Y-89205585D01*
X180446680Y-88512886D01*
X180446680Y-87763114D01*
X180159755Y-87070415D01*
X179629585Y-86540245D01*
X178936886Y-86253320D01*
X178187114Y-86253320D01*
X177494415Y-86540245D01*
X176964245Y-87070415D01*
X176677320Y-87763114D01*
X138886000Y-87763114D01*
X138886000Y-84715050D01*
X139085000Y-84715050D01*
X139085000Y-85464950D01*
X139371974Y-86157767D01*
X139902233Y-86688026D01*
X140595050Y-86975000D01*
X141344950Y-86975000D01*
X142037767Y-86688026D01*
X142568026Y-86157767D01*
X142855000Y-85464950D01*
X142855000Y-84715050D01*
X182011000Y-84715050D01*
X182011000Y-85464950D01*
X182297974Y-86157767D01*
X182828233Y-86688026D01*
X183521050Y-86975000D01*
X184270950Y-86975000D01*
X184963767Y-86688026D01*
X185494026Y-86157767D01*
X185781000Y-85464950D01*
X185781000Y-84715050D01*
X185494026Y-84022233D01*
X184963767Y-83491974D01*
X184270950Y-83205000D01*
X183521050Y-83205000D01*
X182828233Y-83491974D01*
X182297974Y-84022233D01*
X182011000Y-84715050D01*
X142855000Y-84715050D01*
X142568026Y-84022233D01*
X142037767Y-83491974D01*
X141344950Y-83205000D01*
X140595050Y-83205000D01*
X139902233Y-83491974D01*
X139371974Y-84022233D01*
X139085000Y-84715050D01*
X138886000Y-84715050D01*
X138886000Y-83006000D01*
X185980000Y-83006000D01*
X185980001Y-115876000D01*
G04 #@! TD*
M02*
