G04 #@! TF.GenerationSoftware,KiCad,Pcbnew,5.0.2+dfsg1-1*
G04 #@! TF.CreationDate,2019-12-28T21:20:38-05:00*
G04 #@! TF.ProjectId,2001captchpad,32303031-6361-4707-9463-687061642e6b,rev?*
G04 #@! TF.SameCoordinates,Original*
G04 #@! TF.FileFunction,Soldermask,Top*
G04 #@! TF.FilePolarity,Negative*
%FSLAX46Y46*%
G04 Gerber Fmt 4.6, Leading zero omitted, Abs format (unit mm)*
G04 Created by KiCad (PCBNEW 5.0.2+dfsg1-1) date Sat 28 Dec 2019 09:20:38 PM EST*
%MOMM*%
%LPD*%
G01*
G04 APERTURE LIST*
%ADD10C,0.100000*%
G04 APERTURE END LIST*
D10*
G36*
X184275485Y-112540996D02*
X184275487Y-112540997D01*
X184275488Y-112540997D01*
X184490607Y-112630102D01*
X184512255Y-112639069D01*
X184725342Y-112781449D01*
X184906551Y-112962658D01*
X185048931Y-113175745D01*
X185147004Y-113412515D01*
X185197000Y-113663861D01*
X185197000Y-113920139D01*
X185147004Y-114171485D01*
X185048931Y-114408255D01*
X184906551Y-114621342D01*
X184725342Y-114802551D01*
X184725339Y-114802553D01*
X184512255Y-114944931D01*
X184275488Y-115043003D01*
X184275487Y-115043003D01*
X184275485Y-115043004D01*
X184024139Y-115093000D01*
X183767861Y-115093000D01*
X183516515Y-115043004D01*
X183516513Y-115043003D01*
X183516512Y-115043003D01*
X183279745Y-114944931D01*
X183066661Y-114802553D01*
X183066658Y-114802551D01*
X182885449Y-114621342D01*
X182743069Y-114408255D01*
X182644996Y-114171485D01*
X182595000Y-113920139D01*
X182595000Y-113663861D01*
X182644996Y-113412515D01*
X182743069Y-113175745D01*
X182885449Y-112962658D01*
X183066658Y-112781449D01*
X183279745Y-112639069D01*
X183301393Y-112630102D01*
X183516512Y-112540997D01*
X183516513Y-112540997D01*
X183516515Y-112540996D01*
X183767861Y-112491000D01*
X184024139Y-112491000D01*
X184275485Y-112540996D01*
X184275485Y-112540996D01*
G37*
G36*
X141349485Y-112540996D02*
X141349487Y-112540997D01*
X141349488Y-112540997D01*
X141564607Y-112630102D01*
X141586255Y-112639069D01*
X141799342Y-112781449D01*
X141980551Y-112962658D01*
X142122931Y-113175745D01*
X142221004Y-113412515D01*
X142271000Y-113663861D01*
X142271000Y-113920139D01*
X142221004Y-114171485D01*
X142122931Y-114408255D01*
X141980551Y-114621342D01*
X141799342Y-114802551D01*
X141799339Y-114802553D01*
X141586255Y-114944931D01*
X141349488Y-115043003D01*
X141349487Y-115043003D01*
X141349485Y-115043004D01*
X141098139Y-115093000D01*
X140841861Y-115093000D01*
X140590515Y-115043004D01*
X140590513Y-115043003D01*
X140590512Y-115043003D01*
X140353745Y-114944931D01*
X140140661Y-114802553D01*
X140140658Y-114802551D01*
X139959449Y-114621342D01*
X139817069Y-114408255D01*
X139718996Y-114171485D01*
X139669000Y-113920139D01*
X139669000Y-113663861D01*
X139718996Y-113412515D01*
X139817069Y-113175745D01*
X139959449Y-112962658D01*
X140140658Y-112781449D01*
X140353745Y-112639069D01*
X140375393Y-112630102D01*
X140590512Y-112540997D01*
X140590513Y-112540997D01*
X140590515Y-112540996D01*
X140841861Y-112491000D01*
X141098139Y-112491000D01*
X141349485Y-112540996D01*
X141349485Y-112540996D01*
G37*
G36*
X167257393Y-110763304D02*
X167494102Y-110861352D01*
X167707138Y-111003698D01*
X167888302Y-111184862D01*
X168030648Y-111397898D01*
X168128696Y-111634607D01*
X168178680Y-111885893D01*
X168178680Y-112142107D01*
X168128696Y-112393393D01*
X168030648Y-112630102D01*
X167888302Y-112843138D01*
X167707138Y-113024302D01*
X167494102Y-113166648D01*
X167257393Y-113264696D01*
X167006107Y-113314680D01*
X166749893Y-113314680D01*
X166498607Y-113264696D01*
X166261898Y-113166648D01*
X166048862Y-113024302D01*
X165867698Y-112843138D01*
X165725352Y-112630102D01*
X165627304Y-112393393D01*
X165577320Y-112142107D01*
X165577320Y-111885893D01*
X165627304Y-111634607D01*
X165725352Y-111397898D01*
X165867698Y-111184862D01*
X166048862Y-111003698D01*
X166261898Y-110861352D01*
X166498607Y-110763304D01*
X166749893Y-110713320D01*
X167006107Y-110713320D01*
X167257393Y-110763304D01*
X167257393Y-110763304D01*
G37*
G36*
X174369393Y-110763304D02*
X174606102Y-110861352D01*
X174819138Y-111003698D01*
X175000302Y-111184862D01*
X175142648Y-111397898D01*
X175240696Y-111634607D01*
X175290680Y-111885893D01*
X175290680Y-112142107D01*
X175240696Y-112393393D01*
X175142648Y-112630102D01*
X175000302Y-112843138D01*
X174819138Y-113024302D01*
X174606102Y-113166648D01*
X174369393Y-113264696D01*
X174118107Y-113314680D01*
X173861893Y-113314680D01*
X173610607Y-113264696D01*
X173373898Y-113166648D01*
X173160862Y-113024302D01*
X172979698Y-112843138D01*
X172837352Y-112630102D01*
X172739304Y-112393393D01*
X172689320Y-112142107D01*
X172689320Y-111885893D01*
X172739304Y-111634607D01*
X172837352Y-111397898D01*
X172979698Y-111184862D01*
X173160862Y-111003698D01*
X173373898Y-110861352D01*
X173610607Y-110763304D01*
X173861893Y-110713320D01*
X174118107Y-110713320D01*
X174369393Y-110763304D01*
X174369393Y-110763304D01*
G37*
G36*
X159834562Y-109314181D02*
X159869477Y-109324773D01*
X159901665Y-109341978D01*
X159929873Y-109365127D01*
X159953022Y-109393335D01*
X159970227Y-109425523D01*
X159980819Y-109460438D01*
X159985000Y-109502895D01*
X159985000Y-110969105D01*
X159980819Y-111011562D01*
X159970227Y-111046477D01*
X159953022Y-111078665D01*
X159929873Y-111106873D01*
X159901665Y-111130022D01*
X159869477Y-111147227D01*
X159834562Y-111157819D01*
X159792105Y-111162000D01*
X158650895Y-111162000D01*
X158608438Y-111157819D01*
X158573523Y-111147227D01*
X158541335Y-111130022D01*
X158513127Y-111106873D01*
X158489978Y-111078665D01*
X158472773Y-111046477D01*
X158462181Y-111011562D01*
X158458000Y-110969105D01*
X158458000Y-109502895D01*
X158462181Y-109460438D01*
X158472773Y-109425523D01*
X158489978Y-109393335D01*
X158513127Y-109365127D01*
X158541335Y-109341978D01*
X158573523Y-109324773D01*
X158608438Y-109314181D01*
X158650895Y-109310000D01*
X159792105Y-109310000D01*
X159834562Y-109314181D01*
X159834562Y-109314181D01*
G37*
G36*
X156859562Y-109314181D02*
X156894477Y-109324773D01*
X156926665Y-109341978D01*
X156954873Y-109365127D01*
X156978022Y-109393335D01*
X156995227Y-109425523D01*
X157005819Y-109460438D01*
X157010000Y-109502895D01*
X157010000Y-110969105D01*
X157005819Y-111011562D01*
X156995227Y-111046477D01*
X156978022Y-111078665D01*
X156954873Y-111106873D01*
X156926665Y-111130022D01*
X156894477Y-111147227D01*
X156859562Y-111157819D01*
X156817105Y-111162000D01*
X155675895Y-111162000D01*
X155633438Y-111157819D01*
X155598523Y-111147227D01*
X155566335Y-111130022D01*
X155538127Y-111106873D01*
X155514978Y-111078665D01*
X155497773Y-111046477D01*
X155487181Y-111011562D01*
X155483000Y-110969105D01*
X155483000Y-109502895D01*
X155487181Y-109460438D01*
X155497773Y-109425523D01*
X155514978Y-109393335D01*
X155538127Y-109365127D01*
X155566335Y-109341978D01*
X155598523Y-109324773D01*
X155633438Y-109314181D01*
X155675895Y-109310000D01*
X156817105Y-109310000D01*
X156859562Y-109314181D01*
X156859562Y-109314181D01*
G37*
G36*
X164097562Y-107154181D02*
X164132477Y-107164773D01*
X164164665Y-107181978D01*
X164192873Y-107205127D01*
X164216022Y-107233335D01*
X164233227Y-107265523D01*
X164243819Y-107300438D01*
X164248000Y-107342895D01*
X164248000Y-108484105D01*
X164243819Y-108526562D01*
X164233227Y-108561477D01*
X164216022Y-108593665D01*
X164192873Y-108621873D01*
X164164665Y-108645022D01*
X164132477Y-108662227D01*
X164097562Y-108672819D01*
X164055105Y-108677000D01*
X162588895Y-108677000D01*
X162546438Y-108672819D01*
X162511523Y-108662227D01*
X162479335Y-108645022D01*
X162451127Y-108621873D01*
X162427978Y-108593665D01*
X162410773Y-108561477D01*
X162400181Y-108526562D01*
X162396000Y-108484105D01*
X162396000Y-107342895D01*
X162400181Y-107300438D01*
X162410773Y-107265523D01*
X162427978Y-107233335D01*
X162451127Y-107205127D01*
X162479335Y-107181978D01*
X162511523Y-107164773D01*
X162546438Y-107154181D01*
X162588895Y-107150000D01*
X164055105Y-107150000D01*
X164097562Y-107154181D01*
X164097562Y-107154181D01*
G37*
G36*
X143381393Y-104921304D02*
X143618102Y-105019352D01*
X143831138Y-105161698D01*
X144012302Y-105342862D01*
X144154648Y-105555898D01*
X144252696Y-105792607D01*
X144302680Y-106043893D01*
X144302680Y-106300107D01*
X144252696Y-106551393D01*
X144154648Y-106788102D01*
X144012302Y-107001138D01*
X143831138Y-107182302D01*
X143618102Y-107324648D01*
X143381393Y-107422696D01*
X143130107Y-107472680D01*
X142873893Y-107472680D01*
X142622607Y-107422696D01*
X142385898Y-107324648D01*
X142172862Y-107182302D01*
X141991698Y-107001138D01*
X141849352Y-106788102D01*
X141751304Y-106551393D01*
X141701320Y-106300107D01*
X141701320Y-106043893D01*
X141751304Y-105792607D01*
X141849352Y-105555898D01*
X141991698Y-105342862D01*
X142172862Y-105161698D01*
X142385898Y-105019352D01*
X142622607Y-104921304D01*
X142873893Y-104871320D01*
X143130107Y-104871320D01*
X143381393Y-104921304D01*
X143381393Y-104921304D01*
G37*
G36*
X148985562Y-105250181D02*
X149020477Y-105260773D01*
X149052665Y-105277978D01*
X149080873Y-105301127D01*
X149104022Y-105329335D01*
X149121227Y-105361523D01*
X149131819Y-105396438D01*
X149136000Y-105438895D01*
X149136000Y-106905105D01*
X149131819Y-106947562D01*
X149121227Y-106982477D01*
X149104022Y-107014665D01*
X149080873Y-107042873D01*
X149052665Y-107066022D01*
X149020477Y-107083227D01*
X148985562Y-107093819D01*
X148943105Y-107098000D01*
X147801895Y-107098000D01*
X147759438Y-107093819D01*
X147724523Y-107083227D01*
X147692335Y-107066022D01*
X147664127Y-107042873D01*
X147640978Y-107014665D01*
X147623773Y-106982477D01*
X147613181Y-106947562D01*
X147609000Y-106905105D01*
X147609000Y-105438895D01*
X147613181Y-105396438D01*
X147623773Y-105361523D01*
X147640978Y-105329335D01*
X147664127Y-105301127D01*
X147692335Y-105277978D01*
X147724523Y-105260773D01*
X147759438Y-105250181D01*
X147801895Y-105246000D01*
X148943105Y-105246000D01*
X148985562Y-105250181D01*
X148985562Y-105250181D01*
G37*
G36*
X151960562Y-105250181D02*
X151995477Y-105260773D01*
X152027665Y-105277978D01*
X152055873Y-105301127D01*
X152079022Y-105329335D01*
X152096227Y-105361523D01*
X152106819Y-105396438D01*
X152111000Y-105438895D01*
X152111000Y-106905105D01*
X152106819Y-106947562D01*
X152096227Y-106982477D01*
X152079022Y-107014665D01*
X152055873Y-107042873D01*
X152027665Y-107066022D01*
X151995477Y-107083227D01*
X151960562Y-107093819D01*
X151918105Y-107098000D01*
X150776895Y-107098000D01*
X150734438Y-107093819D01*
X150699523Y-107083227D01*
X150667335Y-107066022D01*
X150639127Y-107042873D01*
X150615978Y-107014665D01*
X150598773Y-106982477D01*
X150588181Y-106947562D01*
X150584000Y-106905105D01*
X150584000Y-105438895D01*
X150588181Y-105396438D01*
X150598773Y-105361523D01*
X150615978Y-105329335D01*
X150639127Y-105301127D01*
X150667335Y-105277978D01*
X150699523Y-105260773D01*
X150734438Y-105250181D01*
X150776895Y-105246000D01*
X151918105Y-105246000D01*
X151960562Y-105250181D01*
X151960562Y-105250181D01*
G37*
G36*
X157215000Y-106482000D02*
X155553000Y-106482000D01*
X155553000Y-103830000D01*
X157215000Y-103830000D01*
X157215000Y-106482000D01*
X157215000Y-106482000D01*
G37*
G36*
X159915000Y-106482000D02*
X158253000Y-106482000D01*
X158253000Y-103830000D01*
X159915000Y-103830000D01*
X159915000Y-106482000D01*
X159915000Y-106482000D01*
G37*
G36*
X164097562Y-104179181D02*
X164132477Y-104189773D01*
X164164665Y-104206978D01*
X164192873Y-104230127D01*
X164216022Y-104258335D01*
X164233227Y-104290523D01*
X164243819Y-104325438D01*
X164248000Y-104367895D01*
X164248000Y-105509105D01*
X164243819Y-105551562D01*
X164233227Y-105586477D01*
X164216022Y-105618665D01*
X164192873Y-105646873D01*
X164164665Y-105670022D01*
X164132477Y-105687227D01*
X164097562Y-105697819D01*
X164055105Y-105702000D01*
X162588895Y-105702000D01*
X162546438Y-105697819D01*
X162511523Y-105687227D01*
X162479335Y-105670022D01*
X162451127Y-105646873D01*
X162427978Y-105618665D01*
X162410773Y-105586477D01*
X162400181Y-105551562D01*
X162396000Y-105509105D01*
X162396000Y-104367895D01*
X162400181Y-104325438D01*
X162410773Y-104290523D01*
X162427978Y-104258335D01*
X162451127Y-104230127D01*
X162479335Y-104206978D01*
X162511523Y-104189773D01*
X162546438Y-104179181D01*
X162588895Y-104175000D01*
X164055105Y-104175000D01*
X164097562Y-104179181D01*
X164097562Y-104179181D01*
G37*
G36*
X169173000Y-105033000D02*
X168171000Y-105033000D01*
X168171000Y-104131000D01*
X169173000Y-104131000D01*
X169173000Y-105033000D01*
X169173000Y-105033000D01*
G37*
G36*
X178941393Y-102381304D02*
X179178102Y-102479352D01*
X179391138Y-102621698D01*
X179572302Y-102802862D01*
X179714648Y-103015898D01*
X179812696Y-103252607D01*
X179862680Y-103503893D01*
X179862680Y-103760107D01*
X179812696Y-104011393D01*
X179714648Y-104248102D01*
X179572302Y-104461138D01*
X179391138Y-104642302D01*
X179178102Y-104784648D01*
X178941393Y-104882696D01*
X178690107Y-104932680D01*
X178433893Y-104932680D01*
X178182607Y-104882696D01*
X177945898Y-104784648D01*
X177732862Y-104642302D01*
X177551698Y-104461138D01*
X177409352Y-104248102D01*
X177311304Y-104011393D01*
X177261320Y-103760107D01*
X177261320Y-103503893D01*
X177311304Y-103252607D01*
X177409352Y-103015898D01*
X177551698Y-102802862D01*
X177732862Y-102621698D01*
X177945898Y-102479352D01*
X178182607Y-102381304D01*
X178433893Y-102331320D01*
X178690107Y-102331320D01*
X178941393Y-102381304D01*
X178941393Y-102381304D01*
G37*
G36*
X171173000Y-104083000D02*
X170171000Y-104083000D01*
X170171000Y-103181000D01*
X171173000Y-103181000D01*
X171173000Y-104083000D01*
X171173000Y-104083000D01*
G37*
G36*
X169173000Y-103133000D02*
X168171000Y-103133000D01*
X168171000Y-102231000D01*
X169173000Y-102231000D01*
X169173000Y-103133000D01*
X169173000Y-103133000D01*
G37*
G36*
X178941393Y-94507304D02*
X179178102Y-94605352D01*
X179391138Y-94747698D01*
X179572302Y-94928862D01*
X179714648Y-95141898D01*
X179812696Y-95378607D01*
X179862680Y-95629893D01*
X179862680Y-95886107D01*
X179812696Y-96137393D01*
X179714648Y-96374102D01*
X179572302Y-96587138D01*
X179391138Y-96768302D01*
X179178102Y-96910648D01*
X178941393Y-97008696D01*
X178690107Y-97058680D01*
X178433893Y-97058680D01*
X178182607Y-97008696D01*
X177945898Y-96910648D01*
X177732862Y-96768302D01*
X177551698Y-96587138D01*
X177409352Y-96374102D01*
X177311304Y-96137393D01*
X177261320Y-95886107D01*
X177261320Y-95629893D01*
X177311304Y-95378607D01*
X177409352Y-95141898D01*
X177551698Y-94928862D01*
X177732862Y-94747698D01*
X177945898Y-94605352D01*
X178182607Y-94507304D01*
X178433893Y-94457320D01*
X178690107Y-94457320D01*
X178941393Y-94507304D01*
X178941393Y-94507304D01*
G37*
G36*
X159834562Y-93820181D02*
X159869477Y-93830773D01*
X159901665Y-93847978D01*
X159929873Y-93871127D01*
X159953022Y-93899335D01*
X159970227Y-93931523D01*
X159980819Y-93966438D01*
X159985000Y-94008895D01*
X159985000Y-95475105D01*
X159980819Y-95517562D01*
X159970227Y-95552477D01*
X159953022Y-95584665D01*
X159929873Y-95612873D01*
X159901665Y-95636022D01*
X159869477Y-95653227D01*
X159834562Y-95663819D01*
X159792105Y-95668000D01*
X158650895Y-95668000D01*
X158608438Y-95663819D01*
X158573523Y-95653227D01*
X158541335Y-95636022D01*
X158513127Y-95612873D01*
X158489978Y-95584665D01*
X158472773Y-95552477D01*
X158462181Y-95517562D01*
X158458000Y-95475105D01*
X158458000Y-94008895D01*
X158462181Y-93966438D01*
X158472773Y-93931523D01*
X158489978Y-93899335D01*
X158513127Y-93871127D01*
X158541335Y-93847978D01*
X158573523Y-93830773D01*
X158608438Y-93820181D01*
X158650895Y-93816000D01*
X159792105Y-93816000D01*
X159834562Y-93820181D01*
X159834562Y-93820181D01*
G37*
G36*
X156859562Y-93820181D02*
X156894477Y-93830773D01*
X156926665Y-93847978D01*
X156954873Y-93871127D01*
X156978022Y-93899335D01*
X156995227Y-93931523D01*
X157005819Y-93966438D01*
X157010000Y-94008895D01*
X157010000Y-95475105D01*
X157005819Y-95517562D01*
X156995227Y-95552477D01*
X156978022Y-95584665D01*
X156954873Y-95612873D01*
X156926665Y-95636022D01*
X156894477Y-95653227D01*
X156859562Y-95663819D01*
X156817105Y-95668000D01*
X155675895Y-95668000D01*
X155633438Y-95663819D01*
X155598523Y-95653227D01*
X155566335Y-95636022D01*
X155538127Y-95612873D01*
X155514978Y-95584665D01*
X155497773Y-95552477D01*
X155487181Y-95517562D01*
X155483000Y-95475105D01*
X155483000Y-94008895D01*
X155487181Y-93966438D01*
X155497773Y-93931523D01*
X155514978Y-93899335D01*
X155538127Y-93871127D01*
X155566335Y-93847978D01*
X155598523Y-93830773D01*
X155633438Y-93820181D01*
X155675895Y-93816000D01*
X156817105Y-93816000D01*
X156859562Y-93820181D01*
X156859562Y-93820181D01*
G37*
G36*
X164097562Y-91660181D02*
X164132477Y-91670773D01*
X164164665Y-91687978D01*
X164192873Y-91711127D01*
X164216022Y-91739335D01*
X164233227Y-91771523D01*
X164243819Y-91806438D01*
X164248000Y-91848895D01*
X164248000Y-92990105D01*
X164243819Y-93032562D01*
X164233227Y-93067477D01*
X164216022Y-93099665D01*
X164192873Y-93127873D01*
X164164665Y-93151022D01*
X164132477Y-93168227D01*
X164097562Y-93178819D01*
X164055105Y-93183000D01*
X162588895Y-93183000D01*
X162546438Y-93178819D01*
X162511523Y-93168227D01*
X162479335Y-93151022D01*
X162451127Y-93127873D01*
X162427978Y-93099665D01*
X162410773Y-93067477D01*
X162400181Y-93032562D01*
X162396000Y-92990105D01*
X162396000Y-91848895D01*
X162400181Y-91806438D01*
X162410773Y-91771523D01*
X162427978Y-91739335D01*
X162451127Y-91711127D01*
X162479335Y-91687978D01*
X162511523Y-91670773D01*
X162546438Y-91660181D01*
X162588895Y-91656000D01*
X164055105Y-91656000D01*
X164097562Y-91660181D01*
X164097562Y-91660181D01*
G37*
G36*
X143381393Y-89681304D02*
X143618102Y-89779352D01*
X143831138Y-89921698D01*
X144012302Y-90102862D01*
X144154648Y-90315898D01*
X144252696Y-90552607D01*
X144302680Y-90803893D01*
X144302680Y-91060107D01*
X144252696Y-91311393D01*
X144154648Y-91548102D01*
X144012302Y-91761138D01*
X143831138Y-91942302D01*
X143618102Y-92084648D01*
X143381393Y-92182696D01*
X143130107Y-92232680D01*
X142873893Y-92232680D01*
X142622607Y-92182696D01*
X142385898Y-92084648D01*
X142172862Y-91942302D01*
X141991698Y-91761138D01*
X141849352Y-91548102D01*
X141751304Y-91311393D01*
X141701320Y-91060107D01*
X141701320Y-90803893D01*
X141751304Y-90552607D01*
X141849352Y-90315898D01*
X141991698Y-90102862D01*
X142172862Y-89921698D01*
X142385898Y-89779352D01*
X142622607Y-89681304D01*
X142873893Y-89631320D01*
X143130107Y-89631320D01*
X143381393Y-89681304D01*
X143381393Y-89681304D01*
G37*
G36*
X148985562Y-90010181D02*
X149020477Y-90020773D01*
X149052665Y-90037978D01*
X149080873Y-90061127D01*
X149104022Y-90089335D01*
X149121227Y-90121523D01*
X149131819Y-90156438D01*
X149136000Y-90198895D01*
X149136000Y-91665105D01*
X149131819Y-91707562D01*
X149121227Y-91742477D01*
X149104022Y-91774665D01*
X149080873Y-91802873D01*
X149052665Y-91826022D01*
X149020477Y-91843227D01*
X148985562Y-91853819D01*
X148943105Y-91858000D01*
X147801895Y-91858000D01*
X147759438Y-91853819D01*
X147724523Y-91843227D01*
X147692335Y-91826022D01*
X147664127Y-91802873D01*
X147640978Y-91774665D01*
X147623773Y-91742477D01*
X147613181Y-91707562D01*
X147609000Y-91665105D01*
X147609000Y-90198895D01*
X147613181Y-90156438D01*
X147623773Y-90121523D01*
X147640978Y-90089335D01*
X147664127Y-90061127D01*
X147692335Y-90037978D01*
X147724523Y-90020773D01*
X147759438Y-90010181D01*
X147801895Y-90006000D01*
X148943105Y-90006000D01*
X148985562Y-90010181D01*
X148985562Y-90010181D01*
G37*
G36*
X151960562Y-90010181D02*
X151995477Y-90020773D01*
X152027665Y-90037978D01*
X152055873Y-90061127D01*
X152079022Y-90089335D01*
X152096227Y-90121523D01*
X152106819Y-90156438D01*
X152111000Y-90198895D01*
X152111000Y-91665105D01*
X152106819Y-91707562D01*
X152096227Y-91742477D01*
X152079022Y-91774665D01*
X152055873Y-91802873D01*
X152027665Y-91826022D01*
X151995477Y-91843227D01*
X151960562Y-91853819D01*
X151918105Y-91858000D01*
X150776895Y-91858000D01*
X150734438Y-91853819D01*
X150699523Y-91843227D01*
X150667335Y-91826022D01*
X150639127Y-91802873D01*
X150615978Y-91774665D01*
X150598773Y-91742477D01*
X150588181Y-91707562D01*
X150584000Y-91665105D01*
X150584000Y-90198895D01*
X150588181Y-90156438D01*
X150598773Y-90121523D01*
X150615978Y-90089335D01*
X150639127Y-90061127D01*
X150667335Y-90037978D01*
X150699523Y-90020773D01*
X150734438Y-90010181D01*
X150776895Y-90006000D01*
X151918105Y-90006000D01*
X151960562Y-90010181D01*
X151960562Y-90010181D01*
G37*
G36*
X157215000Y-91496000D02*
X155553000Y-91496000D01*
X155553000Y-88844000D01*
X157215000Y-88844000D01*
X157215000Y-91496000D01*
X157215000Y-91496000D01*
G37*
G36*
X159915000Y-91496000D02*
X158253000Y-91496000D01*
X158253000Y-88844000D01*
X159915000Y-88844000D01*
X159915000Y-91496000D01*
X159915000Y-91496000D01*
G37*
G36*
X164097562Y-88685181D02*
X164132477Y-88695773D01*
X164164665Y-88712978D01*
X164192873Y-88736127D01*
X164216022Y-88764335D01*
X164233227Y-88796523D01*
X164243819Y-88831438D01*
X164248000Y-88873895D01*
X164248000Y-90015105D01*
X164243819Y-90057562D01*
X164233227Y-90092477D01*
X164216022Y-90124665D01*
X164192873Y-90152873D01*
X164164665Y-90176022D01*
X164132477Y-90193227D01*
X164097562Y-90203819D01*
X164055105Y-90208000D01*
X162588895Y-90208000D01*
X162546438Y-90203819D01*
X162511523Y-90193227D01*
X162479335Y-90176022D01*
X162451127Y-90152873D01*
X162427978Y-90124665D01*
X162410773Y-90092477D01*
X162400181Y-90057562D01*
X162396000Y-90015105D01*
X162396000Y-88873895D01*
X162400181Y-88831438D01*
X162410773Y-88796523D01*
X162427978Y-88764335D01*
X162451127Y-88736127D01*
X162479335Y-88712978D01*
X162511523Y-88695773D01*
X162546438Y-88685181D01*
X162588895Y-88681000D01*
X164055105Y-88681000D01*
X164097562Y-88685181D01*
X164097562Y-88685181D01*
G37*
G36*
X169173000Y-89539000D02*
X168171000Y-89539000D01*
X168171000Y-88637000D01*
X169173000Y-88637000D01*
X169173000Y-89539000D01*
X169173000Y-89539000D01*
G37*
G36*
X178941393Y-86887304D02*
X179178102Y-86985352D01*
X179391138Y-87127698D01*
X179572302Y-87308862D01*
X179714648Y-87521898D01*
X179812696Y-87758607D01*
X179862680Y-88009893D01*
X179862680Y-88266107D01*
X179812696Y-88517393D01*
X179714648Y-88754102D01*
X179572302Y-88967138D01*
X179391138Y-89148302D01*
X179178102Y-89290648D01*
X178941393Y-89388696D01*
X178690107Y-89438680D01*
X178433893Y-89438680D01*
X178182607Y-89388696D01*
X177945898Y-89290648D01*
X177732862Y-89148302D01*
X177551698Y-88967138D01*
X177409352Y-88754102D01*
X177311304Y-88517393D01*
X177261320Y-88266107D01*
X177261320Y-88009893D01*
X177311304Y-87758607D01*
X177409352Y-87521898D01*
X177551698Y-87308862D01*
X177732862Y-87127698D01*
X177945898Y-86985352D01*
X178182607Y-86887304D01*
X178433893Y-86837320D01*
X178690107Y-86837320D01*
X178941393Y-86887304D01*
X178941393Y-86887304D01*
G37*
G36*
X171173000Y-88589000D02*
X170171000Y-88589000D01*
X170171000Y-87687000D01*
X171173000Y-87687000D01*
X171173000Y-88589000D01*
X171173000Y-88589000D01*
G37*
G36*
X169173000Y-87639000D02*
X168171000Y-87639000D01*
X168171000Y-86737000D01*
X169173000Y-86737000D01*
X169173000Y-87639000D01*
X169173000Y-87639000D01*
G37*
G36*
X141349485Y-83838996D02*
X141349487Y-83838997D01*
X141349488Y-83838997D01*
X141586255Y-83937069D01*
X141799342Y-84079449D01*
X141980551Y-84260658D01*
X142122931Y-84473745D01*
X142221004Y-84710515D01*
X142271000Y-84961861D01*
X142271000Y-85218139D01*
X142221004Y-85469485D01*
X142122931Y-85706255D01*
X141980551Y-85919342D01*
X141799342Y-86100551D01*
X141799339Y-86100553D01*
X141586255Y-86242931D01*
X141349488Y-86341003D01*
X141349487Y-86341003D01*
X141349485Y-86341004D01*
X141098139Y-86391000D01*
X140841861Y-86391000D01*
X140590515Y-86341004D01*
X140590513Y-86341003D01*
X140590512Y-86341003D01*
X140353745Y-86242931D01*
X140140661Y-86100553D01*
X140140658Y-86100551D01*
X139959449Y-85919342D01*
X139817069Y-85706255D01*
X139718996Y-85469485D01*
X139669000Y-85218139D01*
X139669000Y-84961861D01*
X139718996Y-84710515D01*
X139817069Y-84473745D01*
X139959449Y-84260658D01*
X140140658Y-84079449D01*
X140353745Y-83937069D01*
X140590512Y-83838997D01*
X140590513Y-83838997D01*
X140590515Y-83838996D01*
X140841861Y-83789000D01*
X141098139Y-83789000D01*
X141349485Y-83838996D01*
X141349485Y-83838996D01*
G37*
G36*
X184275485Y-83838996D02*
X184275487Y-83838997D01*
X184275488Y-83838997D01*
X184512255Y-83937069D01*
X184725342Y-84079449D01*
X184906551Y-84260658D01*
X185048931Y-84473745D01*
X185147004Y-84710515D01*
X185197000Y-84961861D01*
X185197000Y-85218139D01*
X185147004Y-85469485D01*
X185048931Y-85706255D01*
X184906551Y-85919342D01*
X184725342Y-86100551D01*
X184725339Y-86100553D01*
X184512255Y-86242931D01*
X184275488Y-86341003D01*
X184275487Y-86341003D01*
X184275485Y-86341004D01*
X184024139Y-86391000D01*
X183767861Y-86391000D01*
X183516515Y-86341004D01*
X183516513Y-86341003D01*
X183516512Y-86341003D01*
X183279745Y-86242931D01*
X183066661Y-86100553D01*
X183066658Y-86100551D01*
X182885449Y-85919342D01*
X182743069Y-85706255D01*
X182644996Y-85469485D01*
X182595000Y-85218139D01*
X182595000Y-84961861D01*
X182644996Y-84710515D01*
X182743069Y-84473745D01*
X182885449Y-84260658D01*
X183066658Y-84079449D01*
X183279745Y-83937069D01*
X183516512Y-83838997D01*
X183516513Y-83838997D01*
X183516515Y-83838996D01*
X183767861Y-83789000D01*
X184024139Y-83789000D01*
X184275485Y-83838996D01*
X184275485Y-83838996D01*
G37*
M02*
