G04 #@! TF.GenerationSoftware,KiCad,Pcbnew,5.0.2+dfsg1-1*
G04 #@! TF.CreationDate,2019-12-28T21:20:38-05:00*
G04 #@! TF.ProjectId,2001captchpad,32303031-6361-4707-9463-687061642e6b,rev?*
G04 #@! TF.SameCoordinates,Original*
G04 #@! TF.FileFunction,Paste,Top*
G04 #@! TF.FilePolarity,Positive*
%FSLAX46Y46*%
G04 Gerber Fmt 4.6, Leading zero omitted, Abs format (unit mm)*
G04 Created by KiCad (PCBNEW 5.0.2+dfsg1-1) date Sat 28 Dec 2019 09:20:38 PM EST*
%MOMM*%
%LPD*%
G01*
G04 APERTURE LIST*
%ADD10C,0.100000*%
%ADD11C,1.425000*%
%ADD12R,0.900000X0.800000*%
%ADD13R,1.560000X0.650000*%
G04 APERTURE END LIST*
D10*
G04 #@! TO.C,C1*
G36*
X163971504Y-88733204D02*
X163995773Y-88736804D01*
X164019571Y-88742765D01*
X164042671Y-88751030D01*
X164064849Y-88761520D01*
X164085893Y-88774133D01*
X164105598Y-88788747D01*
X164123777Y-88805223D01*
X164140253Y-88823402D01*
X164154867Y-88843107D01*
X164167480Y-88864151D01*
X164177970Y-88886329D01*
X164186235Y-88909429D01*
X164192196Y-88933227D01*
X164195796Y-88957496D01*
X164197000Y-88982000D01*
X164197000Y-89907000D01*
X164195796Y-89931504D01*
X164192196Y-89955773D01*
X164186235Y-89979571D01*
X164177970Y-90002671D01*
X164167480Y-90024849D01*
X164154867Y-90045893D01*
X164140253Y-90065598D01*
X164123777Y-90083777D01*
X164105598Y-90100253D01*
X164085893Y-90114867D01*
X164064849Y-90127480D01*
X164042671Y-90137970D01*
X164019571Y-90146235D01*
X163995773Y-90152196D01*
X163971504Y-90155796D01*
X163947000Y-90157000D01*
X162697000Y-90157000D01*
X162672496Y-90155796D01*
X162648227Y-90152196D01*
X162624429Y-90146235D01*
X162601329Y-90137970D01*
X162579151Y-90127480D01*
X162558107Y-90114867D01*
X162538402Y-90100253D01*
X162520223Y-90083777D01*
X162503747Y-90065598D01*
X162489133Y-90045893D01*
X162476520Y-90024849D01*
X162466030Y-90002671D01*
X162457765Y-89979571D01*
X162451804Y-89955773D01*
X162448204Y-89931504D01*
X162447000Y-89907000D01*
X162447000Y-88982000D01*
X162448204Y-88957496D01*
X162451804Y-88933227D01*
X162457765Y-88909429D01*
X162466030Y-88886329D01*
X162476520Y-88864151D01*
X162489133Y-88843107D01*
X162503747Y-88823402D01*
X162520223Y-88805223D01*
X162538402Y-88788747D01*
X162558107Y-88774133D01*
X162579151Y-88761520D01*
X162601329Y-88751030D01*
X162624429Y-88742765D01*
X162648227Y-88736804D01*
X162672496Y-88733204D01*
X162697000Y-88732000D01*
X163947000Y-88732000D01*
X163971504Y-88733204D01*
X163971504Y-88733204D01*
G37*
D11*
X163322000Y-89444500D03*
D10*
G36*
X163971504Y-91708204D02*
X163995773Y-91711804D01*
X164019571Y-91717765D01*
X164042671Y-91726030D01*
X164064849Y-91736520D01*
X164085893Y-91749133D01*
X164105598Y-91763747D01*
X164123777Y-91780223D01*
X164140253Y-91798402D01*
X164154867Y-91818107D01*
X164167480Y-91839151D01*
X164177970Y-91861329D01*
X164186235Y-91884429D01*
X164192196Y-91908227D01*
X164195796Y-91932496D01*
X164197000Y-91957000D01*
X164197000Y-92882000D01*
X164195796Y-92906504D01*
X164192196Y-92930773D01*
X164186235Y-92954571D01*
X164177970Y-92977671D01*
X164167480Y-92999849D01*
X164154867Y-93020893D01*
X164140253Y-93040598D01*
X164123777Y-93058777D01*
X164105598Y-93075253D01*
X164085893Y-93089867D01*
X164064849Y-93102480D01*
X164042671Y-93112970D01*
X164019571Y-93121235D01*
X163995773Y-93127196D01*
X163971504Y-93130796D01*
X163947000Y-93132000D01*
X162697000Y-93132000D01*
X162672496Y-93130796D01*
X162648227Y-93127196D01*
X162624429Y-93121235D01*
X162601329Y-93112970D01*
X162579151Y-93102480D01*
X162558107Y-93089867D01*
X162538402Y-93075253D01*
X162520223Y-93058777D01*
X162503747Y-93040598D01*
X162489133Y-93020893D01*
X162476520Y-92999849D01*
X162466030Y-92977671D01*
X162457765Y-92954571D01*
X162451804Y-92930773D01*
X162448204Y-92906504D01*
X162447000Y-92882000D01*
X162447000Y-91957000D01*
X162448204Y-91932496D01*
X162451804Y-91908227D01*
X162457765Y-91884429D01*
X162466030Y-91861329D01*
X162476520Y-91839151D01*
X162489133Y-91818107D01*
X162503747Y-91798402D01*
X162520223Y-91780223D01*
X162538402Y-91763747D01*
X162558107Y-91749133D01*
X162579151Y-91736520D01*
X162601329Y-91726030D01*
X162624429Y-91717765D01*
X162648227Y-91711804D01*
X162672496Y-91708204D01*
X162697000Y-91707000D01*
X163947000Y-91707000D01*
X163971504Y-91708204D01*
X163971504Y-91708204D01*
G37*
D11*
X163322000Y-92419500D03*
G04 #@! TD*
D10*
G04 #@! TO.C,C2*
G36*
X159708504Y-93868204D02*
X159732773Y-93871804D01*
X159756571Y-93877765D01*
X159779671Y-93886030D01*
X159801849Y-93896520D01*
X159822893Y-93909133D01*
X159842598Y-93923747D01*
X159860777Y-93940223D01*
X159877253Y-93958402D01*
X159891867Y-93978107D01*
X159904480Y-93999151D01*
X159914970Y-94021329D01*
X159923235Y-94044429D01*
X159929196Y-94068227D01*
X159932796Y-94092496D01*
X159934000Y-94117000D01*
X159934000Y-95367000D01*
X159932796Y-95391504D01*
X159929196Y-95415773D01*
X159923235Y-95439571D01*
X159914970Y-95462671D01*
X159904480Y-95484849D01*
X159891867Y-95505893D01*
X159877253Y-95525598D01*
X159860777Y-95543777D01*
X159842598Y-95560253D01*
X159822893Y-95574867D01*
X159801849Y-95587480D01*
X159779671Y-95597970D01*
X159756571Y-95606235D01*
X159732773Y-95612196D01*
X159708504Y-95615796D01*
X159684000Y-95617000D01*
X158759000Y-95617000D01*
X158734496Y-95615796D01*
X158710227Y-95612196D01*
X158686429Y-95606235D01*
X158663329Y-95597970D01*
X158641151Y-95587480D01*
X158620107Y-95574867D01*
X158600402Y-95560253D01*
X158582223Y-95543777D01*
X158565747Y-95525598D01*
X158551133Y-95505893D01*
X158538520Y-95484849D01*
X158528030Y-95462671D01*
X158519765Y-95439571D01*
X158513804Y-95415773D01*
X158510204Y-95391504D01*
X158509000Y-95367000D01*
X158509000Y-94117000D01*
X158510204Y-94092496D01*
X158513804Y-94068227D01*
X158519765Y-94044429D01*
X158528030Y-94021329D01*
X158538520Y-93999151D01*
X158551133Y-93978107D01*
X158565747Y-93958402D01*
X158582223Y-93940223D01*
X158600402Y-93923747D01*
X158620107Y-93909133D01*
X158641151Y-93896520D01*
X158663329Y-93886030D01*
X158686429Y-93877765D01*
X158710227Y-93871804D01*
X158734496Y-93868204D01*
X158759000Y-93867000D01*
X159684000Y-93867000D01*
X159708504Y-93868204D01*
X159708504Y-93868204D01*
G37*
D11*
X159221500Y-94742000D03*
D10*
G36*
X156733504Y-93868204D02*
X156757773Y-93871804D01*
X156781571Y-93877765D01*
X156804671Y-93886030D01*
X156826849Y-93896520D01*
X156847893Y-93909133D01*
X156867598Y-93923747D01*
X156885777Y-93940223D01*
X156902253Y-93958402D01*
X156916867Y-93978107D01*
X156929480Y-93999151D01*
X156939970Y-94021329D01*
X156948235Y-94044429D01*
X156954196Y-94068227D01*
X156957796Y-94092496D01*
X156959000Y-94117000D01*
X156959000Y-95367000D01*
X156957796Y-95391504D01*
X156954196Y-95415773D01*
X156948235Y-95439571D01*
X156939970Y-95462671D01*
X156929480Y-95484849D01*
X156916867Y-95505893D01*
X156902253Y-95525598D01*
X156885777Y-95543777D01*
X156867598Y-95560253D01*
X156847893Y-95574867D01*
X156826849Y-95587480D01*
X156804671Y-95597970D01*
X156781571Y-95606235D01*
X156757773Y-95612196D01*
X156733504Y-95615796D01*
X156709000Y-95617000D01*
X155784000Y-95617000D01*
X155759496Y-95615796D01*
X155735227Y-95612196D01*
X155711429Y-95606235D01*
X155688329Y-95597970D01*
X155666151Y-95587480D01*
X155645107Y-95574867D01*
X155625402Y-95560253D01*
X155607223Y-95543777D01*
X155590747Y-95525598D01*
X155576133Y-95505893D01*
X155563520Y-95484849D01*
X155553030Y-95462671D01*
X155544765Y-95439571D01*
X155538804Y-95415773D01*
X155535204Y-95391504D01*
X155534000Y-95367000D01*
X155534000Y-94117000D01*
X155535204Y-94092496D01*
X155538804Y-94068227D01*
X155544765Y-94044429D01*
X155553030Y-94021329D01*
X155563520Y-93999151D01*
X155576133Y-93978107D01*
X155590747Y-93958402D01*
X155607223Y-93940223D01*
X155625402Y-93923747D01*
X155645107Y-93909133D01*
X155666151Y-93896520D01*
X155688329Y-93886030D01*
X155711429Y-93877765D01*
X155735227Y-93871804D01*
X155759496Y-93868204D01*
X155784000Y-93867000D01*
X156709000Y-93867000D01*
X156733504Y-93868204D01*
X156733504Y-93868204D01*
G37*
D11*
X156246500Y-94742000D03*
G04 #@! TD*
D10*
G04 #@! TO.C,C3*
G36*
X163971504Y-104227204D02*
X163995773Y-104230804D01*
X164019571Y-104236765D01*
X164042671Y-104245030D01*
X164064849Y-104255520D01*
X164085893Y-104268133D01*
X164105598Y-104282747D01*
X164123777Y-104299223D01*
X164140253Y-104317402D01*
X164154867Y-104337107D01*
X164167480Y-104358151D01*
X164177970Y-104380329D01*
X164186235Y-104403429D01*
X164192196Y-104427227D01*
X164195796Y-104451496D01*
X164197000Y-104476000D01*
X164197000Y-105401000D01*
X164195796Y-105425504D01*
X164192196Y-105449773D01*
X164186235Y-105473571D01*
X164177970Y-105496671D01*
X164167480Y-105518849D01*
X164154867Y-105539893D01*
X164140253Y-105559598D01*
X164123777Y-105577777D01*
X164105598Y-105594253D01*
X164085893Y-105608867D01*
X164064849Y-105621480D01*
X164042671Y-105631970D01*
X164019571Y-105640235D01*
X163995773Y-105646196D01*
X163971504Y-105649796D01*
X163947000Y-105651000D01*
X162697000Y-105651000D01*
X162672496Y-105649796D01*
X162648227Y-105646196D01*
X162624429Y-105640235D01*
X162601329Y-105631970D01*
X162579151Y-105621480D01*
X162558107Y-105608867D01*
X162538402Y-105594253D01*
X162520223Y-105577777D01*
X162503747Y-105559598D01*
X162489133Y-105539893D01*
X162476520Y-105518849D01*
X162466030Y-105496671D01*
X162457765Y-105473571D01*
X162451804Y-105449773D01*
X162448204Y-105425504D01*
X162447000Y-105401000D01*
X162447000Y-104476000D01*
X162448204Y-104451496D01*
X162451804Y-104427227D01*
X162457765Y-104403429D01*
X162466030Y-104380329D01*
X162476520Y-104358151D01*
X162489133Y-104337107D01*
X162503747Y-104317402D01*
X162520223Y-104299223D01*
X162538402Y-104282747D01*
X162558107Y-104268133D01*
X162579151Y-104255520D01*
X162601329Y-104245030D01*
X162624429Y-104236765D01*
X162648227Y-104230804D01*
X162672496Y-104227204D01*
X162697000Y-104226000D01*
X163947000Y-104226000D01*
X163971504Y-104227204D01*
X163971504Y-104227204D01*
G37*
D11*
X163322000Y-104938500D03*
D10*
G36*
X163971504Y-107202204D02*
X163995773Y-107205804D01*
X164019571Y-107211765D01*
X164042671Y-107220030D01*
X164064849Y-107230520D01*
X164085893Y-107243133D01*
X164105598Y-107257747D01*
X164123777Y-107274223D01*
X164140253Y-107292402D01*
X164154867Y-107312107D01*
X164167480Y-107333151D01*
X164177970Y-107355329D01*
X164186235Y-107378429D01*
X164192196Y-107402227D01*
X164195796Y-107426496D01*
X164197000Y-107451000D01*
X164197000Y-108376000D01*
X164195796Y-108400504D01*
X164192196Y-108424773D01*
X164186235Y-108448571D01*
X164177970Y-108471671D01*
X164167480Y-108493849D01*
X164154867Y-108514893D01*
X164140253Y-108534598D01*
X164123777Y-108552777D01*
X164105598Y-108569253D01*
X164085893Y-108583867D01*
X164064849Y-108596480D01*
X164042671Y-108606970D01*
X164019571Y-108615235D01*
X163995773Y-108621196D01*
X163971504Y-108624796D01*
X163947000Y-108626000D01*
X162697000Y-108626000D01*
X162672496Y-108624796D01*
X162648227Y-108621196D01*
X162624429Y-108615235D01*
X162601329Y-108606970D01*
X162579151Y-108596480D01*
X162558107Y-108583867D01*
X162538402Y-108569253D01*
X162520223Y-108552777D01*
X162503747Y-108534598D01*
X162489133Y-108514893D01*
X162476520Y-108493849D01*
X162466030Y-108471671D01*
X162457765Y-108448571D01*
X162451804Y-108424773D01*
X162448204Y-108400504D01*
X162447000Y-108376000D01*
X162447000Y-107451000D01*
X162448204Y-107426496D01*
X162451804Y-107402227D01*
X162457765Y-107378429D01*
X162466030Y-107355329D01*
X162476520Y-107333151D01*
X162489133Y-107312107D01*
X162503747Y-107292402D01*
X162520223Y-107274223D01*
X162538402Y-107257747D01*
X162558107Y-107243133D01*
X162579151Y-107230520D01*
X162601329Y-107220030D01*
X162624429Y-107211765D01*
X162648227Y-107205804D01*
X162672496Y-107202204D01*
X162697000Y-107201000D01*
X163947000Y-107201000D01*
X163971504Y-107202204D01*
X163971504Y-107202204D01*
G37*
D11*
X163322000Y-107913500D03*
G04 #@! TD*
D10*
G04 #@! TO.C,C4*
G36*
X159708504Y-109362204D02*
X159732773Y-109365804D01*
X159756571Y-109371765D01*
X159779671Y-109380030D01*
X159801849Y-109390520D01*
X159822893Y-109403133D01*
X159842598Y-109417747D01*
X159860777Y-109434223D01*
X159877253Y-109452402D01*
X159891867Y-109472107D01*
X159904480Y-109493151D01*
X159914970Y-109515329D01*
X159923235Y-109538429D01*
X159929196Y-109562227D01*
X159932796Y-109586496D01*
X159934000Y-109611000D01*
X159934000Y-110861000D01*
X159932796Y-110885504D01*
X159929196Y-110909773D01*
X159923235Y-110933571D01*
X159914970Y-110956671D01*
X159904480Y-110978849D01*
X159891867Y-110999893D01*
X159877253Y-111019598D01*
X159860777Y-111037777D01*
X159842598Y-111054253D01*
X159822893Y-111068867D01*
X159801849Y-111081480D01*
X159779671Y-111091970D01*
X159756571Y-111100235D01*
X159732773Y-111106196D01*
X159708504Y-111109796D01*
X159684000Y-111111000D01*
X158759000Y-111111000D01*
X158734496Y-111109796D01*
X158710227Y-111106196D01*
X158686429Y-111100235D01*
X158663329Y-111091970D01*
X158641151Y-111081480D01*
X158620107Y-111068867D01*
X158600402Y-111054253D01*
X158582223Y-111037777D01*
X158565747Y-111019598D01*
X158551133Y-110999893D01*
X158538520Y-110978849D01*
X158528030Y-110956671D01*
X158519765Y-110933571D01*
X158513804Y-110909773D01*
X158510204Y-110885504D01*
X158509000Y-110861000D01*
X158509000Y-109611000D01*
X158510204Y-109586496D01*
X158513804Y-109562227D01*
X158519765Y-109538429D01*
X158528030Y-109515329D01*
X158538520Y-109493151D01*
X158551133Y-109472107D01*
X158565747Y-109452402D01*
X158582223Y-109434223D01*
X158600402Y-109417747D01*
X158620107Y-109403133D01*
X158641151Y-109390520D01*
X158663329Y-109380030D01*
X158686429Y-109371765D01*
X158710227Y-109365804D01*
X158734496Y-109362204D01*
X158759000Y-109361000D01*
X159684000Y-109361000D01*
X159708504Y-109362204D01*
X159708504Y-109362204D01*
G37*
D11*
X159221500Y-110236000D03*
D10*
G36*
X156733504Y-109362204D02*
X156757773Y-109365804D01*
X156781571Y-109371765D01*
X156804671Y-109380030D01*
X156826849Y-109390520D01*
X156847893Y-109403133D01*
X156867598Y-109417747D01*
X156885777Y-109434223D01*
X156902253Y-109452402D01*
X156916867Y-109472107D01*
X156929480Y-109493151D01*
X156939970Y-109515329D01*
X156948235Y-109538429D01*
X156954196Y-109562227D01*
X156957796Y-109586496D01*
X156959000Y-109611000D01*
X156959000Y-110861000D01*
X156957796Y-110885504D01*
X156954196Y-110909773D01*
X156948235Y-110933571D01*
X156939970Y-110956671D01*
X156929480Y-110978849D01*
X156916867Y-110999893D01*
X156902253Y-111019598D01*
X156885777Y-111037777D01*
X156867598Y-111054253D01*
X156847893Y-111068867D01*
X156826849Y-111081480D01*
X156804671Y-111091970D01*
X156781571Y-111100235D01*
X156757773Y-111106196D01*
X156733504Y-111109796D01*
X156709000Y-111111000D01*
X155784000Y-111111000D01*
X155759496Y-111109796D01*
X155735227Y-111106196D01*
X155711429Y-111100235D01*
X155688329Y-111091970D01*
X155666151Y-111081480D01*
X155645107Y-111068867D01*
X155625402Y-111054253D01*
X155607223Y-111037777D01*
X155590747Y-111019598D01*
X155576133Y-110999893D01*
X155563520Y-110978849D01*
X155553030Y-110956671D01*
X155544765Y-110933571D01*
X155538804Y-110909773D01*
X155535204Y-110885504D01*
X155534000Y-110861000D01*
X155534000Y-109611000D01*
X155535204Y-109586496D01*
X155538804Y-109562227D01*
X155544765Y-109538429D01*
X155553030Y-109515329D01*
X155563520Y-109493151D01*
X155576133Y-109472107D01*
X155590747Y-109452402D01*
X155607223Y-109434223D01*
X155625402Y-109417747D01*
X155645107Y-109403133D01*
X155666151Y-109390520D01*
X155688329Y-109380030D01*
X155711429Y-109371765D01*
X155735227Y-109365804D01*
X155759496Y-109362204D01*
X155784000Y-109361000D01*
X156709000Y-109361000D01*
X156733504Y-109362204D01*
X156733504Y-109362204D01*
G37*
D11*
X156246500Y-110236000D03*
G04 #@! TD*
D12*
G04 #@! TO.C,Q1*
X170672000Y-88138000D03*
X168672000Y-89088000D03*
X168672000Y-87188000D03*
G04 #@! TD*
G04 #@! TO.C,Q2*
X170672000Y-103632000D03*
X168672000Y-104582000D03*
X168672000Y-102682000D03*
G04 #@! TD*
D10*
G04 #@! TO.C,R1*
G36*
X151834504Y-90058204D02*
X151858773Y-90061804D01*
X151882571Y-90067765D01*
X151905671Y-90076030D01*
X151927849Y-90086520D01*
X151948893Y-90099133D01*
X151968598Y-90113747D01*
X151986777Y-90130223D01*
X152003253Y-90148402D01*
X152017867Y-90168107D01*
X152030480Y-90189151D01*
X152040970Y-90211329D01*
X152049235Y-90234429D01*
X152055196Y-90258227D01*
X152058796Y-90282496D01*
X152060000Y-90307000D01*
X152060000Y-91557000D01*
X152058796Y-91581504D01*
X152055196Y-91605773D01*
X152049235Y-91629571D01*
X152040970Y-91652671D01*
X152030480Y-91674849D01*
X152017867Y-91695893D01*
X152003253Y-91715598D01*
X151986777Y-91733777D01*
X151968598Y-91750253D01*
X151948893Y-91764867D01*
X151927849Y-91777480D01*
X151905671Y-91787970D01*
X151882571Y-91796235D01*
X151858773Y-91802196D01*
X151834504Y-91805796D01*
X151810000Y-91807000D01*
X150885000Y-91807000D01*
X150860496Y-91805796D01*
X150836227Y-91802196D01*
X150812429Y-91796235D01*
X150789329Y-91787970D01*
X150767151Y-91777480D01*
X150746107Y-91764867D01*
X150726402Y-91750253D01*
X150708223Y-91733777D01*
X150691747Y-91715598D01*
X150677133Y-91695893D01*
X150664520Y-91674849D01*
X150654030Y-91652671D01*
X150645765Y-91629571D01*
X150639804Y-91605773D01*
X150636204Y-91581504D01*
X150635000Y-91557000D01*
X150635000Y-90307000D01*
X150636204Y-90282496D01*
X150639804Y-90258227D01*
X150645765Y-90234429D01*
X150654030Y-90211329D01*
X150664520Y-90189151D01*
X150677133Y-90168107D01*
X150691747Y-90148402D01*
X150708223Y-90130223D01*
X150726402Y-90113747D01*
X150746107Y-90099133D01*
X150767151Y-90086520D01*
X150789329Y-90076030D01*
X150812429Y-90067765D01*
X150836227Y-90061804D01*
X150860496Y-90058204D01*
X150885000Y-90057000D01*
X151810000Y-90057000D01*
X151834504Y-90058204D01*
X151834504Y-90058204D01*
G37*
D11*
X151347500Y-90932000D03*
D10*
G36*
X148859504Y-90058204D02*
X148883773Y-90061804D01*
X148907571Y-90067765D01*
X148930671Y-90076030D01*
X148952849Y-90086520D01*
X148973893Y-90099133D01*
X148993598Y-90113747D01*
X149011777Y-90130223D01*
X149028253Y-90148402D01*
X149042867Y-90168107D01*
X149055480Y-90189151D01*
X149065970Y-90211329D01*
X149074235Y-90234429D01*
X149080196Y-90258227D01*
X149083796Y-90282496D01*
X149085000Y-90307000D01*
X149085000Y-91557000D01*
X149083796Y-91581504D01*
X149080196Y-91605773D01*
X149074235Y-91629571D01*
X149065970Y-91652671D01*
X149055480Y-91674849D01*
X149042867Y-91695893D01*
X149028253Y-91715598D01*
X149011777Y-91733777D01*
X148993598Y-91750253D01*
X148973893Y-91764867D01*
X148952849Y-91777480D01*
X148930671Y-91787970D01*
X148907571Y-91796235D01*
X148883773Y-91802196D01*
X148859504Y-91805796D01*
X148835000Y-91807000D01*
X147910000Y-91807000D01*
X147885496Y-91805796D01*
X147861227Y-91802196D01*
X147837429Y-91796235D01*
X147814329Y-91787970D01*
X147792151Y-91777480D01*
X147771107Y-91764867D01*
X147751402Y-91750253D01*
X147733223Y-91733777D01*
X147716747Y-91715598D01*
X147702133Y-91695893D01*
X147689520Y-91674849D01*
X147679030Y-91652671D01*
X147670765Y-91629571D01*
X147664804Y-91605773D01*
X147661204Y-91581504D01*
X147660000Y-91557000D01*
X147660000Y-90307000D01*
X147661204Y-90282496D01*
X147664804Y-90258227D01*
X147670765Y-90234429D01*
X147679030Y-90211329D01*
X147689520Y-90189151D01*
X147702133Y-90168107D01*
X147716747Y-90148402D01*
X147733223Y-90130223D01*
X147751402Y-90113747D01*
X147771107Y-90099133D01*
X147792151Y-90086520D01*
X147814329Y-90076030D01*
X147837429Y-90067765D01*
X147861227Y-90061804D01*
X147885496Y-90058204D01*
X147910000Y-90057000D01*
X148835000Y-90057000D01*
X148859504Y-90058204D01*
X148859504Y-90058204D01*
G37*
D11*
X148372500Y-90932000D03*
G04 #@! TD*
D10*
G04 #@! TO.C,R2*
G36*
X151834504Y-105298204D02*
X151858773Y-105301804D01*
X151882571Y-105307765D01*
X151905671Y-105316030D01*
X151927849Y-105326520D01*
X151948893Y-105339133D01*
X151968598Y-105353747D01*
X151986777Y-105370223D01*
X152003253Y-105388402D01*
X152017867Y-105408107D01*
X152030480Y-105429151D01*
X152040970Y-105451329D01*
X152049235Y-105474429D01*
X152055196Y-105498227D01*
X152058796Y-105522496D01*
X152060000Y-105547000D01*
X152060000Y-106797000D01*
X152058796Y-106821504D01*
X152055196Y-106845773D01*
X152049235Y-106869571D01*
X152040970Y-106892671D01*
X152030480Y-106914849D01*
X152017867Y-106935893D01*
X152003253Y-106955598D01*
X151986777Y-106973777D01*
X151968598Y-106990253D01*
X151948893Y-107004867D01*
X151927849Y-107017480D01*
X151905671Y-107027970D01*
X151882571Y-107036235D01*
X151858773Y-107042196D01*
X151834504Y-107045796D01*
X151810000Y-107047000D01*
X150885000Y-107047000D01*
X150860496Y-107045796D01*
X150836227Y-107042196D01*
X150812429Y-107036235D01*
X150789329Y-107027970D01*
X150767151Y-107017480D01*
X150746107Y-107004867D01*
X150726402Y-106990253D01*
X150708223Y-106973777D01*
X150691747Y-106955598D01*
X150677133Y-106935893D01*
X150664520Y-106914849D01*
X150654030Y-106892671D01*
X150645765Y-106869571D01*
X150639804Y-106845773D01*
X150636204Y-106821504D01*
X150635000Y-106797000D01*
X150635000Y-105547000D01*
X150636204Y-105522496D01*
X150639804Y-105498227D01*
X150645765Y-105474429D01*
X150654030Y-105451329D01*
X150664520Y-105429151D01*
X150677133Y-105408107D01*
X150691747Y-105388402D01*
X150708223Y-105370223D01*
X150726402Y-105353747D01*
X150746107Y-105339133D01*
X150767151Y-105326520D01*
X150789329Y-105316030D01*
X150812429Y-105307765D01*
X150836227Y-105301804D01*
X150860496Y-105298204D01*
X150885000Y-105297000D01*
X151810000Y-105297000D01*
X151834504Y-105298204D01*
X151834504Y-105298204D01*
G37*
D11*
X151347500Y-106172000D03*
D10*
G36*
X148859504Y-105298204D02*
X148883773Y-105301804D01*
X148907571Y-105307765D01*
X148930671Y-105316030D01*
X148952849Y-105326520D01*
X148973893Y-105339133D01*
X148993598Y-105353747D01*
X149011777Y-105370223D01*
X149028253Y-105388402D01*
X149042867Y-105408107D01*
X149055480Y-105429151D01*
X149065970Y-105451329D01*
X149074235Y-105474429D01*
X149080196Y-105498227D01*
X149083796Y-105522496D01*
X149085000Y-105547000D01*
X149085000Y-106797000D01*
X149083796Y-106821504D01*
X149080196Y-106845773D01*
X149074235Y-106869571D01*
X149065970Y-106892671D01*
X149055480Y-106914849D01*
X149042867Y-106935893D01*
X149028253Y-106955598D01*
X149011777Y-106973777D01*
X148993598Y-106990253D01*
X148973893Y-107004867D01*
X148952849Y-107017480D01*
X148930671Y-107027970D01*
X148907571Y-107036235D01*
X148883773Y-107042196D01*
X148859504Y-107045796D01*
X148835000Y-107047000D01*
X147910000Y-107047000D01*
X147885496Y-107045796D01*
X147861227Y-107042196D01*
X147837429Y-107036235D01*
X147814329Y-107027970D01*
X147792151Y-107017480D01*
X147771107Y-107004867D01*
X147751402Y-106990253D01*
X147733223Y-106973777D01*
X147716747Y-106955598D01*
X147702133Y-106935893D01*
X147689520Y-106914849D01*
X147679030Y-106892671D01*
X147670765Y-106869571D01*
X147664804Y-106845773D01*
X147661204Y-106821504D01*
X147660000Y-106797000D01*
X147660000Y-105547000D01*
X147661204Y-105522496D01*
X147664804Y-105498227D01*
X147670765Y-105474429D01*
X147679030Y-105451329D01*
X147689520Y-105429151D01*
X147702133Y-105408107D01*
X147716747Y-105388402D01*
X147733223Y-105370223D01*
X147751402Y-105353747D01*
X147771107Y-105339133D01*
X147792151Y-105326520D01*
X147814329Y-105316030D01*
X147837429Y-105307765D01*
X147861227Y-105301804D01*
X147885496Y-105298204D01*
X147910000Y-105297000D01*
X148835000Y-105297000D01*
X148859504Y-105298204D01*
X148859504Y-105298204D01*
G37*
D11*
X148372500Y-106172000D03*
G04 #@! TD*
D13*
G04 #@! TO.C,U1*
X159084000Y-90170000D03*
X159084000Y-89220000D03*
X159084000Y-91120000D03*
X156384000Y-91120000D03*
X156384000Y-90170000D03*
X156384000Y-89220000D03*
G04 #@! TD*
G04 #@! TO.C,U2*
X159084000Y-105156000D03*
X159084000Y-104206000D03*
X159084000Y-106106000D03*
X156384000Y-106106000D03*
X156384000Y-105156000D03*
X156384000Y-104206000D03*
G04 #@! TD*
M02*
