G04 #@! TF.GenerationSoftware,KiCad,Pcbnew,5.0.2+dfsg1-1*
G04 #@! TF.CreationDate,2019-12-28T21:20:38-05:00*
G04 #@! TF.ProjectId,2001captchpad,32303031-6361-4707-9463-687061642e6b,rev?*
G04 #@! TF.SameCoordinates,Original*
G04 #@! TF.FileFunction,Legend,Top*
G04 #@! TF.FilePolarity,Positive*
%FSLAX46Y46*%
G04 Gerber Fmt 4.6, Leading zero omitted, Abs format (unit mm)*
G04 Created by KiCad (PCBNEW 5.0.2+dfsg1-1) date Sat 28 Dec 2019 09:20:38 PM EST*
%MOMM*%
%LPD*%
G01*
G04 APERTURE LIST*
%ADD10C,0.150000*%
%ADD11C,0.120000*%
G04 APERTURE END LIST*
D10*
X143845595Y-113927380D02*
X143845595Y-112927380D01*
X144178928Y-113641666D01*
X144512261Y-112927380D01*
X144512261Y-113927380D01*
X145178928Y-112927380D02*
X145274166Y-112927380D01*
X145369404Y-112975000D01*
X145417023Y-113022619D01*
X145464642Y-113117857D01*
X145512261Y-113308333D01*
X145512261Y-113546428D01*
X145464642Y-113736904D01*
X145417023Y-113832142D01*
X145369404Y-113879761D01*
X145274166Y-113927380D01*
X145178928Y-113927380D01*
X145083690Y-113879761D01*
X145036071Y-113832142D01*
X144988452Y-113736904D01*
X144940833Y-113546428D01*
X144940833Y-113308333D01*
X144988452Y-113117857D01*
X145036071Y-113022619D01*
X145083690Y-112975000D01*
X145178928Y-112927380D01*
X145940833Y-112927380D02*
X145940833Y-113736904D01*
X145988452Y-113832142D01*
X146036071Y-113879761D01*
X146131309Y-113927380D01*
X146321785Y-113927380D01*
X146417023Y-113879761D01*
X146464642Y-113832142D01*
X146512261Y-113736904D01*
X146512261Y-112927380D01*
X146988452Y-113927380D02*
X146988452Y-112927380D01*
X147559880Y-113927380D02*
X147131309Y-113355952D01*
X147559880Y-112927380D02*
X146988452Y-113498809D01*
X147988452Y-113927380D02*
X147988452Y-112927380D01*
X148226547Y-112927380D01*
X148369404Y-112975000D01*
X148464642Y-113070238D01*
X148512261Y-113165476D01*
X148559880Y-113355952D01*
X148559880Y-113498809D01*
X148512261Y-113689285D01*
X148464642Y-113784523D01*
X148369404Y-113879761D01*
X148226547Y-113927380D01*
X147988452Y-113927380D01*
X150321785Y-113832142D02*
X150274166Y-113879761D01*
X150131309Y-113927380D01*
X150036071Y-113927380D01*
X149893214Y-113879761D01*
X149797976Y-113784523D01*
X149750357Y-113689285D01*
X149702738Y-113498809D01*
X149702738Y-113355952D01*
X149750357Y-113165476D01*
X149797976Y-113070238D01*
X149893214Y-112975000D01*
X150036071Y-112927380D01*
X150131309Y-112927380D01*
X150274166Y-112975000D01*
X150321785Y-113022619D01*
X151178928Y-113927380D02*
X151178928Y-113403571D01*
X151131309Y-113308333D01*
X151036071Y-113260714D01*
X150845595Y-113260714D01*
X150750357Y-113308333D01*
X151178928Y-113879761D02*
X151083690Y-113927380D01*
X150845595Y-113927380D01*
X150750357Y-113879761D01*
X150702738Y-113784523D01*
X150702738Y-113689285D01*
X150750357Y-113594047D01*
X150845595Y-113546428D01*
X151083690Y-113546428D01*
X151178928Y-113498809D01*
X151655119Y-113260714D02*
X151655119Y-114260714D01*
X151655119Y-113308333D02*
X151750357Y-113260714D01*
X151940833Y-113260714D01*
X152036071Y-113308333D01*
X152083690Y-113355952D01*
X152131309Y-113451190D01*
X152131309Y-113736904D01*
X152083690Y-113832142D01*
X152036071Y-113879761D01*
X151940833Y-113927380D01*
X151750357Y-113927380D01*
X151655119Y-113879761D01*
X152988452Y-113927380D02*
X152988452Y-113403571D01*
X152940833Y-113308333D01*
X152845595Y-113260714D01*
X152655119Y-113260714D01*
X152559880Y-113308333D01*
X152988452Y-113879761D02*
X152893214Y-113927380D01*
X152655119Y-113927380D01*
X152559880Y-113879761D01*
X152512261Y-113784523D01*
X152512261Y-113689285D01*
X152559880Y-113594047D01*
X152655119Y-113546428D01*
X152893214Y-113546428D01*
X152988452Y-113498809D01*
X153893214Y-113879761D02*
X153797976Y-113927380D01*
X153607500Y-113927380D01*
X153512261Y-113879761D01*
X153464642Y-113832142D01*
X153417023Y-113736904D01*
X153417023Y-113451190D01*
X153464642Y-113355952D01*
X153512261Y-113308333D01*
X153607500Y-113260714D01*
X153797976Y-113260714D01*
X153893214Y-113308333D01*
X154178928Y-113260714D02*
X154559880Y-113260714D01*
X154321785Y-112927380D02*
X154321785Y-113784523D01*
X154369404Y-113879761D01*
X154464642Y-113927380D01*
X154559880Y-113927380D01*
X154893214Y-113927380D02*
X154893214Y-113260714D01*
X154893214Y-112927380D02*
X154845595Y-112975000D01*
X154893214Y-113022619D01*
X154940833Y-112975000D01*
X154893214Y-112927380D01*
X154893214Y-113022619D01*
X155274166Y-113260714D02*
X155512261Y-113927380D01*
X155750357Y-113260714D01*
X156512261Y-113879761D02*
X156417023Y-113927380D01*
X156226547Y-113927380D01*
X156131309Y-113879761D01*
X156083690Y-113784523D01*
X156083690Y-113403571D01*
X156131309Y-113308333D01*
X156226547Y-113260714D01*
X156417023Y-113260714D01*
X156512261Y-113308333D01*
X156559880Y-113403571D01*
X156559880Y-113498809D01*
X156083690Y-113594047D01*
X157607500Y-112927380D02*
X158178928Y-112927380D01*
X157893214Y-113927380D02*
X157893214Y-112927380D01*
X158655119Y-113927380D02*
X158559880Y-113879761D01*
X158512261Y-113832142D01*
X158464642Y-113736904D01*
X158464642Y-113451190D01*
X158512261Y-113355952D01*
X158559880Y-113308333D01*
X158655119Y-113260714D01*
X158797976Y-113260714D01*
X158893214Y-113308333D01*
X158940833Y-113355952D01*
X158988452Y-113451190D01*
X158988452Y-113736904D01*
X158940833Y-113832142D01*
X158893214Y-113879761D01*
X158797976Y-113927380D01*
X158655119Y-113927380D01*
X159845595Y-113260714D02*
X159845595Y-113927380D01*
X159417023Y-113260714D02*
X159417023Y-113784523D01*
X159464642Y-113879761D01*
X159559880Y-113927380D01*
X159702738Y-113927380D01*
X159797976Y-113879761D01*
X159845595Y-113832142D01*
X160750357Y-113879761D02*
X160655119Y-113927380D01*
X160464642Y-113927380D01*
X160369404Y-113879761D01*
X160321785Y-113832142D01*
X160274166Y-113736904D01*
X160274166Y-113451190D01*
X160321785Y-113355952D01*
X160369404Y-113308333D01*
X160464642Y-113260714D01*
X160655119Y-113260714D01*
X160750357Y-113308333D01*
X161178928Y-113927380D02*
X161178928Y-112927380D01*
X161607500Y-113927380D02*
X161607500Y-113403571D01*
X161559880Y-113308333D01*
X161464642Y-113260714D01*
X161321785Y-113260714D01*
X161226547Y-113308333D01*
X161178928Y-113355952D01*
X162845595Y-113927380D02*
X162845595Y-112927380D01*
X163417023Y-113927380D02*
X162988452Y-113355952D01*
X163417023Y-112927380D02*
X162845595Y-113498809D01*
X164226547Y-113879761D02*
X164131309Y-113927380D01*
X163940833Y-113927380D01*
X163845595Y-113879761D01*
X163797976Y-113784523D01*
X163797976Y-113403571D01*
X163845595Y-113308333D01*
X163940833Y-113260714D01*
X164131309Y-113260714D01*
X164226547Y-113308333D01*
X164274166Y-113403571D01*
X164274166Y-113498809D01*
X163797976Y-113594047D01*
X164607500Y-113260714D02*
X164845595Y-113927380D01*
X165083690Y-113260714D02*
X164845595Y-113927380D01*
X164750357Y-114165476D01*
X164702738Y-114213095D01*
X164607500Y-114260714D01*
X143702738Y-114577380D02*
X144274166Y-114577380D01*
X143988452Y-115577380D02*
X143988452Y-114577380D01*
X144607500Y-115577380D02*
X144607500Y-114577380D01*
X145036071Y-115577380D02*
X145036071Y-115053571D01*
X144988452Y-114958333D01*
X144893214Y-114910714D01*
X144750357Y-114910714D01*
X144655119Y-114958333D01*
X144607500Y-115005952D01*
X145512261Y-115577380D02*
X145512261Y-114910714D01*
X145512261Y-114577380D02*
X145464642Y-114625000D01*
X145512261Y-114672619D01*
X145559880Y-114625000D01*
X145512261Y-114577380D01*
X145512261Y-114672619D01*
X145940833Y-115529761D02*
X146036071Y-115577380D01*
X146226547Y-115577380D01*
X146321785Y-115529761D01*
X146369404Y-115434523D01*
X146369404Y-115386904D01*
X146321785Y-115291666D01*
X146226547Y-115244047D01*
X146083690Y-115244047D01*
X145988452Y-115196428D01*
X145940833Y-115101190D01*
X145940833Y-115053571D01*
X145988452Y-114958333D01*
X146083690Y-114910714D01*
X146226547Y-114910714D01*
X146321785Y-114958333D01*
X147464642Y-114910714D02*
X147702738Y-115577380D01*
X147940833Y-114910714D01*
X148702738Y-115529761D02*
X148607500Y-115577380D01*
X148417023Y-115577380D01*
X148321785Y-115529761D01*
X148274166Y-115434523D01*
X148274166Y-115053571D01*
X148321785Y-114958333D01*
X148417023Y-114910714D01*
X148607500Y-114910714D01*
X148702738Y-114958333D01*
X148750357Y-115053571D01*
X148750357Y-115148809D01*
X148274166Y-115244047D01*
X149178928Y-115577380D02*
X149178928Y-114910714D01*
X149178928Y-115101190D02*
X149226547Y-115005952D01*
X149274166Y-114958333D01*
X149369404Y-114910714D01*
X149464642Y-114910714D01*
X149750357Y-115529761D02*
X149845595Y-115577380D01*
X150036071Y-115577380D01*
X150131309Y-115529761D01*
X150178928Y-115434523D01*
X150178928Y-115386904D01*
X150131309Y-115291666D01*
X150036071Y-115244047D01*
X149893214Y-115244047D01*
X149797976Y-115196428D01*
X149750357Y-115101190D01*
X149750357Y-115053571D01*
X149797976Y-114958333D01*
X149893214Y-114910714D01*
X150036071Y-114910714D01*
X150131309Y-114958333D01*
X150607500Y-115577380D02*
X150607500Y-114910714D01*
X150607500Y-114577380D02*
X150559880Y-114625000D01*
X150607500Y-114672619D01*
X150655119Y-114625000D01*
X150607500Y-114577380D01*
X150607500Y-114672619D01*
X151226547Y-115577380D02*
X151131309Y-115529761D01*
X151083690Y-115482142D01*
X151036071Y-115386904D01*
X151036071Y-115101190D01*
X151083690Y-115005952D01*
X151131309Y-114958333D01*
X151226547Y-114910714D01*
X151369404Y-114910714D01*
X151464642Y-114958333D01*
X151512261Y-115005952D01*
X151559880Y-115101190D01*
X151559880Y-115386904D01*
X151512261Y-115482142D01*
X151464642Y-115529761D01*
X151369404Y-115577380D01*
X151226547Y-115577380D01*
X151988452Y-114910714D02*
X151988452Y-115577380D01*
X151988452Y-115005952D02*
X152036071Y-114958333D01*
X152131309Y-114910714D01*
X152274166Y-114910714D01*
X152369404Y-114958333D01*
X152417023Y-115053571D01*
X152417023Y-115577380D01*
X153655119Y-115577380D02*
X153655119Y-114577380D01*
X153655119Y-114958333D02*
X153750357Y-114910714D01*
X153940833Y-114910714D01*
X154036071Y-114958333D01*
X154083690Y-115005952D01*
X154131309Y-115101190D01*
X154131309Y-115386904D01*
X154083690Y-115482142D01*
X154036071Y-115529761D01*
X153940833Y-115577380D01*
X153750357Y-115577380D01*
X153655119Y-115529761D01*
X154464642Y-114910714D02*
X154702738Y-115577380D01*
X154940833Y-114910714D02*
X154702738Y-115577380D01*
X154607500Y-115815476D01*
X154559880Y-115863095D01*
X154464642Y-115910714D01*
X156083690Y-115577380D02*
X156083690Y-114577380D01*
X156655119Y-115577380D02*
X156226547Y-115005952D01*
X156655119Y-114577380D02*
X156083690Y-115148809D01*
X157083690Y-115577380D02*
X157083690Y-114577380D01*
X157417023Y-115291666D01*
X157750357Y-114577380D01*
X157750357Y-115577380D01*
X158655119Y-114910714D02*
X158655119Y-115577380D01*
X158417023Y-114529761D02*
X158178928Y-115244047D01*
X158797976Y-115244047D01*
X159178928Y-115577380D02*
X159178928Y-114577380D01*
X159750357Y-115577380D01*
X159750357Y-114577380D01*
X160559880Y-115053571D02*
X160226547Y-115053571D01*
X160226547Y-115577380D02*
X160226547Y-114577380D01*
X160702738Y-114577380D01*
X161750357Y-115672619D02*
X161655119Y-115625000D01*
X161559880Y-115529761D01*
X161417023Y-115386904D01*
X161321785Y-115339285D01*
X161226547Y-115339285D01*
X161274166Y-115577380D02*
X161178928Y-115529761D01*
X161083690Y-115434523D01*
X161036071Y-115244047D01*
X161036071Y-114910714D01*
X161083690Y-114720238D01*
X161178928Y-114625000D01*
X161274166Y-114577380D01*
X161464642Y-114577380D01*
X161559880Y-114625000D01*
X161655119Y-114720238D01*
X161702738Y-114910714D01*
X161702738Y-115244047D01*
X161655119Y-115434523D01*
X161559880Y-115529761D01*
X161464642Y-115577380D01*
X161274166Y-115577380D01*
X163321785Y-115577380D02*
X163321785Y-115053571D01*
X163274166Y-114958333D01*
X163178928Y-114910714D01*
X162988452Y-114910714D01*
X162893214Y-114958333D01*
X163321785Y-115529761D02*
X163226547Y-115577380D01*
X162988452Y-115577380D01*
X162893214Y-115529761D01*
X162845595Y-115434523D01*
X162845595Y-115339285D01*
X162893214Y-115244047D01*
X162988452Y-115196428D01*
X163226547Y-115196428D01*
X163321785Y-115148809D01*
X163797976Y-114910714D02*
X163797976Y-115577380D01*
X163797976Y-115005952D02*
X163845595Y-114958333D01*
X163940833Y-114910714D01*
X164083690Y-114910714D01*
X164178928Y-114958333D01*
X164226547Y-115053571D01*
X164226547Y-115577380D01*
X165131309Y-115577380D02*
X165131309Y-114577380D01*
X165131309Y-115529761D02*
X165036071Y-115577380D01*
X164845595Y-115577380D01*
X164750357Y-115529761D01*
X164702738Y-115482142D01*
X164655119Y-115386904D01*
X164655119Y-115101190D01*
X164702738Y-115005952D01*
X164750357Y-114958333D01*
X164845595Y-114910714D01*
X165036071Y-114910714D01*
X165131309Y-114958333D01*
X166369404Y-115577380D02*
X166369404Y-114577380D01*
X166940833Y-115577380D02*
X166512261Y-115005952D01*
X166940833Y-114577380D02*
X166369404Y-115148809D01*
X167369404Y-115577380D02*
X167369404Y-114910714D01*
X167369404Y-114577380D02*
X167321785Y-114625000D01*
X167369404Y-114672619D01*
X167417023Y-114625000D01*
X167369404Y-114577380D01*
X167369404Y-114672619D01*
X168417023Y-115482142D02*
X168369404Y-115529761D01*
X168226547Y-115577380D01*
X168131309Y-115577380D01*
X167988452Y-115529761D01*
X167893214Y-115434523D01*
X167845595Y-115339285D01*
X167797976Y-115148809D01*
X167797976Y-115005952D01*
X167845595Y-114815476D01*
X167893214Y-114720238D01*
X167988452Y-114625000D01*
X168131309Y-114577380D01*
X168226547Y-114577380D01*
X168369404Y-114625000D01*
X168417023Y-114672619D01*
X169274166Y-115577380D02*
X169274166Y-115053571D01*
X169226547Y-114958333D01*
X169131309Y-114910714D01*
X168940833Y-114910714D01*
X168845595Y-114958333D01*
X169274166Y-115529761D02*
X169178928Y-115577380D01*
X168940833Y-115577380D01*
X168845595Y-115529761D01*
X168797976Y-115434523D01*
X168797976Y-115339285D01*
X168845595Y-115244047D01*
X168940833Y-115196428D01*
X169178928Y-115196428D01*
X169274166Y-115148809D01*
X170178928Y-115577380D02*
X170178928Y-114577380D01*
X170178928Y-115529761D02*
X170083690Y-115577380D01*
X169893214Y-115577380D01*
X169797976Y-115529761D01*
X169750357Y-115482142D01*
X169702738Y-115386904D01*
X169702738Y-115101190D01*
X169750357Y-115005952D01*
X169797976Y-114958333D01*
X169893214Y-114910714D01*
X170083690Y-114910714D01*
X170178928Y-114958333D01*
X171893214Y-114577380D02*
X171417023Y-114577380D01*
X171369404Y-115053571D01*
X171417023Y-115005952D01*
X171512261Y-114958333D01*
X171750357Y-114958333D01*
X171845595Y-115005952D01*
X171893214Y-115053571D01*
X171940833Y-115148809D01*
X171940833Y-115386904D01*
X171893214Y-115482142D01*
X171845595Y-115529761D01*
X171750357Y-115577380D01*
X171512261Y-115577380D01*
X171417023Y-115529761D01*
X171369404Y-115482142D01*
X172369404Y-115482142D02*
X172417023Y-115529761D01*
X172369404Y-115577380D01*
X172321785Y-115529761D01*
X172369404Y-115482142D01*
X172369404Y-115577380D01*
X173036071Y-114577380D02*
X173131309Y-114577380D01*
X173226547Y-114625000D01*
X173274166Y-114672619D01*
X173321785Y-114767857D01*
X173369404Y-114958333D01*
X173369404Y-115196428D01*
X173321785Y-115386904D01*
X173274166Y-115482142D01*
X173226547Y-115529761D01*
X173131309Y-115577380D01*
X173036071Y-115577380D01*
X172940833Y-115529761D01*
X172893214Y-115482142D01*
X172845595Y-115386904D01*
X172797976Y-115196428D01*
X172797976Y-114958333D01*
X172845595Y-114767857D01*
X172893214Y-114672619D01*
X172940833Y-114625000D01*
X173036071Y-114577380D01*
X173797976Y-115482142D02*
X173845595Y-115529761D01*
X173797976Y-115577380D01*
X173750357Y-115529761D01*
X173797976Y-115482142D01*
X173797976Y-115577380D01*
X174226547Y-114672619D02*
X174274166Y-114625000D01*
X174369404Y-114577380D01*
X174607500Y-114577380D01*
X174702738Y-114625000D01*
X174750357Y-114672619D01*
X174797976Y-114767857D01*
X174797976Y-114863095D01*
X174750357Y-115005952D01*
X174178928Y-115577380D01*
X174797976Y-115577380D01*
D11*
G04 #@! TO.C,C1*
X164232000Y-91534064D02*
X164232000Y-90329936D01*
X162412000Y-91534064D02*
X162412000Y-90329936D01*
G04 #@! TO.C,C2*
X157131936Y-95652000D02*
X158336064Y-95652000D01*
X157131936Y-93832000D02*
X158336064Y-93832000D01*
G04 #@! TO.C,C3*
X164232000Y-107028064D02*
X164232000Y-105823936D01*
X162412000Y-107028064D02*
X162412000Y-105823936D01*
G04 #@! TO.C,C4*
X157131936Y-111146000D02*
X158336064Y-111146000D01*
X157131936Y-109326000D02*
X158336064Y-109326000D01*
G04 #@! TO.C,Q1*
X170432000Y-89718000D02*
X168972000Y-89718000D01*
X170432000Y-86558000D02*
X168272000Y-86558000D01*
X170432000Y-86558000D02*
X170432000Y-87488000D01*
X170432000Y-89718000D02*
X170432000Y-88788000D01*
G04 #@! TO.C,Q2*
X170432000Y-105212000D02*
X168972000Y-105212000D01*
X170432000Y-102052000D02*
X168272000Y-102052000D01*
X170432000Y-102052000D02*
X170432000Y-102982000D01*
X170432000Y-105212000D02*
X170432000Y-104282000D01*
G04 #@! TO.C,R1*
X149257936Y-91842000D02*
X150462064Y-91842000D01*
X149257936Y-90022000D02*
X150462064Y-90022000D01*
G04 #@! TO.C,R2*
X149257936Y-107082000D02*
X150462064Y-107082000D01*
X149257936Y-105262000D02*
X150462064Y-105262000D01*
G04 #@! TO.C,U1*
X158634000Y-88560000D02*
X155684000Y-88560000D01*
X156834000Y-91780000D02*
X158634000Y-91780000D01*
G04 #@! TO.C,U2*
X158634000Y-103546000D02*
X155684000Y-103546000D01*
X156834000Y-106766000D02*
X158634000Y-106766000D01*
G04 #@! TO.C,C1*
D10*
X161859142Y-91098666D02*
X161906761Y-91146285D01*
X161954380Y-91289142D01*
X161954380Y-91384380D01*
X161906761Y-91527238D01*
X161811523Y-91622476D01*
X161716285Y-91670095D01*
X161525809Y-91717714D01*
X161382952Y-91717714D01*
X161192476Y-91670095D01*
X161097238Y-91622476D01*
X161002000Y-91527238D01*
X160954380Y-91384380D01*
X160954380Y-91289142D01*
X161002000Y-91146285D01*
X161049619Y-91098666D01*
X161954380Y-90146285D02*
X161954380Y-90717714D01*
X161954380Y-90432000D02*
X160954380Y-90432000D01*
X161097238Y-90527238D01*
X161192476Y-90622476D01*
X161240095Y-90717714D01*
G04 #@! TO.C,C2*
X157567333Y-93279142D02*
X157519714Y-93326761D01*
X157376857Y-93374380D01*
X157281619Y-93374380D01*
X157138761Y-93326761D01*
X157043523Y-93231523D01*
X156995904Y-93136285D01*
X156948285Y-92945809D01*
X156948285Y-92802952D01*
X156995904Y-92612476D01*
X157043523Y-92517238D01*
X157138761Y-92422000D01*
X157281619Y-92374380D01*
X157376857Y-92374380D01*
X157519714Y-92422000D01*
X157567333Y-92469619D01*
X157948285Y-92469619D02*
X157995904Y-92422000D01*
X158091142Y-92374380D01*
X158329238Y-92374380D01*
X158424476Y-92422000D01*
X158472095Y-92469619D01*
X158519714Y-92564857D01*
X158519714Y-92660095D01*
X158472095Y-92802952D01*
X157900666Y-93374380D01*
X158519714Y-93374380D01*
G04 #@! TO.C,C3*
X161859142Y-106592666D02*
X161906761Y-106640285D01*
X161954380Y-106783142D01*
X161954380Y-106878380D01*
X161906761Y-107021238D01*
X161811523Y-107116476D01*
X161716285Y-107164095D01*
X161525809Y-107211714D01*
X161382952Y-107211714D01*
X161192476Y-107164095D01*
X161097238Y-107116476D01*
X161002000Y-107021238D01*
X160954380Y-106878380D01*
X160954380Y-106783142D01*
X161002000Y-106640285D01*
X161049619Y-106592666D01*
X160954380Y-106259333D02*
X160954380Y-105640285D01*
X161335333Y-105973619D01*
X161335333Y-105830761D01*
X161382952Y-105735523D01*
X161430571Y-105687904D01*
X161525809Y-105640285D01*
X161763904Y-105640285D01*
X161859142Y-105687904D01*
X161906761Y-105735523D01*
X161954380Y-105830761D01*
X161954380Y-106116476D01*
X161906761Y-106211714D01*
X161859142Y-106259333D01*
G04 #@! TO.C,C4*
X157567333Y-108773142D02*
X157519714Y-108820761D01*
X157376857Y-108868380D01*
X157281619Y-108868380D01*
X157138761Y-108820761D01*
X157043523Y-108725523D01*
X156995904Y-108630285D01*
X156948285Y-108439809D01*
X156948285Y-108296952D01*
X156995904Y-108106476D01*
X157043523Y-108011238D01*
X157138761Y-107916000D01*
X157281619Y-107868380D01*
X157376857Y-107868380D01*
X157519714Y-107916000D01*
X157567333Y-107963619D01*
X158424476Y-108201714D02*
X158424476Y-108868380D01*
X158186380Y-107820761D02*
X157948285Y-108535047D01*
X158567333Y-108535047D01*
G04 #@! TO.C,J1*
X178228666Y-85050380D02*
X178228666Y-85764666D01*
X178181047Y-85907523D01*
X178085809Y-86002761D01*
X177942952Y-86050380D01*
X177847714Y-86050380D01*
X179228666Y-86050380D02*
X178657238Y-86050380D01*
X178942952Y-86050380D02*
X178942952Y-85050380D01*
X178847714Y-85193238D01*
X178752476Y-85288476D01*
X178657238Y-85336095D01*
G04 #@! TO.C,J2*
X178228666Y-92416380D02*
X178228666Y-93130666D01*
X178181047Y-93273523D01*
X178085809Y-93368761D01*
X177942952Y-93416380D01*
X177847714Y-93416380D01*
X178657238Y-92511619D02*
X178704857Y-92464000D01*
X178800095Y-92416380D01*
X179038190Y-92416380D01*
X179133428Y-92464000D01*
X179181047Y-92511619D01*
X179228666Y-92606857D01*
X179228666Y-92702095D01*
X179181047Y-92844952D01*
X178609619Y-93416380D01*
X179228666Y-93416380D01*
G04 #@! TO.C,J3*
X178228666Y-100544380D02*
X178228666Y-101258666D01*
X178181047Y-101401523D01*
X178085809Y-101496761D01*
X177942952Y-101544380D01*
X177847714Y-101544380D01*
X178609619Y-100544380D02*
X179228666Y-100544380D01*
X178895333Y-100925333D01*
X179038190Y-100925333D01*
X179133428Y-100972952D01*
X179181047Y-101020571D01*
X179228666Y-101115809D01*
X179228666Y-101353904D01*
X179181047Y-101449142D01*
X179133428Y-101496761D01*
X179038190Y-101544380D01*
X178752476Y-101544380D01*
X178657238Y-101496761D01*
X178609619Y-101449142D01*
G04 #@! TO.C,J4*
X142668666Y-87844380D02*
X142668666Y-88558666D01*
X142621047Y-88701523D01*
X142525809Y-88796761D01*
X142382952Y-88844380D01*
X142287714Y-88844380D01*
X143573428Y-88177714D02*
X143573428Y-88844380D01*
X143335333Y-87796761D02*
X143097238Y-88511047D01*
X143716285Y-88511047D01*
G04 #@! TO.C,J5*
X142414666Y-102830380D02*
X142414666Y-103544666D01*
X142367047Y-103687523D01*
X142271809Y-103782761D01*
X142128952Y-103830380D01*
X142033714Y-103830380D01*
X143367047Y-102830380D02*
X142890857Y-102830380D01*
X142843238Y-103306571D01*
X142890857Y-103258952D01*
X142986095Y-103211333D01*
X143224190Y-103211333D01*
X143319428Y-103258952D01*
X143367047Y-103306571D01*
X143414666Y-103401809D01*
X143414666Y-103639904D01*
X143367047Y-103735142D01*
X143319428Y-103782761D01*
X143224190Y-103830380D01*
X142986095Y-103830380D01*
X142890857Y-103782761D01*
X142843238Y-103735142D01*
G04 #@! TO.C,J6*
X167814666Y-108926380D02*
X167814666Y-109640666D01*
X167767047Y-109783523D01*
X167671809Y-109878761D01*
X167528952Y-109926380D01*
X167433714Y-109926380D01*
X168719428Y-108926380D02*
X168528952Y-108926380D01*
X168433714Y-108974000D01*
X168386095Y-109021619D01*
X168290857Y-109164476D01*
X168243238Y-109354952D01*
X168243238Y-109735904D01*
X168290857Y-109831142D01*
X168338476Y-109878761D01*
X168433714Y-109926380D01*
X168624190Y-109926380D01*
X168719428Y-109878761D01*
X168767047Y-109831142D01*
X168814666Y-109735904D01*
X168814666Y-109497809D01*
X168767047Y-109402571D01*
X168719428Y-109354952D01*
X168624190Y-109307333D01*
X168433714Y-109307333D01*
X168338476Y-109354952D01*
X168290857Y-109402571D01*
X168243238Y-109497809D01*
G04 #@! TO.C,J7*
X174672666Y-108926380D02*
X174672666Y-109640666D01*
X174625047Y-109783523D01*
X174529809Y-109878761D01*
X174386952Y-109926380D01*
X174291714Y-109926380D01*
X175053619Y-108926380D02*
X175720285Y-108926380D01*
X175291714Y-109926380D01*
G04 #@! TO.C,Q1*
X169576761Y-86185619D02*
X169481523Y-86138000D01*
X169386285Y-86042761D01*
X169243428Y-85899904D01*
X169148190Y-85852285D01*
X169052952Y-85852285D01*
X169100571Y-86090380D02*
X169005333Y-86042761D01*
X168910095Y-85947523D01*
X168862476Y-85757047D01*
X168862476Y-85423714D01*
X168910095Y-85233238D01*
X169005333Y-85138000D01*
X169100571Y-85090380D01*
X169291047Y-85090380D01*
X169386285Y-85138000D01*
X169481523Y-85233238D01*
X169529142Y-85423714D01*
X169529142Y-85757047D01*
X169481523Y-85947523D01*
X169386285Y-86042761D01*
X169291047Y-86090380D01*
X169100571Y-86090380D01*
X170481523Y-86090380D02*
X169910095Y-86090380D01*
X170195809Y-86090380D02*
X170195809Y-85090380D01*
X170100571Y-85233238D01*
X170005333Y-85328476D01*
X169910095Y-85376095D01*
G04 #@! TO.C,Q2*
X169576761Y-101679619D02*
X169481523Y-101632000D01*
X169386285Y-101536761D01*
X169243428Y-101393904D01*
X169148190Y-101346285D01*
X169052952Y-101346285D01*
X169100571Y-101584380D02*
X169005333Y-101536761D01*
X168910095Y-101441523D01*
X168862476Y-101251047D01*
X168862476Y-100917714D01*
X168910095Y-100727238D01*
X169005333Y-100632000D01*
X169100571Y-100584380D01*
X169291047Y-100584380D01*
X169386285Y-100632000D01*
X169481523Y-100727238D01*
X169529142Y-100917714D01*
X169529142Y-101251047D01*
X169481523Y-101441523D01*
X169386285Y-101536761D01*
X169291047Y-101584380D01*
X169100571Y-101584380D01*
X169910095Y-100679619D02*
X169957714Y-100632000D01*
X170052952Y-100584380D01*
X170291047Y-100584380D01*
X170386285Y-100632000D01*
X170433904Y-100679619D01*
X170481523Y-100774857D01*
X170481523Y-100870095D01*
X170433904Y-101012952D01*
X169862476Y-101584380D01*
X170481523Y-101584380D01*
G04 #@! TO.C,R1*
X149693333Y-89564380D02*
X149360000Y-89088190D01*
X149121904Y-89564380D02*
X149121904Y-88564380D01*
X149502857Y-88564380D01*
X149598095Y-88612000D01*
X149645714Y-88659619D01*
X149693333Y-88754857D01*
X149693333Y-88897714D01*
X149645714Y-88992952D01*
X149598095Y-89040571D01*
X149502857Y-89088190D01*
X149121904Y-89088190D01*
X150645714Y-89564380D02*
X150074285Y-89564380D01*
X150360000Y-89564380D02*
X150360000Y-88564380D01*
X150264761Y-88707238D01*
X150169523Y-88802476D01*
X150074285Y-88850095D01*
G04 #@! TO.C,R2*
X149693333Y-104804380D02*
X149360000Y-104328190D01*
X149121904Y-104804380D02*
X149121904Y-103804380D01*
X149502857Y-103804380D01*
X149598095Y-103852000D01*
X149645714Y-103899619D01*
X149693333Y-103994857D01*
X149693333Y-104137714D01*
X149645714Y-104232952D01*
X149598095Y-104280571D01*
X149502857Y-104328190D01*
X149121904Y-104328190D01*
X150074285Y-103899619D02*
X150121904Y-103852000D01*
X150217142Y-103804380D01*
X150455238Y-103804380D01*
X150550476Y-103852000D01*
X150598095Y-103899619D01*
X150645714Y-103994857D01*
X150645714Y-104090095D01*
X150598095Y-104232952D01*
X150026666Y-104804380D01*
X150645714Y-104804380D01*
G04 #@! TO.C,U1*
X153670095Y-87082380D02*
X153670095Y-87891904D01*
X153717714Y-87987142D01*
X153765333Y-88034761D01*
X153860571Y-88082380D01*
X154051047Y-88082380D01*
X154146285Y-88034761D01*
X154193904Y-87987142D01*
X154241523Y-87891904D01*
X154241523Y-87082380D01*
X155241523Y-88082380D02*
X154670095Y-88082380D01*
X154955809Y-88082380D02*
X154955809Y-87082380D01*
X154860571Y-87225238D01*
X154765333Y-87320476D01*
X154670095Y-87368095D01*
G04 #@! TO.C,U2*
X153924095Y-102068380D02*
X153924095Y-102877904D01*
X153971714Y-102973142D01*
X154019333Y-103020761D01*
X154114571Y-103068380D01*
X154305047Y-103068380D01*
X154400285Y-103020761D01*
X154447904Y-102973142D01*
X154495523Y-102877904D01*
X154495523Y-102068380D01*
X154924095Y-102163619D02*
X154971714Y-102116000D01*
X155066952Y-102068380D01*
X155305047Y-102068380D01*
X155400285Y-102116000D01*
X155447904Y-102163619D01*
X155495523Y-102258857D01*
X155495523Y-102354095D01*
X155447904Y-102496952D01*
X154876476Y-103068380D01*
X155495523Y-103068380D01*
G04 #@! TD*
M02*
