G04 #@! TF.GenerationSoftware,KiCad,Pcbnew,5.0.2+dfsg1-1*
G04 #@! TF.CreationDate,2019-12-28T11:31:48-05:00*
G04 #@! TF.ProjectId,2001captchpad,32303031-6361-4707-9463-687061642e6b,rev?*
G04 #@! TF.SameCoordinates,Original*
G04 #@! TF.FileFunction,Copper,L1,Top*
G04 #@! TF.FilePolarity,Positive*
%FSLAX46Y46*%
G04 Gerber Fmt 4.6, Leading zero omitted, Abs format (unit mm)*
G04 Created by KiCad (PCBNEW 5.0.2+dfsg1-1) date Sat 28 Dec 2019 11:31:48 AM EST*
%MOMM*%
%LPD*%
G01*
G04 APERTURE LIST*
G04 #@! TA.AperFunction,Conductor*
%ADD10C,0.100000*%
G04 #@! TD*
G04 #@! TA.AperFunction,SMDPad,CuDef*
%ADD11C,1.425000*%
G04 #@! TD*
G04 #@! TA.AperFunction,ComponentPad*
%ADD12C,2.499360*%
G04 #@! TD*
G04 #@! TA.AperFunction,SMDPad,CuDef*
%ADD13R,0.900000X0.800000*%
G04 #@! TD*
G04 #@! TA.AperFunction,SMDPad,CuDef*
%ADD14R,1.560000X0.650000*%
G04 #@! TD*
G04 #@! TA.AperFunction,ViaPad*
%ADD15C,0.800000*%
G04 #@! TD*
G04 #@! TA.AperFunction,Conductor*
%ADD16C,0.450000*%
G04 #@! TD*
G04 #@! TA.AperFunction,Conductor*
%ADD17C,0.250000*%
G04 #@! TD*
G04 #@! TA.AperFunction,Conductor*
%ADD18C,0.254000*%
G04 #@! TD*
G04 APERTURE END LIST*
D10*
G04 #@! TO.N,+3V3*
G04 #@! TO.C,C1*
G36*
X163971504Y-88733204D02*
X163995773Y-88736804D01*
X164019571Y-88742765D01*
X164042671Y-88751030D01*
X164064849Y-88761520D01*
X164085893Y-88774133D01*
X164105598Y-88788747D01*
X164123777Y-88805223D01*
X164140253Y-88823402D01*
X164154867Y-88843107D01*
X164167480Y-88864151D01*
X164177970Y-88886329D01*
X164186235Y-88909429D01*
X164192196Y-88933227D01*
X164195796Y-88957496D01*
X164197000Y-88982000D01*
X164197000Y-89907000D01*
X164195796Y-89931504D01*
X164192196Y-89955773D01*
X164186235Y-89979571D01*
X164177970Y-90002671D01*
X164167480Y-90024849D01*
X164154867Y-90045893D01*
X164140253Y-90065598D01*
X164123777Y-90083777D01*
X164105598Y-90100253D01*
X164085893Y-90114867D01*
X164064849Y-90127480D01*
X164042671Y-90137970D01*
X164019571Y-90146235D01*
X163995773Y-90152196D01*
X163971504Y-90155796D01*
X163947000Y-90157000D01*
X162697000Y-90157000D01*
X162672496Y-90155796D01*
X162648227Y-90152196D01*
X162624429Y-90146235D01*
X162601329Y-90137970D01*
X162579151Y-90127480D01*
X162558107Y-90114867D01*
X162538402Y-90100253D01*
X162520223Y-90083777D01*
X162503747Y-90065598D01*
X162489133Y-90045893D01*
X162476520Y-90024849D01*
X162466030Y-90002671D01*
X162457765Y-89979571D01*
X162451804Y-89955773D01*
X162448204Y-89931504D01*
X162447000Y-89907000D01*
X162447000Y-88982000D01*
X162448204Y-88957496D01*
X162451804Y-88933227D01*
X162457765Y-88909429D01*
X162466030Y-88886329D01*
X162476520Y-88864151D01*
X162489133Y-88843107D01*
X162503747Y-88823402D01*
X162520223Y-88805223D01*
X162538402Y-88788747D01*
X162558107Y-88774133D01*
X162579151Y-88761520D01*
X162601329Y-88751030D01*
X162624429Y-88742765D01*
X162648227Y-88736804D01*
X162672496Y-88733204D01*
X162697000Y-88732000D01*
X163947000Y-88732000D01*
X163971504Y-88733204D01*
X163971504Y-88733204D01*
G37*
D11*
G04 #@! TD*
G04 #@! TO.P,C1,2*
G04 #@! TO.N,+3V3*
X163322000Y-89444500D03*
D10*
G04 #@! TO.N,GND*
G04 #@! TO.C,C1*
G36*
X163971504Y-91708204D02*
X163995773Y-91711804D01*
X164019571Y-91717765D01*
X164042671Y-91726030D01*
X164064849Y-91736520D01*
X164085893Y-91749133D01*
X164105598Y-91763747D01*
X164123777Y-91780223D01*
X164140253Y-91798402D01*
X164154867Y-91818107D01*
X164167480Y-91839151D01*
X164177970Y-91861329D01*
X164186235Y-91884429D01*
X164192196Y-91908227D01*
X164195796Y-91932496D01*
X164197000Y-91957000D01*
X164197000Y-92882000D01*
X164195796Y-92906504D01*
X164192196Y-92930773D01*
X164186235Y-92954571D01*
X164177970Y-92977671D01*
X164167480Y-92999849D01*
X164154867Y-93020893D01*
X164140253Y-93040598D01*
X164123777Y-93058777D01*
X164105598Y-93075253D01*
X164085893Y-93089867D01*
X164064849Y-93102480D01*
X164042671Y-93112970D01*
X164019571Y-93121235D01*
X163995773Y-93127196D01*
X163971504Y-93130796D01*
X163947000Y-93132000D01*
X162697000Y-93132000D01*
X162672496Y-93130796D01*
X162648227Y-93127196D01*
X162624429Y-93121235D01*
X162601329Y-93112970D01*
X162579151Y-93102480D01*
X162558107Y-93089867D01*
X162538402Y-93075253D01*
X162520223Y-93058777D01*
X162503747Y-93040598D01*
X162489133Y-93020893D01*
X162476520Y-92999849D01*
X162466030Y-92977671D01*
X162457765Y-92954571D01*
X162451804Y-92930773D01*
X162448204Y-92906504D01*
X162447000Y-92882000D01*
X162447000Y-91957000D01*
X162448204Y-91932496D01*
X162451804Y-91908227D01*
X162457765Y-91884429D01*
X162466030Y-91861329D01*
X162476520Y-91839151D01*
X162489133Y-91818107D01*
X162503747Y-91798402D01*
X162520223Y-91780223D01*
X162538402Y-91763747D01*
X162558107Y-91749133D01*
X162579151Y-91736520D01*
X162601329Y-91726030D01*
X162624429Y-91717765D01*
X162648227Y-91711804D01*
X162672496Y-91708204D01*
X162697000Y-91707000D01*
X163947000Y-91707000D01*
X163971504Y-91708204D01*
X163971504Y-91708204D01*
G37*
D11*
G04 #@! TD*
G04 #@! TO.P,C1,1*
G04 #@! TO.N,GND*
X163322000Y-92419500D03*
D10*
G04 #@! TO.N,Net-(C2-Pad2)*
G04 #@! TO.C,C2*
G36*
X159708504Y-93868204D02*
X159732773Y-93871804D01*
X159756571Y-93877765D01*
X159779671Y-93886030D01*
X159801849Y-93896520D01*
X159822893Y-93909133D01*
X159842598Y-93923747D01*
X159860777Y-93940223D01*
X159877253Y-93958402D01*
X159891867Y-93978107D01*
X159904480Y-93999151D01*
X159914970Y-94021329D01*
X159923235Y-94044429D01*
X159929196Y-94068227D01*
X159932796Y-94092496D01*
X159934000Y-94117000D01*
X159934000Y-95367000D01*
X159932796Y-95391504D01*
X159929196Y-95415773D01*
X159923235Y-95439571D01*
X159914970Y-95462671D01*
X159904480Y-95484849D01*
X159891867Y-95505893D01*
X159877253Y-95525598D01*
X159860777Y-95543777D01*
X159842598Y-95560253D01*
X159822893Y-95574867D01*
X159801849Y-95587480D01*
X159779671Y-95597970D01*
X159756571Y-95606235D01*
X159732773Y-95612196D01*
X159708504Y-95615796D01*
X159684000Y-95617000D01*
X158759000Y-95617000D01*
X158734496Y-95615796D01*
X158710227Y-95612196D01*
X158686429Y-95606235D01*
X158663329Y-95597970D01*
X158641151Y-95587480D01*
X158620107Y-95574867D01*
X158600402Y-95560253D01*
X158582223Y-95543777D01*
X158565747Y-95525598D01*
X158551133Y-95505893D01*
X158538520Y-95484849D01*
X158528030Y-95462671D01*
X158519765Y-95439571D01*
X158513804Y-95415773D01*
X158510204Y-95391504D01*
X158509000Y-95367000D01*
X158509000Y-94117000D01*
X158510204Y-94092496D01*
X158513804Y-94068227D01*
X158519765Y-94044429D01*
X158528030Y-94021329D01*
X158538520Y-93999151D01*
X158551133Y-93978107D01*
X158565747Y-93958402D01*
X158582223Y-93940223D01*
X158600402Y-93923747D01*
X158620107Y-93909133D01*
X158641151Y-93896520D01*
X158663329Y-93886030D01*
X158686429Y-93877765D01*
X158710227Y-93871804D01*
X158734496Y-93868204D01*
X158759000Y-93867000D01*
X159684000Y-93867000D01*
X159708504Y-93868204D01*
X159708504Y-93868204D01*
G37*
D11*
G04 #@! TD*
G04 #@! TO.P,C2,2*
G04 #@! TO.N,Net-(C2-Pad2)*
X159221500Y-94742000D03*
D10*
G04 #@! TO.N,Net-(C2-Pad1)*
G04 #@! TO.C,C2*
G36*
X156733504Y-93868204D02*
X156757773Y-93871804D01*
X156781571Y-93877765D01*
X156804671Y-93886030D01*
X156826849Y-93896520D01*
X156847893Y-93909133D01*
X156867598Y-93923747D01*
X156885777Y-93940223D01*
X156902253Y-93958402D01*
X156916867Y-93978107D01*
X156929480Y-93999151D01*
X156939970Y-94021329D01*
X156948235Y-94044429D01*
X156954196Y-94068227D01*
X156957796Y-94092496D01*
X156959000Y-94117000D01*
X156959000Y-95367000D01*
X156957796Y-95391504D01*
X156954196Y-95415773D01*
X156948235Y-95439571D01*
X156939970Y-95462671D01*
X156929480Y-95484849D01*
X156916867Y-95505893D01*
X156902253Y-95525598D01*
X156885777Y-95543777D01*
X156867598Y-95560253D01*
X156847893Y-95574867D01*
X156826849Y-95587480D01*
X156804671Y-95597970D01*
X156781571Y-95606235D01*
X156757773Y-95612196D01*
X156733504Y-95615796D01*
X156709000Y-95617000D01*
X155784000Y-95617000D01*
X155759496Y-95615796D01*
X155735227Y-95612196D01*
X155711429Y-95606235D01*
X155688329Y-95597970D01*
X155666151Y-95587480D01*
X155645107Y-95574867D01*
X155625402Y-95560253D01*
X155607223Y-95543777D01*
X155590747Y-95525598D01*
X155576133Y-95505893D01*
X155563520Y-95484849D01*
X155553030Y-95462671D01*
X155544765Y-95439571D01*
X155538804Y-95415773D01*
X155535204Y-95391504D01*
X155534000Y-95367000D01*
X155534000Y-94117000D01*
X155535204Y-94092496D01*
X155538804Y-94068227D01*
X155544765Y-94044429D01*
X155553030Y-94021329D01*
X155563520Y-93999151D01*
X155576133Y-93978107D01*
X155590747Y-93958402D01*
X155607223Y-93940223D01*
X155625402Y-93923747D01*
X155645107Y-93909133D01*
X155666151Y-93896520D01*
X155688329Y-93886030D01*
X155711429Y-93877765D01*
X155735227Y-93871804D01*
X155759496Y-93868204D01*
X155784000Y-93867000D01*
X156709000Y-93867000D01*
X156733504Y-93868204D01*
X156733504Y-93868204D01*
G37*
D11*
G04 #@! TD*
G04 #@! TO.P,C2,1*
G04 #@! TO.N,Net-(C2-Pad1)*
X156246500Y-94742000D03*
D10*
G04 #@! TO.N,+3V3*
G04 #@! TO.C,C3*
G36*
X163971504Y-104227204D02*
X163995773Y-104230804D01*
X164019571Y-104236765D01*
X164042671Y-104245030D01*
X164064849Y-104255520D01*
X164085893Y-104268133D01*
X164105598Y-104282747D01*
X164123777Y-104299223D01*
X164140253Y-104317402D01*
X164154867Y-104337107D01*
X164167480Y-104358151D01*
X164177970Y-104380329D01*
X164186235Y-104403429D01*
X164192196Y-104427227D01*
X164195796Y-104451496D01*
X164197000Y-104476000D01*
X164197000Y-105401000D01*
X164195796Y-105425504D01*
X164192196Y-105449773D01*
X164186235Y-105473571D01*
X164177970Y-105496671D01*
X164167480Y-105518849D01*
X164154867Y-105539893D01*
X164140253Y-105559598D01*
X164123777Y-105577777D01*
X164105598Y-105594253D01*
X164085893Y-105608867D01*
X164064849Y-105621480D01*
X164042671Y-105631970D01*
X164019571Y-105640235D01*
X163995773Y-105646196D01*
X163971504Y-105649796D01*
X163947000Y-105651000D01*
X162697000Y-105651000D01*
X162672496Y-105649796D01*
X162648227Y-105646196D01*
X162624429Y-105640235D01*
X162601329Y-105631970D01*
X162579151Y-105621480D01*
X162558107Y-105608867D01*
X162538402Y-105594253D01*
X162520223Y-105577777D01*
X162503747Y-105559598D01*
X162489133Y-105539893D01*
X162476520Y-105518849D01*
X162466030Y-105496671D01*
X162457765Y-105473571D01*
X162451804Y-105449773D01*
X162448204Y-105425504D01*
X162447000Y-105401000D01*
X162447000Y-104476000D01*
X162448204Y-104451496D01*
X162451804Y-104427227D01*
X162457765Y-104403429D01*
X162466030Y-104380329D01*
X162476520Y-104358151D01*
X162489133Y-104337107D01*
X162503747Y-104317402D01*
X162520223Y-104299223D01*
X162538402Y-104282747D01*
X162558107Y-104268133D01*
X162579151Y-104255520D01*
X162601329Y-104245030D01*
X162624429Y-104236765D01*
X162648227Y-104230804D01*
X162672496Y-104227204D01*
X162697000Y-104226000D01*
X163947000Y-104226000D01*
X163971504Y-104227204D01*
X163971504Y-104227204D01*
G37*
D11*
G04 #@! TD*
G04 #@! TO.P,C3,2*
G04 #@! TO.N,+3V3*
X163322000Y-104938500D03*
D10*
G04 #@! TO.N,GND*
G04 #@! TO.C,C3*
G36*
X163971504Y-107202204D02*
X163995773Y-107205804D01*
X164019571Y-107211765D01*
X164042671Y-107220030D01*
X164064849Y-107230520D01*
X164085893Y-107243133D01*
X164105598Y-107257747D01*
X164123777Y-107274223D01*
X164140253Y-107292402D01*
X164154867Y-107312107D01*
X164167480Y-107333151D01*
X164177970Y-107355329D01*
X164186235Y-107378429D01*
X164192196Y-107402227D01*
X164195796Y-107426496D01*
X164197000Y-107451000D01*
X164197000Y-108376000D01*
X164195796Y-108400504D01*
X164192196Y-108424773D01*
X164186235Y-108448571D01*
X164177970Y-108471671D01*
X164167480Y-108493849D01*
X164154867Y-108514893D01*
X164140253Y-108534598D01*
X164123777Y-108552777D01*
X164105598Y-108569253D01*
X164085893Y-108583867D01*
X164064849Y-108596480D01*
X164042671Y-108606970D01*
X164019571Y-108615235D01*
X163995773Y-108621196D01*
X163971504Y-108624796D01*
X163947000Y-108626000D01*
X162697000Y-108626000D01*
X162672496Y-108624796D01*
X162648227Y-108621196D01*
X162624429Y-108615235D01*
X162601329Y-108606970D01*
X162579151Y-108596480D01*
X162558107Y-108583867D01*
X162538402Y-108569253D01*
X162520223Y-108552777D01*
X162503747Y-108534598D01*
X162489133Y-108514893D01*
X162476520Y-108493849D01*
X162466030Y-108471671D01*
X162457765Y-108448571D01*
X162451804Y-108424773D01*
X162448204Y-108400504D01*
X162447000Y-108376000D01*
X162447000Y-107451000D01*
X162448204Y-107426496D01*
X162451804Y-107402227D01*
X162457765Y-107378429D01*
X162466030Y-107355329D01*
X162476520Y-107333151D01*
X162489133Y-107312107D01*
X162503747Y-107292402D01*
X162520223Y-107274223D01*
X162538402Y-107257747D01*
X162558107Y-107243133D01*
X162579151Y-107230520D01*
X162601329Y-107220030D01*
X162624429Y-107211765D01*
X162648227Y-107205804D01*
X162672496Y-107202204D01*
X162697000Y-107201000D01*
X163947000Y-107201000D01*
X163971504Y-107202204D01*
X163971504Y-107202204D01*
G37*
D11*
G04 #@! TD*
G04 #@! TO.P,C3,1*
G04 #@! TO.N,GND*
X163322000Y-107913500D03*
D10*
G04 #@! TO.N,Net-(C4-Pad2)*
G04 #@! TO.C,C4*
G36*
X159708504Y-109362204D02*
X159732773Y-109365804D01*
X159756571Y-109371765D01*
X159779671Y-109380030D01*
X159801849Y-109390520D01*
X159822893Y-109403133D01*
X159842598Y-109417747D01*
X159860777Y-109434223D01*
X159877253Y-109452402D01*
X159891867Y-109472107D01*
X159904480Y-109493151D01*
X159914970Y-109515329D01*
X159923235Y-109538429D01*
X159929196Y-109562227D01*
X159932796Y-109586496D01*
X159934000Y-109611000D01*
X159934000Y-110861000D01*
X159932796Y-110885504D01*
X159929196Y-110909773D01*
X159923235Y-110933571D01*
X159914970Y-110956671D01*
X159904480Y-110978849D01*
X159891867Y-110999893D01*
X159877253Y-111019598D01*
X159860777Y-111037777D01*
X159842598Y-111054253D01*
X159822893Y-111068867D01*
X159801849Y-111081480D01*
X159779671Y-111091970D01*
X159756571Y-111100235D01*
X159732773Y-111106196D01*
X159708504Y-111109796D01*
X159684000Y-111111000D01*
X158759000Y-111111000D01*
X158734496Y-111109796D01*
X158710227Y-111106196D01*
X158686429Y-111100235D01*
X158663329Y-111091970D01*
X158641151Y-111081480D01*
X158620107Y-111068867D01*
X158600402Y-111054253D01*
X158582223Y-111037777D01*
X158565747Y-111019598D01*
X158551133Y-110999893D01*
X158538520Y-110978849D01*
X158528030Y-110956671D01*
X158519765Y-110933571D01*
X158513804Y-110909773D01*
X158510204Y-110885504D01*
X158509000Y-110861000D01*
X158509000Y-109611000D01*
X158510204Y-109586496D01*
X158513804Y-109562227D01*
X158519765Y-109538429D01*
X158528030Y-109515329D01*
X158538520Y-109493151D01*
X158551133Y-109472107D01*
X158565747Y-109452402D01*
X158582223Y-109434223D01*
X158600402Y-109417747D01*
X158620107Y-109403133D01*
X158641151Y-109390520D01*
X158663329Y-109380030D01*
X158686429Y-109371765D01*
X158710227Y-109365804D01*
X158734496Y-109362204D01*
X158759000Y-109361000D01*
X159684000Y-109361000D01*
X159708504Y-109362204D01*
X159708504Y-109362204D01*
G37*
D11*
G04 #@! TD*
G04 #@! TO.P,C4,2*
G04 #@! TO.N,Net-(C4-Pad2)*
X159221500Y-110236000D03*
D10*
G04 #@! TO.N,Net-(C4-Pad1)*
G04 #@! TO.C,C4*
G36*
X156733504Y-109362204D02*
X156757773Y-109365804D01*
X156781571Y-109371765D01*
X156804671Y-109380030D01*
X156826849Y-109390520D01*
X156847893Y-109403133D01*
X156867598Y-109417747D01*
X156885777Y-109434223D01*
X156902253Y-109452402D01*
X156916867Y-109472107D01*
X156929480Y-109493151D01*
X156939970Y-109515329D01*
X156948235Y-109538429D01*
X156954196Y-109562227D01*
X156957796Y-109586496D01*
X156959000Y-109611000D01*
X156959000Y-110861000D01*
X156957796Y-110885504D01*
X156954196Y-110909773D01*
X156948235Y-110933571D01*
X156939970Y-110956671D01*
X156929480Y-110978849D01*
X156916867Y-110999893D01*
X156902253Y-111019598D01*
X156885777Y-111037777D01*
X156867598Y-111054253D01*
X156847893Y-111068867D01*
X156826849Y-111081480D01*
X156804671Y-111091970D01*
X156781571Y-111100235D01*
X156757773Y-111106196D01*
X156733504Y-111109796D01*
X156709000Y-111111000D01*
X155784000Y-111111000D01*
X155759496Y-111109796D01*
X155735227Y-111106196D01*
X155711429Y-111100235D01*
X155688329Y-111091970D01*
X155666151Y-111081480D01*
X155645107Y-111068867D01*
X155625402Y-111054253D01*
X155607223Y-111037777D01*
X155590747Y-111019598D01*
X155576133Y-110999893D01*
X155563520Y-110978849D01*
X155553030Y-110956671D01*
X155544765Y-110933571D01*
X155538804Y-110909773D01*
X155535204Y-110885504D01*
X155534000Y-110861000D01*
X155534000Y-109611000D01*
X155535204Y-109586496D01*
X155538804Y-109562227D01*
X155544765Y-109538429D01*
X155553030Y-109515329D01*
X155563520Y-109493151D01*
X155576133Y-109472107D01*
X155590747Y-109452402D01*
X155607223Y-109434223D01*
X155625402Y-109417747D01*
X155645107Y-109403133D01*
X155666151Y-109390520D01*
X155688329Y-109380030D01*
X155711429Y-109371765D01*
X155735227Y-109365804D01*
X155759496Y-109362204D01*
X155784000Y-109361000D01*
X156709000Y-109361000D01*
X156733504Y-109362204D01*
X156733504Y-109362204D01*
G37*
D11*
G04 #@! TD*
G04 #@! TO.P,C4,1*
G04 #@! TO.N,Net-(C4-Pad1)*
X156246500Y-110236000D03*
D12*
G04 #@! TO.P,J1,1*
G04 #@! TO.N,Net-(J1-Pad1)*
X178562000Y-88138000D03*
G04 #@! TD*
G04 #@! TO.P,J2,1*
G04 #@! TO.N,GND*
X178562000Y-95758000D03*
G04 #@! TD*
G04 #@! TO.P,J3,1*
G04 #@! TO.N,Net-(J3-Pad1)*
X178562000Y-103632000D03*
G04 #@! TD*
G04 #@! TO.P,J4,1*
G04 #@! TO.N,Net-(J4-Pad1)*
X143002000Y-90932000D03*
G04 #@! TD*
G04 #@! TO.P,J5,1*
G04 #@! TO.N,Net-(J5-Pad1)*
X143002000Y-106172000D03*
G04 #@! TD*
G04 #@! TO.P,J6,1*
G04 #@! TO.N,+3V3*
X166878000Y-112014000D03*
G04 #@! TD*
G04 #@! TO.P,J7,1*
G04 #@! TO.N,GND*
X173990000Y-112014000D03*
G04 #@! TD*
D13*
G04 #@! TO.P,Q1,3*
G04 #@! TO.N,Net-(J1-Pad1)*
X170672000Y-88138000D03*
G04 #@! TO.P,Q1,2*
G04 #@! TO.N,GND*
X168672000Y-89088000D03*
G04 #@! TO.P,Q1,1*
G04 #@! TO.N,Net-(Q1-Pad1)*
X168672000Y-87188000D03*
G04 #@! TD*
G04 #@! TO.P,Q2,3*
G04 #@! TO.N,Net-(J3-Pad1)*
X170672000Y-103632000D03*
G04 #@! TO.P,Q2,2*
G04 #@! TO.N,GND*
X168672000Y-104582000D03*
G04 #@! TO.P,Q2,1*
G04 #@! TO.N,Net-(Q2-Pad1)*
X168672000Y-102682000D03*
G04 #@! TD*
D10*
G04 #@! TO.N,Net-(C2-Pad1)*
G04 #@! TO.C,R1*
G36*
X151834504Y-90058204D02*
X151858773Y-90061804D01*
X151882571Y-90067765D01*
X151905671Y-90076030D01*
X151927849Y-90086520D01*
X151948893Y-90099133D01*
X151968598Y-90113747D01*
X151986777Y-90130223D01*
X152003253Y-90148402D01*
X152017867Y-90168107D01*
X152030480Y-90189151D01*
X152040970Y-90211329D01*
X152049235Y-90234429D01*
X152055196Y-90258227D01*
X152058796Y-90282496D01*
X152060000Y-90307000D01*
X152060000Y-91557000D01*
X152058796Y-91581504D01*
X152055196Y-91605773D01*
X152049235Y-91629571D01*
X152040970Y-91652671D01*
X152030480Y-91674849D01*
X152017867Y-91695893D01*
X152003253Y-91715598D01*
X151986777Y-91733777D01*
X151968598Y-91750253D01*
X151948893Y-91764867D01*
X151927849Y-91777480D01*
X151905671Y-91787970D01*
X151882571Y-91796235D01*
X151858773Y-91802196D01*
X151834504Y-91805796D01*
X151810000Y-91807000D01*
X150885000Y-91807000D01*
X150860496Y-91805796D01*
X150836227Y-91802196D01*
X150812429Y-91796235D01*
X150789329Y-91787970D01*
X150767151Y-91777480D01*
X150746107Y-91764867D01*
X150726402Y-91750253D01*
X150708223Y-91733777D01*
X150691747Y-91715598D01*
X150677133Y-91695893D01*
X150664520Y-91674849D01*
X150654030Y-91652671D01*
X150645765Y-91629571D01*
X150639804Y-91605773D01*
X150636204Y-91581504D01*
X150635000Y-91557000D01*
X150635000Y-90307000D01*
X150636204Y-90282496D01*
X150639804Y-90258227D01*
X150645765Y-90234429D01*
X150654030Y-90211329D01*
X150664520Y-90189151D01*
X150677133Y-90168107D01*
X150691747Y-90148402D01*
X150708223Y-90130223D01*
X150726402Y-90113747D01*
X150746107Y-90099133D01*
X150767151Y-90086520D01*
X150789329Y-90076030D01*
X150812429Y-90067765D01*
X150836227Y-90061804D01*
X150860496Y-90058204D01*
X150885000Y-90057000D01*
X151810000Y-90057000D01*
X151834504Y-90058204D01*
X151834504Y-90058204D01*
G37*
D11*
G04 #@! TD*
G04 #@! TO.P,R1,2*
G04 #@! TO.N,Net-(C2-Pad1)*
X151347500Y-90932000D03*
D10*
G04 #@! TO.N,Net-(J4-Pad1)*
G04 #@! TO.C,R1*
G36*
X148859504Y-90058204D02*
X148883773Y-90061804D01*
X148907571Y-90067765D01*
X148930671Y-90076030D01*
X148952849Y-90086520D01*
X148973893Y-90099133D01*
X148993598Y-90113747D01*
X149011777Y-90130223D01*
X149028253Y-90148402D01*
X149042867Y-90168107D01*
X149055480Y-90189151D01*
X149065970Y-90211329D01*
X149074235Y-90234429D01*
X149080196Y-90258227D01*
X149083796Y-90282496D01*
X149085000Y-90307000D01*
X149085000Y-91557000D01*
X149083796Y-91581504D01*
X149080196Y-91605773D01*
X149074235Y-91629571D01*
X149065970Y-91652671D01*
X149055480Y-91674849D01*
X149042867Y-91695893D01*
X149028253Y-91715598D01*
X149011777Y-91733777D01*
X148993598Y-91750253D01*
X148973893Y-91764867D01*
X148952849Y-91777480D01*
X148930671Y-91787970D01*
X148907571Y-91796235D01*
X148883773Y-91802196D01*
X148859504Y-91805796D01*
X148835000Y-91807000D01*
X147910000Y-91807000D01*
X147885496Y-91805796D01*
X147861227Y-91802196D01*
X147837429Y-91796235D01*
X147814329Y-91787970D01*
X147792151Y-91777480D01*
X147771107Y-91764867D01*
X147751402Y-91750253D01*
X147733223Y-91733777D01*
X147716747Y-91715598D01*
X147702133Y-91695893D01*
X147689520Y-91674849D01*
X147679030Y-91652671D01*
X147670765Y-91629571D01*
X147664804Y-91605773D01*
X147661204Y-91581504D01*
X147660000Y-91557000D01*
X147660000Y-90307000D01*
X147661204Y-90282496D01*
X147664804Y-90258227D01*
X147670765Y-90234429D01*
X147679030Y-90211329D01*
X147689520Y-90189151D01*
X147702133Y-90168107D01*
X147716747Y-90148402D01*
X147733223Y-90130223D01*
X147751402Y-90113747D01*
X147771107Y-90099133D01*
X147792151Y-90086520D01*
X147814329Y-90076030D01*
X147837429Y-90067765D01*
X147861227Y-90061804D01*
X147885496Y-90058204D01*
X147910000Y-90057000D01*
X148835000Y-90057000D01*
X148859504Y-90058204D01*
X148859504Y-90058204D01*
G37*
D11*
G04 #@! TD*
G04 #@! TO.P,R1,1*
G04 #@! TO.N,Net-(J4-Pad1)*
X148372500Y-90932000D03*
D10*
G04 #@! TO.N,Net-(C4-Pad1)*
G04 #@! TO.C,R2*
G36*
X151834504Y-105298204D02*
X151858773Y-105301804D01*
X151882571Y-105307765D01*
X151905671Y-105316030D01*
X151927849Y-105326520D01*
X151948893Y-105339133D01*
X151968598Y-105353747D01*
X151986777Y-105370223D01*
X152003253Y-105388402D01*
X152017867Y-105408107D01*
X152030480Y-105429151D01*
X152040970Y-105451329D01*
X152049235Y-105474429D01*
X152055196Y-105498227D01*
X152058796Y-105522496D01*
X152060000Y-105547000D01*
X152060000Y-106797000D01*
X152058796Y-106821504D01*
X152055196Y-106845773D01*
X152049235Y-106869571D01*
X152040970Y-106892671D01*
X152030480Y-106914849D01*
X152017867Y-106935893D01*
X152003253Y-106955598D01*
X151986777Y-106973777D01*
X151968598Y-106990253D01*
X151948893Y-107004867D01*
X151927849Y-107017480D01*
X151905671Y-107027970D01*
X151882571Y-107036235D01*
X151858773Y-107042196D01*
X151834504Y-107045796D01*
X151810000Y-107047000D01*
X150885000Y-107047000D01*
X150860496Y-107045796D01*
X150836227Y-107042196D01*
X150812429Y-107036235D01*
X150789329Y-107027970D01*
X150767151Y-107017480D01*
X150746107Y-107004867D01*
X150726402Y-106990253D01*
X150708223Y-106973777D01*
X150691747Y-106955598D01*
X150677133Y-106935893D01*
X150664520Y-106914849D01*
X150654030Y-106892671D01*
X150645765Y-106869571D01*
X150639804Y-106845773D01*
X150636204Y-106821504D01*
X150635000Y-106797000D01*
X150635000Y-105547000D01*
X150636204Y-105522496D01*
X150639804Y-105498227D01*
X150645765Y-105474429D01*
X150654030Y-105451329D01*
X150664520Y-105429151D01*
X150677133Y-105408107D01*
X150691747Y-105388402D01*
X150708223Y-105370223D01*
X150726402Y-105353747D01*
X150746107Y-105339133D01*
X150767151Y-105326520D01*
X150789329Y-105316030D01*
X150812429Y-105307765D01*
X150836227Y-105301804D01*
X150860496Y-105298204D01*
X150885000Y-105297000D01*
X151810000Y-105297000D01*
X151834504Y-105298204D01*
X151834504Y-105298204D01*
G37*
D11*
G04 #@! TD*
G04 #@! TO.P,R2,2*
G04 #@! TO.N,Net-(C4-Pad1)*
X151347500Y-106172000D03*
D10*
G04 #@! TO.N,Net-(J5-Pad1)*
G04 #@! TO.C,R2*
G36*
X148859504Y-105298204D02*
X148883773Y-105301804D01*
X148907571Y-105307765D01*
X148930671Y-105316030D01*
X148952849Y-105326520D01*
X148973893Y-105339133D01*
X148993598Y-105353747D01*
X149011777Y-105370223D01*
X149028253Y-105388402D01*
X149042867Y-105408107D01*
X149055480Y-105429151D01*
X149065970Y-105451329D01*
X149074235Y-105474429D01*
X149080196Y-105498227D01*
X149083796Y-105522496D01*
X149085000Y-105547000D01*
X149085000Y-106797000D01*
X149083796Y-106821504D01*
X149080196Y-106845773D01*
X149074235Y-106869571D01*
X149065970Y-106892671D01*
X149055480Y-106914849D01*
X149042867Y-106935893D01*
X149028253Y-106955598D01*
X149011777Y-106973777D01*
X148993598Y-106990253D01*
X148973893Y-107004867D01*
X148952849Y-107017480D01*
X148930671Y-107027970D01*
X148907571Y-107036235D01*
X148883773Y-107042196D01*
X148859504Y-107045796D01*
X148835000Y-107047000D01*
X147910000Y-107047000D01*
X147885496Y-107045796D01*
X147861227Y-107042196D01*
X147837429Y-107036235D01*
X147814329Y-107027970D01*
X147792151Y-107017480D01*
X147771107Y-107004867D01*
X147751402Y-106990253D01*
X147733223Y-106973777D01*
X147716747Y-106955598D01*
X147702133Y-106935893D01*
X147689520Y-106914849D01*
X147679030Y-106892671D01*
X147670765Y-106869571D01*
X147664804Y-106845773D01*
X147661204Y-106821504D01*
X147660000Y-106797000D01*
X147660000Y-105547000D01*
X147661204Y-105522496D01*
X147664804Y-105498227D01*
X147670765Y-105474429D01*
X147679030Y-105451329D01*
X147689520Y-105429151D01*
X147702133Y-105408107D01*
X147716747Y-105388402D01*
X147733223Y-105370223D01*
X147751402Y-105353747D01*
X147771107Y-105339133D01*
X147792151Y-105326520D01*
X147814329Y-105316030D01*
X147837429Y-105307765D01*
X147861227Y-105301804D01*
X147885496Y-105298204D01*
X147910000Y-105297000D01*
X148835000Y-105297000D01*
X148859504Y-105298204D01*
X148859504Y-105298204D01*
G37*
D11*
G04 #@! TD*
G04 #@! TO.P,R2,1*
G04 #@! TO.N,Net-(J5-Pad1)*
X148372500Y-106172000D03*
D14*
G04 #@! TO.P,U1,5*
G04 #@! TO.N,+3V3*
X159084000Y-90170000D03*
G04 #@! TO.P,U1,6*
X159084000Y-89220000D03*
G04 #@! TO.P,U1,4*
G04 #@! TO.N,Net-(C2-Pad2)*
X159084000Y-91120000D03*
G04 #@! TO.P,U1,3*
G04 #@! TO.N,Net-(C2-Pad1)*
X156384000Y-91120000D03*
G04 #@! TO.P,U1,2*
G04 #@! TO.N,GND*
X156384000Y-90170000D03*
G04 #@! TO.P,U1,1*
G04 #@! TO.N,Net-(Q1-Pad1)*
X156384000Y-89220000D03*
G04 #@! TD*
G04 #@! TO.P,U2,5*
G04 #@! TO.N,+3V3*
X159084000Y-105156000D03*
G04 #@! TO.P,U2,6*
X159084000Y-104206000D03*
G04 #@! TO.P,U2,4*
G04 #@! TO.N,Net-(C4-Pad2)*
X159084000Y-106106000D03*
G04 #@! TO.P,U2,3*
G04 #@! TO.N,Net-(C4-Pad1)*
X156384000Y-106106000D03*
G04 #@! TO.P,U2,2*
G04 #@! TO.N,GND*
X156384000Y-105156000D03*
G04 #@! TO.P,U2,1*
G04 #@! TO.N,Net-(Q2-Pad1)*
X156384000Y-104206000D03*
G04 #@! TD*
D15*
G04 #@! TO.N,GND*
X176784000Y-112014000D03*
X170434000Y-112014000D03*
X163322000Y-112268000D03*
X178816000Y-109728000D03*
X178562000Y-98298000D03*
X178562000Y-90678000D03*
X140208000Y-90932000D03*
X139954000Y-106172000D03*
G04 #@! TD*
D16*
G04 #@! TO.N,+3V3*
X166878000Y-110246686D02*
X166878000Y-112014000D01*
X166878000Y-107519500D02*
X166878000Y-110246686D01*
X164297000Y-104938500D02*
X166878000Y-107519500D01*
X163322000Y-104938500D02*
X164297000Y-104938500D01*
D17*
X166878000Y-112014000D02*
X166878000Y-108458000D01*
D16*
X166878000Y-107519500D02*
X181532500Y-107519500D01*
X181532500Y-107519500D02*
X182626000Y-106426000D01*
X182626000Y-106426000D02*
X182626000Y-101600000D01*
X182626000Y-101600000D02*
X180848000Y-99822000D01*
X173699500Y-99822000D02*
X166116000Y-92238500D01*
X180848000Y-99822000D02*
X173699500Y-99822000D01*
X166116000Y-92238500D02*
X166116000Y-89408000D01*
X166079500Y-89444500D02*
X163322000Y-89444500D01*
D17*
X166116000Y-89408000D02*
X166079500Y-89444500D01*
D16*
X159084000Y-104206000D02*
X159084000Y-105156000D01*
D17*
X159084000Y-104781000D02*
X159084000Y-104206000D01*
X159241500Y-104938500D02*
X159084000Y-104781000D01*
D16*
X163322000Y-104938500D02*
X159241500Y-104938500D01*
X159084000Y-90170000D02*
X159084000Y-89220000D01*
D17*
X163097500Y-89220000D02*
X163322000Y-89444500D01*
D16*
X159084000Y-89220000D02*
X163097500Y-89220000D01*
D17*
G04 #@! TO.N,GND*
X163322000Y-96774000D02*
X163322000Y-92419500D01*
X157734000Y-96774000D02*
X163322000Y-96774000D01*
X156384000Y-90170000D02*
X157414000Y-90170000D01*
X157734000Y-90490000D02*
X157734000Y-96774000D01*
X157414000Y-90170000D02*
X157734000Y-90490000D01*
X157414000Y-105156000D02*
X157734000Y-105476000D01*
X156384000Y-105156000D02*
X157414000Y-105156000D01*
X157734000Y-105476000D02*
X157734000Y-113284000D01*
X157734000Y-113284000D02*
X163322000Y-113284000D01*
X163322000Y-113284000D02*
X163322000Y-112268000D01*
X163322000Y-112268000D02*
X163322000Y-107913500D01*
D16*
G04 #@! TO.N,Net-(C2-Pad1)*
X151347500Y-90932000D02*
X153416000Y-90932000D01*
X153604000Y-91120000D02*
X156384000Y-91120000D01*
X153416000Y-90932000D02*
X153604000Y-91120000D01*
D17*
X156384000Y-94604500D02*
X156246500Y-94742000D01*
D16*
X156384000Y-91120000D02*
X156384000Y-94604500D01*
D17*
G04 #@! TO.N,Net-(C2-Pad2)*
X159084000Y-94604500D02*
X159221500Y-94742000D01*
D16*
X159084000Y-91120000D02*
X159084000Y-94604500D01*
D17*
G04 #@! TO.N,Net-(C4-Pad1)*
X156384000Y-110098500D02*
X156246500Y-110236000D01*
D16*
X156384000Y-106106000D02*
X156384000Y-110098500D01*
D17*
X151413500Y-106106000D02*
X151347500Y-106172000D01*
D16*
X156384000Y-106106000D02*
X151413500Y-106106000D01*
D17*
G04 #@! TO.N,Net-(C4-Pad2)*
X159084000Y-110098500D02*
X159221500Y-110236000D01*
D16*
X159084000Y-106106000D02*
X159084000Y-110098500D01*
G04 #@! TO.N,Net-(J1-Pad1)*
X170672000Y-88138000D02*
X178562000Y-88138000D01*
G04 #@! TO.N,Net-(J3-Pad1)*
X170672000Y-103632000D02*
X178562000Y-103632000D01*
G04 #@! TO.N,Net-(J4-Pad1)*
X143002000Y-90932000D02*
X148372500Y-90932000D01*
G04 #@! TO.N,Net-(J5-Pad1)*
X143002000Y-106172000D02*
X148372500Y-106172000D01*
G04 #@! TO.N,Net-(Q1-Pad1)*
X168672000Y-86538000D02*
X168402000Y-86268000D01*
X168672000Y-87188000D02*
X168672000Y-86538000D01*
X168402000Y-86268000D02*
X156556000Y-86268000D01*
X156384000Y-86440000D02*
X156384000Y-89220000D01*
X156556000Y-86268000D02*
X156384000Y-86440000D01*
G04 #@! TO.N,Net-(Q2-Pad1)*
X156384000Y-101680000D02*
X156384000Y-104206000D01*
D17*
X156464000Y-101600000D02*
X156384000Y-101680000D01*
D16*
X168240000Y-101600000D02*
X156464000Y-101600000D01*
X168672000Y-102682000D02*
X168672000Y-102032000D01*
X168672000Y-102032000D02*
X168240000Y-101600000D01*
G04 #@! TD*
D18*
G04 #@! TO.N,GND*
G36*
X185980001Y-115876000D02*
X138886000Y-115876000D01*
X138886000Y-113417050D01*
X139085000Y-113417050D01*
X139085000Y-114166950D01*
X139371974Y-114859767D01*
X139902233Y-115390026D01*
X140595050Y-115677000D01*
X141344950Y-115677000D01*
X142037767Y-115390026D01*
X142568026Y-114859767D01*
X142855000Y-114166950D01*
X142855000Y-113417050D01*
X142568026Y-112724233D01*
X142037767Y-112193974D01*
X141344950Y-111907000D01*
X140595050Y-111907000D01*
X139902233Y-112193974D01*
X139371974Y-112724233D01*
X139085000Y-113417050D01*
X138886000Y-113417050D01*
X138886000Y-105797114D01*
X141117320Y-105797114D01*
X141117320Y-106546886D01*
X141404245Y-107239585D01*
X141934415Y-107769755D01*
X142627114Y-108056680D01*
X143376886Y-108056680D01*
X144069585Y-107769755D01*
X144599755Y-107239585D01*
X144685739Y-107032000D01*
X147059305Y-107032000D01*
X147080874Y-107140435D01*
X147275414Y-107431586D01*
X147566565Y-107626126D01*
X147910000Y-107694440D01*
X148835000Y-107694440D01*
X149178435Y-107626126D01*
X149469586Y-107431586D01*
X149664126Y-107140435D01*
X149732440Y-106797000D01*
X149732440Y-105547000D01*
X149664126Y-105203565D01*
X149469586Y-104912414D01*
X149178435Y-104717874D01*
X148835000Y-104649560D01*
X147910000Y-104649560D01*
X147566565Y-104717874D01*
X147275414Y-104912414D01*
X147080874Y-105203565D01*
X147059305Y-105312000D01*
X144685739Y-105312000D01*
X144599755Y-105104415D01*
X144069585Y-104574245D01*
X143376886Y-104287320D01*
X142627114Y-104287320D01*
X141934415Y-104574245D01*
X141404245Y-105104415D01*
X141117320Y-105797114D01*
X138886000Y-105797114D01*
X138886000Y-90557114D01*
X141117320Y-90557114D01*
X141117320Y-91306886D01*
X141404245Y-91999585D01*
X141934415Y-92529755D01*
X142627114Y-92816680D01*
X143376886Y-92816680D01*
X144069585Y-92529755D01*
X144599755Y-91999585D01*
X144685739Y-91792000D01*
X147059305Y-91792000D01*
X147080874Y-91900435D01*
X147275414Y-92191586D01*
X147566565Y-92386126D01*
X147910000Y-92454440D01*
X148835000Y-92454440D01*
X149178435Y-92386126D01*
X149469586Y-92191586D01*
X149664126Y-91900435D01*
X149732440Y-91557000D01*
X149732440Y-90307000D01*
X149987560Y-90307000D01*
X149987560Y-91557000D01*
X150055874Y-91900435D01*
X150250414Y-92191586D01*
X150541565Y-92386126D01*
X150885000Y-92454440D01*
X151810000Y-92454440D01*
X152153435Y-92386126D01*
X152444586Y-92191586D01*
X152639126Y-91900435D01*
X152660695Y-91792000D01*
X153061761Y-91792000D01*
X153268445Y-91930102D01*
X153519299Y-91980000D01*
X153519304Y-91980000D01*
X153603999Y-91996847D01*
X153688695Y-91980000D01*
X155261715Y-91980000D01*
X155356235Y-92043157D01*
X155524000Y-92076527D01*
X155524001Y-93271277D01*
X155440565Y-93287874D01*
X155149414Y-93482414D01*
X154954874Y-93773565D01*
X154886560Y-94117000D01*
X154886560Y-95367000D01*
X154954874Y-95710435D01*
X155149414Y-96001586D01*
X155440565Y-96196126D01*
X155784000Y-96264440D01*
X156709000Y-96264440D01*
X157052435Y-96196126D01*
X157343586Y-96001586D01*
X157538126Y-95710435D01*
X157606440Y-95367000D01*
X157606440Y-94117000D01*
X157538126Y-93773565D01*
X157343586Y-93482414D01*
X157244000Y-93415873D01*
X157244000Y-92076527D01*
X157411765Y-92043157D01*
X157621809Y-91902809D01*
X157734000Y-91734905D01*
X157846191Y-91902809D01*
X158056235Y-92043157D01*
X158224000Y-92076527D01*
X158224001Y-93415873D01*
X158124414Y-93482414D01*
X157929874Y-93773565D01*
X157861560Y-94117000D01*
X157861560Y-95367000D01*
X157929874Y-95710435D01*
X158124414Y-96001586D01*
X158415565Y-96196126D01*
X158759000Y-96264440D01*
X159684000Y-96264440D01*
X160027435Y-96196126D01*
X160318586Y-96001586D01*
X160513126Y-95710435D01*
X160581440Y-95367000D01*
X160581440Y-94117000D01*
X160513126Y-93773565D01*
X160318586Y-93482414D01*
X160027435Y-93287874D01*
X159944000Y-93271278D01*
X159944000Y-92705250D01*
X161812000Y-92705250D01*
X161812000Y-93258309D01*
X161908673Y-93491698D01*
X162087301Y-93670327D01*
X162320690Y-93767000D01*
X163036250Y-93767000D01*
X163195000Y-93608250D01*
X163195000Y-92546500D01*
X163449000Y-92546500D01*
X163449000Y-93608250D01*
X163607750Y-93767000D01*
X164323310Y-93767000D01*
X164556699Y-93670327D01*
X164735327Y-93491698D01*
X164832000Y-93258309D01*
X164832000Y-92705250D01*
X164673250Y-92546500D01*
X163449000Y-92546500D01*
X163195000Y-92546500D01*
X161970750Y-92546500D01*
X161812000Y-92705250D01*
X159944000Y-92705250D01*
X159944000Y-92076527D01*
X160111765Y-92043157D01*
X160321809Y-91902809D01*
X160462157Y-91692765D01*
X160484449Y-91580691D01*
X161812000Y-91580691D01*
X161812000Y-92133750D01*
X161970750Y-92292500D01*
X163195000Y-92292500D01*
X163195000Y-91230750D01*
X163449000Y-91230750D01*
X163449000Y-92292500D01*
X164673250Y-92292500D01*
X164832000Y-92133750D01*
X164832000Y-91580691D01*
X164735327Y-91347302D01*
X164556699Y-91168673D01*
X164323310Y-91072000D01*
X163607750Y-91072000D01*
X163449000Y-91230750D01*
X163195000Y-91230750D01*
X163036250Y-91072000D01*
X162320690Y-91072000D01*
X162087301Y-91168673D01*
X161908673Y-91347302D01*
X161812000Y-91580691D01*
X160484449Y-91580691D01*
X160511440Y-91445000D01*
X160511440Y-90795000D01*
X160481603Y-90645000D01*
X160511440Y-90495000D01*
X160511440Y-90080000D01*
X161833972Y-90080000D01*
X161867874Y-90250435D01*
X162062414Y-90541586D01*
X162353565Y-90736126D01*
X162697000Y-90804440D01*
X163947000Y-90804440D01*
X164290435Y-90736126D01*
X164581586Y-90541586D01*
X164740001Y-90304500D01*
X165256001Y-90304500D01*
X165256000Y-92153804D01*
X165239153Y-92238500D01*
X165256000Y-92323196D01*
X165256000Y-92323200D01*
X165305898Y-92574054D01*
X165495975Y-92858525D01*
X165567782Y-92906505D01*
X173031495Y-100370218D01*
X173079475Y-100442025D01*
X173151281Y-100490004D01*
X173363944Y-100632102D01*
X173699500Y-100698848D01*
X173784201Y-100682000D01*
X180491777Y-100682000D01*
X181766001Y-101956224D01*
X181766000Y-106069777D01*
X181176277Y-106659500D01*
X167234224Y-106659500D01*
X165442474Y-104867750D01*
X167587000Y-104867750D01*
X167587000Y-105108310D01*
X167683673Y-105341699D01*
X167862302Y-105520327D01*
X168095691Y-105617000D01*
X168386250Y-105617000D01*
X168545000Y-105458250D01*
X168545000Y-104709000D01*
X168799000Y-104709000D01*
X168799000Y-105458250D01*
X168957750Y-105617000D01*
X169248309Y-105617000D01*
X169481698Y-105520327D01*
X169660327Y-105341699D01*
X169757000Y-105108310D01*
X169757000Y-104867750D01*
X169598250Y-104709000D01*
X168799000Y-104709000D01*
X168545000Y-104709000D01*
X167745750Y-104709000D01*
X167587000Y-104867750D01*
X165442474Y-104867750D01*
X164965005Y-104390282D01*
X164917025Y-104318475D01*
X164797177Y-104238395D01*
X164776126Y-104132565D01*
X164581586Y-103841414D01*
X164290435Y-103646874D01*
X163947000Y-103578560D01*
X162697000Y-103578560D01*
X162353565Y-103646874D01*
X162062414Y-103841414D01*
X161903999Y-104078500D01*
X160511440Y-104078500D01*
X160511440Y-103881000D01*
X160462157Y-103633235D01*
X160321809Y-103423191D01*
X160111765Y-103282843D01*
X159864000Y-103233560D01*
X158304000Y-103233560D01*
X158056235Y-103282843D01*
X157846191Y-103423191D01*
X157734000Y-103591095D01*
X157621809Y-103423191D01*
X157411765Y-103282843D01*
X157244000Y-103249473D01*
X157244000Y-102460000D01*
X167574560Y-102460000D01*
X167574560Y-103082000D01*
X167623843Y-103329765D01*
X167764191Y-103539809D01*
X167897694Y-103629013D01*
X167862302Y-103643673D01*
X167683673Y-103822301D01*
X167587000Y-104055690D01*
X167587000Y-104296250D01*
X167745750Y-104455000D01*
X168545000Y-104455000D01*
X168545000Y-104435000D01*
X168799000Y-104435000D01*
X168799000Y-104455000D01*
X169598250Y-104455000D01*
X169683781Y-104369469D01*
X169764191Y-104489809D01*
X169974235Y-104630157D01*
X170222000Y-104679440D01*
X171122000Y-104679440D01*
X171369765Y-104630157D01*
X171576530Y-104492000D01*
X176878261Y-104492000D01*
X176964245Y-104699585D01*
X177494415Y-105229755D01*
X178187114Y-105516680D01*
X178936886Y-105516680D01*
X179629585Y-105229755D01*
X180159755Y-104699585D01*
X180446680Y-104006886D01*
X180446680Y-103257114D01*
X180159755Y-102564415D01*
X179629585Y-102034245D01*
X178936886Y-101747320D01*
X178187114Y-101747320D01*
X177494415Y-102034245D01*
X176964245Y-102564415D01*
X176878261Y-102772000D01*
X171576530Y-102772000D01*
X171369765Y-102633843D01*
X171122000Y-102584560D01*
X170222000Y-102584560D01*
X169974235Y-102633843D01*
X169769440Y-102770684D01*
X169769440Y-102282000D01*
X169720157Y-102034235D01*
X169579809Y-101824191D01*
X169496430Y-101768479D01*
X169482102Y-101696445D01*
X169292025Y-101411975D01*
X169220218Y-101363995D01*
X168908004Y-101051781D01*
X168860025Y-100979975D01*
X168575555Y-100789898D01*
X168324701Y-100740000D01*
X168324696Y-100740000D01*
X168240000Y-100723153D01*
X168155304Y-100740000D01*
X156379299Y-100740000D01*
X156128445Y-100789898D01*
X155843975Y-100979975D01*
X155811931Y-101027931D01*
X155763975Y-101059975D01*
X155573898Y-101344446D01*
X155524000Y-101595300D01*
X155524001Y-103249473D01*
X155356235Y-103282843D01*
X155146191Y-103423191D01*
X155005843Y-103633235D01*
X154956560Y-103881000D01*
X154956560Y-104531000D01*
X154983936Y-104668631D01*
X154969000Y-104704690D01*
X154969000Y-104870250D01*
X155127750Y-105029000D01*
X155206341Y-105029000D01*
X155356235Y-105129157D01*
X155491185Y-105156000D01*
X155356235Y-105182843D01*
X155261715Y-105246000D01*
X152647567Y-105246000D01*
X152639126Y-105203565D01*
X152444586Y-104912414D01*
X152153435Y-104717874D01*
X151810000Y-104649560D01*
X150885000Y-104649560D01*
X150541565Y-104717874D01*
X150250414Y-104912414D01*
X150055874Y-105203565D01*
X149987560Y-105547000D01*
X149987560Y-106797000D01*
X150055874Y-107140435D01*
X150250414Y-107431586D01*
X150541565Y-107626126D01*
X150885000Y-107694440D01*
X151810000Y-107694440D01*
X152153435Y-107626126D01*
X152444586Y-107431586D01*
X152639126Y-107140435D01*
X152673824Y-106966000D01*
X155261715Y-106966000D01*
X155356235Y-107029157D01*
X155524000Y-107062527D01*
X155524001Y-108765277D01*
X155440565Y-108781874D01*
X155149414Y-108976414D01*
X154954874Y-109267565D01*
X154886560Y-109611000D01*
X154886560Y-110861000D01*
X154954874Y-111204435D01*
X155149414Y-111495586D01*
X155440565Y-111690126D01*
X155784000Y-111758440D01*
X156709000Y-111758440D01*
X157052435Y-111690126D01*
X157343586Y-111495586D01*
X157538126Y-111204435D01*
X157606440Y-110861000D01*
X157606440Y-109611000D01*
X157538126Y-109267565D01*
X157343586Y-108976414D01*
X157244000Y-108909873D01*
X157244000Y-107062527D01*
X157411765Y-107029157D01*
X157621809Y-106888809D01*
X157734000Y-106720905D01*
X157846191Y-106888809D01*
X158056235Y-107029157D01*
X158224000Y-107062527D01*
X158224001Y-108909873D01*
X158124414Y-108976414D01*
X157929874Y-109267565D01*
X157861560Y-109611000D01*
X157861560Y-110861000D01*
X157929874Y-111204435D01*
X158124414Y-111495586D01*
X158415565Y-111690126D01*
X158759000Y-111758440D01*
X159684000Y-111758440D01*
X160027435Y-111690126D01*
X160318586Y-111495586D01*
X160513126Y-111204435D01*
X160581440Y-110861000D01*
X160581440Y-109611000D01*
X160513126Y-109267565D01*
X160318586Y-108976414D01*
X160027435Y-108781874D01*
X159944000Y-108765278D01*
X159944000Y-108199250D01*
X161812000Y-108199250D01*
X161812000Y-108752309D01*
X161908673Y-108985698D01*
X162087301Y-109164327D01*
X162320690Y-109261000D01*
X163036250Y-109261000D01*
X163195000Y-109102250D01*
X163195000Y-108040500D01*
X163449000Y-108040500D01*
X163449000Y-109102250D01*
X163607750Y-109261000D01*
X164323310Y-109261000D01*
X164556699Y-109164327D01*
X164735327Y-108985698D01*
X164832000Y-108752309D01*
X164832000Y-108199250D01*
X164673250Y-108040500D01*
X163449000Y-108040500D01*
X163195000Y-108040500D01*
X161970750Y-108040500D01*
X161812000Y-108199250D01*
X159944000Y-108199250D01*
X159944000Y-107074691D01*
X161812000Y-107074691D01*
X161812000Y-107627750D01*
X161970750Y-107786500D01*
X163195000Y-107786500D01*
X163195000Y-106724750D01*
X163449000Y-106724750D01*
X163449000Y-107786500D01*
X164673250Y-107786500D01*
X164832000Y-107627750D01*
X164832000Y-107074691D01*
X164735327Y-106841302D01*
X164556699Y-106662673D01*
X164323310Y-106566000D01*
X163607750Y-106566000D01*
X163449000Y-106724750D01*
X163195000Y-106724750D01*
X163036250Y-106566000D01*
X162320690Y-106566000D01*
X162087301Y-106662673D01*
X161908673Y-106841302D01*
X161812000Y-107074691D01*
X159944000Y-107074691D01*
X159944000Y-107062527D01*
X160111765Y-107029157D01*
X160321809Y-106888809D01*
X160462157Y-106678765D01*
X160511440Y-106431000D01*
X160511440Y-105798500D01*
X161903999Y-105798500D01*
X162062414Y-106035586D01*
X162353565Y-106230126D01*
X162697000Y-106298440D01*
X163947000Y-106298440D01*
X164290435Y-106230126D01*
X164339571Y-106197294D01*
X166018000Y-107875724D01*
X166018001Y-110161981D01*
X166018000Y-110161986D01*
X166018000Y-110330261D01*
X165810415Y-110416245D01*
X165280245Y-110946415D01*
X164993320Y-111639114D01*
X164993320Y-112388886D01*
X165280245Y-113081585D01*
X165810415Y-113611755D01*
X166503114Y-113898680D01*
X167252886Y-113898680D01*
X167945585Y-113611755D01*
X168210251Y-113347089D01*
X172836517Y-113347089D01*
X172965725Y-113639859D01*
X173665883Y-113908071D01*
X174415384Y-113887928D01*
X175014275Y-113639859D01*
X175112607Y-113417050D01*
X182011000Y-113417050D01*
X182011000Y-114166950D01*
X182297974Y-114859767D01*
X182828233Y-115390026D01*
X183521050Y-115677000D01*
X184270950Y-115677000D01*
X184963767Y-115390026D01*
X185494026Y-114859767D01*
X185781000Y-114166950D01*
X185781000Y-113417050D01*
X185494026Y-112724233D01*
X184963767Y-112193974D01*
X184270950Y-111907000D01*
X183521050Y-111907000D01*
X182828233Y-112193974D01*
X182297974Y-112724233D01*
X182011000Y-113417050D01*
X175112607Y-113417050D01*
X175143483Y-113347089D01*
X173990000Y-112193605D01*
X172836517Y-113347089D01*
X168210251Y-113347089D01*
X168475755Y-113081585D01*
X168762680Y-112388886D01*
X168762680Y-111689883D01*
X172095929Y-111689883D01*
X172116072Y-112439384D01*
X172364141Y-113038275D01*
X172656911Y-113167483D01*
X173810395Y-112014000D01*
X174169605Y-112014000D01*
X175323089Y-113167483D01*
X175615859Y-113038275D01*
X175884071Y-112338117D01*
X175863928Y-111588616D01*
X175615859Y-110989725D01*
X175323089Y-110860517D01*
X174169605Y-112014000D01*
X173810395Y-112014000D01*
X172656911Y-110860517D01*
X172364141Y-110989725D01*
X172095929Y-111689883D01*
X168762680Y-111689883D01*
X168762680Y-111639114D01*
X168475755Y-110946415D01*
X168210251Y-110680911D01*
X172836517Y-110680911D01*
X173990000Y-111834395D01*
X175143483Y-110680911D01*
X175014275Y-110388141D01*
X174314117Y-110119929D01*
X173564616Y-110140072D01*
X172965725Y-110388141D01*
X172836517Y-110680911D01*
X168210251Y-110680911D01*
X167945585Y-110416245D01*
X167738000Y-110330261D01*
X167738000Y-108379500D01*
X181447804Y-108379500D01*
X181532500Y-108396347D01*
X181617196Y-108379500D01*
X181617201Y-108379500D01*
X181868055Y-108329602D01*
X182152525Y-108139525D01*
X182200505Y-108067718D01*
X183174219Y-107094004D01*
X183246025Y-107046025D01*
X183343947Y-106899475D01*
X183436102Y-106761556D01*
X183502848Y-106426000D01*
X183486000Y-106341299D01*
X183486000Y-101684697D01*
X183502847Y-101600000D01*
X183486000Y-101515303D01*
X183486000Y-101515299D01*
X183436102Y-101264445D01*
X183436102Y-101264444D01*
X183294004Y-101051781D01*
X183246025Y-100979975D01*
X183174218Y-100931995D01*
X181516004Y-99273781D01*
X181468025Y-99201975D01*
X181183555Y-99011898D01*
X180932701Y-98962000D01*
X180932696Y-98962000D01*
X180848000Y-98945153D01*
X180763304Y-98962000D01*
X174055723Y-98962000D01*
X172184812Y-97091089D01*
X177408517Y-97091089D01*
X177537725Y-97383859D01*
X178237883Y-97652071D01*
X178987384Y-97631928D01*
X179586275Y-97383859D01*
X179715483Y-97091089D01*
X178562000Y-95937605D01*
X177408517Y-97091089D01*
X172184812Y-97091089D01*
X170527606Y-95433883D01*
X176667929Y-95433883D01*
X176688072Y-96183384D01*
X176936141Y-96782275D01*
X177228911Y-96911483D01*
X178382395Y-95758000D01*
X178741605Y-95758000D01*
X179895089Y-96911483D01*
X180187859Y-96782275D01*
X180456071Y-96082117D01*
X180435928Y-95332616D01*
X180187859Y-94733725D01*
X179895089Y-94604517D01*
X178741605Y-95758000D01*
X178382395Y-95758000D01*
X177228911Y-94604517D01*
X176936141Y-94733725D01*
X176667929Y-95433883D01*
X170527606Y-95433883D01*
X169518634Y-94424911D01*
X177408517Y-94424911D01*
X178562000Y-95578395D01*
X179715483Y-94424911D01*
X179586275Y-94132141D01*
X178886117Y-93863929D01*
X178136616Y-93884072D01*
X177537725Y-94132141D01*
X177408517Y-94424911D01*
X169518634Y-94424911D01*
X166976000Y-91882277D01*
X166976000Y-89373750D01*
X167587000Y-89373750D01*
X167587000Y-89614310D01*
X167683673Y-89847699D01*
X167862302Y-90026327D01*
X168095691Y-90123000D01*
X168386250Y-90123000D01*
X168545000Y-89964250D01*
X168545000Y-89215000D01*
X168799000Y-89215000D01*
X168799000Y-89964250D01*
X168957750Y-90123000D01*
X169248309Y-90123000D01*
X169481698Y-90026327D01*
X169660327Y-89847699D01*
X169757000Y-89614310D01*
X169757000Y-89373750D01*
X169598250Y-89215000D01*
X168799000Y-89215000D01*
X168545000Y-89215000D01*
X167745750Y-89215000D01*
X167587000Y-89373750D01*
X166976000Y-89373750D01*
X166976000Y-89323299D01*
X166926102Y-89072445D01*
X166736025Y-88787975D01*
X166451555Y-88597898D01*
X166116000Y-88531152D01*
X165847802Y-88584500D01*
X164740001Y-88584500D01*
X164581586Y-88347414D01*
X164290435Y-88152874D01*
X163947000Y-88084560D01*
X162697000Y-88084560D01*
X162353565Y-88152874D01*
X162062414Y-88347414D01*
X162054004Y-88360000D01*
X160206285Y-88360000D01*
X160111765Y-88296843D01*
X159864000Y-88247560D01*
X158304000Y-88247560D01*
X158056235Y-88296843D01*
X157846191Y-88437191D01*
X157734000Y-88605095D01*
X157621809Y-88437191D01*
X157411765Y-88296843D01*
X157244000Y-88263473D01*
X157244000Y-87128000D01*
X167574560Y-87128000D01*
X167574560Y-87588000D01*
X167623843Y-87835765D01*
X167764191Y-88045809D01*
X167897694Y-88135013D01*
X167862302Y-88149673D01*
X167683673Y-88328301D01*
X167587000Y-88561690D01*
X167587000Y-88802250D01*
X167745750Y-88961000D01*
X168545000Y-88961000D01*
X168545000Y-88941000D01*
X168799000Y-88941000D01*
X168799000Y-88961000D01*
X169598250Y-88961000D01*
X169683781Y-88875469D01*
X169764191Y-88995809D01*
X169974235Y-89136157D01*
X170222000Y-89185440D01*
X171122000Y-89185440D01*
X171369765Y-89136157D01*
X171576530Y-88998000D01*
X176878261Y-88998000D01*
X176964245Y-89205585D01*
X177494415Y-89735755D01*
X178187114Y-90022680D01*
X178936886Y-90022680D01*
X179629585Y-89735755D01*
X180159755Y-89205585D01*
X180446680Y-88512886D01*
X180446680Y-87763114D01*
X180159755Y-87070415D01*
X179629585Y-86540245D01*
X178936886Y-86253320D01*
X178187114Y-86253320D01*
X177494415Y-86540245D01*
X176964245Y-87070415D01*
X176878261Y-87278000D01*
X171576530Y-87278000D01*
X171369765Y-87139843D01*
X171122000Y-87090560D01*
X170222000Y-87090560D01*
X169974235Y-87139843D01*
X169769440Y-87276684D01*
X169769440Y-86788000D01*
X169720157Y-86540235D01*
X169579809Y-86330191D01*
X169496430Y-86274479D01*
X169482102Y-86202445D01*
X169452249Y-86157767D01*
X169292025Y-85917975D01*
X169220216Y-85869994D01*
X169070005Y-85719783D01*
X169022025Y-85647975D01*
X168737555Y-85457898D01*
X168486701Y-85408000D01*
X168486696Y-85408000D01*
X168402000Y-85391153D01*
X168317304Y-85408000D01*
X156640697Y-85408000D01*
X156556000Y-85391153D01*
X156471303Y-85408000D01*
X156471299Y-85408000D01*
X156220445Y-85457898D01*
X155935975Y-85647975D01*
X155887994Y-85719784D01*
X155835783Y-85771994D01*
X155763975Y-85819975D01*
X155573898Y-86104446D01*
X155524000Y-86355300D01*
X155524000Y-86355304D01*
X155507153Y-86440000D01*
X155524000Y-86524696D01*
X155524001Y-88263473D01*
X155356235Y-88296843D01*
X155146191Y-88437191D01*
X155005843Y-88647235D01*
X154956560Y-88895000D01*
X154956560Y-89545000D01*
X154983936Y-89682631D01*
X154969000Y-89718690D01*
X154969000Y-89884250D01*
X155127750Y-90043000D01*
X155206341Y-90043000D01*
X155356235Y-90143157D01*
X155491185Y-90170000D01*
X155356235Y-90196843D01*
X155261715Y-90260000D01*
X153958239Y-90260000D01*
X153751555Y-90121898D01*
X153500701Y-90072000D01*
X153500696Y-90072000D01*
X153416000Y-90055153D01*
X153331304Y-90072000D01*
X152660695Y-90072000D01*
X152639126Y-89963565D01*
X152444586Y-89672414D01*
X152153435Y-89477874D01*
X151810000Y-89409560D01*
X150885000Y-89409560D01*
X150541565Y-89477874D01*
X150250414Y-89672414D01*
X150055874Y-89963565D01*
X149987560Y-90307000D01*
X149732440Y-90307000D01*
X149664126Y-89963565D01*
X149469586Y-89672414D01*
X149178435Y-89477874D01*
X148835000Y-89409560D01*
X147910000Y-89409560D01*
X147566565Y-89477874D01*
X147275414Y-89672414D01*
X147080874Y-89963565D01*
X147059305Y-90072000D01*
X144685739Y-90072000D01*
X144599755Y-89864415D01*
X144069585Y-89334245D01*
X143376886Y-89047320D01*
X142627114Y-89047320D01*
X141934415Y-89334245D01*
X141404245Y-89864415D01*
X141117320Y-90557114D01*
X138886000Y-90557114D01*
X138886000Y-84715050D01*
X139085000Y-84715050D01*
X139085000Y-85464950D01*
X139371974Y-86157767D01*
X139902233Y-86688026D01*
X140595050Y-86975000D01*
X141344950Y-86975000D01*
X142037767Y-86688026D01*
X142568026Y-86157767D01*
X142855000Y-85464950D01*
X142855000Y-84715050D01*
X182011000Y-84715050D01*
X182011000Y-85464950D01*
X182297974Y-86157767D01*
X182828233Y-86688026D01*
X183521050Y-86975000D01*
X184270950Y-86975000D01*
X184963767Y-86688026D01*
X185494026Y-86157767D01*
X185781000Y-85464950D01*
X185781000Y-84715050D01*
X185494026Y-84022233D01*
X184963767Y-83491974D01*
X184270950Y-83205000D01*
X183521050Y-83205000D01*
X182828233Y-83491974D01*
X182297974Y-84022233D01*
X182011000Y-84715050D01*
X142855000Y-84715050D01*
X142568026Y-84022233D01*
X142037767Y-83491974D01*
X141344950Y-83205000D01*
X140595050Y-83205000D01*
X139902233Y-83491974D01*
X139371974Y-84022233D01*
X139085000Y-84715050D01*
X138886000Y-84715050D01*
X138886000Y-83006000D01*
X185980000Y-83006000D01*
X185980001Y-115876000D01*
X185980001Y-115876000D01*
G37*
X185980001Y-115876000D02*
X138886000Y-115876000D01*
X138886000Y-113417050D01*
X139085000Y-113417050D01*
X139085000Y-114166950D01*
X139371974Y-114859767D01*
X139902233Y-115390026D01*
X140595050Y-115677000D01*
X141344950Y-115677000D01*
X142037767Y-115390026D01*
X142568026Y-114859767D01*
X142855000Y-114166950D01*
X142855000Y-113417050D01*
X142568026Y-112724233D01*
X142037767Y-112193974D01*
X141344950Y-111907000D01*
X140595050Y-111907000D01*
X139902233Y-112193974D01*
X139371974Y-112724233D01*
X139085000Y-113417050D01*
X138886000Y-113417050D01*
X138886000Y-105797114D01*
X141117320Y-105797114D01*
X141117320Y-106546886D01*
X141404245Y-107239585D01*
X141934415Y-107769755D01*
X142627114Y-108056680D01*
X143376886Y-108056680D01*
X144069585Y-107769755D01*
X144599755Y-107239585D01*
X144685739Y-107032000D01*
X147059305Y-107032000D01*
X147080874Y-107140435D01*
X147275414Y-107431586D01*
X147566565Y-107626126D01*
X147910000Y-107694440D01*
X148835000Y-107694440D01*
X149178435Y-107626126D01*
X149469586Y-107431586D01*
X149664126Y-107140435D01*
X149732440Y-106797000D01*
X149732440Y-105547000D01*
X149664126Y-105203565D01*
X149469586Y-104912414D01*
X149178435Y-104717874D01*
X148835000Y-104649560D01*
X147910000Y-104649560D01*
X147566565Y-104717874D01*
X147275414Y-104912414D01*
X147080874Y-105203565D01*
X147059305Y-105312000D01*
X144685739Y-105312000D01*
X144599755Y-105104415D01*
X144069585Y-104574245D01*
X143376886Y-104287320D01*
X142627114Y-104287320D01*
X141934415Y-104574245D01*
X141404245Y-105104415D01*
X141117320Y-105797114D01*
X138886000Y-105797114D01*
X138886000Y-90557114D01*
X141117320Y-90557114D01*
X141117320Y-91306886D01*
X141404245Y-91999585D01*
X141934415Y-92529755D01*
X142627114Y-92816680D01*
X143376886Y-92816680D01*
X144069585Y-92529755D01*
X144599755Y-91999585D01*
X144685739Y-91792000D01*
X147059305Y-91792000D01*
X147080874Y-91900435D01*
X147275414Y-92191586D01*
X147566565Y-92386126D01*
X147910000Y-92454440D01*
X148835000Y-92454440D01*
X149178435Y-92386126D01*
X149469586Y-92191586D01*
X149664126Y-91900435D01*
X149732440Y-91557000D01*
X149732440Y-90307000D01*
X149987560Y-90307000D01*
X149987560Y-91557000D01*
X150055874Y-91900435D01*
X150250414Y-92191586D01*
X150541565Y-92386126D01*
X150885000Y-92454440D01*
X151810000Y-92454440D01*
X152153435Y-92386126D01*
X152444586Y-92191586D01*
X152639126Y-91900435D01*
X152660695Y-91792000D01*
X153061761Y-91792000D01*
X153268445Y-91930102D01*
X153519299Y-91980000D01*
X153519304Y-91980000D01*
X153603999Y-91996847D01*
X153688695Y-91980000D01*
X155261715Y-91980000D01*
X155356235Y-92043157D01*
X155524000Y-92076527D01*
X155524001Y-93271277D01*
X155440565Y-93287874D01*
X155149414Y-93482414D01*
X154954874Y-93773565D01*
X154886560Y-94117000D01*
X154886560Y-95367000D01*
X154954874Y-95710435D01*
X155149414Y-96001586D01*
X155440565Y-96196126D01*
X155784000Y-96264440D01*
X156709000Y-96264440D01*
X157052435Y-96196126D01*
X157343586Y-96001586D01*
X157538126Y-95710435D01*
X157606440Y-95367000D01*
X157606440Y-94117000D01*
X157538126Y-93773565D01*
X157343586Y-93482414D01*
X157244000Y-93415873D01*
X157244000Y-92076527D01*
X157411765Y-92043157D01*
X157621809Y-91902809D01*
X157734000Y-91734905D01*
X157846191Y-91902809D01*
X158056235Y-92043157D01*
X158224000Y-92076527D01*
X158224001Y-93415873D01*
X158124414Y-93482414D01*
X157929874Y-93773565D01*
X157861560Y-94117000D01*
X157861560Y-95367000D01*
X157929874Y-95710435D01*
X158124414Y-96001586D01*
X158415565Y-96196126D01*
X158759000Y-96264440D01*
X159684000Y-96264440D01*
X160027435Y-96196126D01*
X160318586Y-96001586D01*
X160513126Y-95710435D01*
X160581440Y-95367000D01*
X160581440Y-94117000D01*
X160513126Y-93773565D01*
X160318586Y-93482414D01*
X160027435Y-93287874D01*
X159944000Y-93271278D01*
X159944000Y-92705250D01*
X161812000Y-92705250D01*
X161812000Y-93258309D01*
X161908673Y-93491698D01*
X162087301Y-93670327D01*
X162320690Y-93767000D01*
X163036250Y-93767000D01*
X163195000Y-93608250D01*
X163195000Y-92546500D01*
X163449000Y-92546500D01*
X163449000Y-93608250D01*
X163607750Y-93767000D01*
X164323310Y-93767000D01*
X164556699Y-93670327D01*
X164735327Y-93491698D01*
X164832000Y-93258309D01*
X164832000Y-92705250D01*
X164673250Y-92546500D01*
X163449000Y-92546500D01*
X163195000Y-92546500D01*
X161970750Y-92546500D01*
X161812000Y-92705250D01*
X159944000Y-92705250D01*
X159944000Y-92076527D01*
X160111765Y-92043157D01*
X160321809Y-91902809D01*
X160462157Y-91692765D01*
X160484449Y-91580691D01*
X161812000Y-91580691D01*
X161812000Y-92133750D01*
X161970750Y-92292500D01*
X163195000Y-92292500D01*
X163195000Y-91230750D01*
X163449000Y-91230750D01*
X163449000Y-92292500D01*
X164673250Y-92292500D01*
X164832000Y-92133750D01*
X164832000Y-91580691D01*
X164735327Y-91347302D01*
X164556699Y-91168673D01*
X164323310Y-91072000D01*
X163607750Y-91072000D01*
X163449000Y-91230750D01*
X163195000Y-91230750D01*
X163036250Y-91072000D01*
X162320690Y-91072000D01*
X162087301Y-91168673D01*
X161908673Y-91347302D01*
X161812000Y-91580691D01*
X160484449Y-91580691D01*
X160511440Y-91445000D01*
X160511440Y-90795000D01*
X160481603Y-90645000D01*
X160511440Y-90495000D01*
X160511440Y-90080000D01*
X161833972Y-90080000D01*
X161867874Y-90250435D01*
X162062414Y-90541586D01*
X162353565Y-90736126D01*
X162697000Y-90804440D01*
X163947000Y-90804440D01*
X164290435Y-90736126D01*
X164581586Y-90541586D01*
X164740001Y-90304500D01*
X165256001Y-90304500D01*
X165256000Y-92153804D01*
X165239153Y-92238500D01*
X165256000Y-92323196D01*
X165256000Y-92323200D01*
X165305898Y-92574054D01*
X165495975Y-92858525D01*
X165567782Y-92906505D01*
X173031495Y-100370218D01*
X173079475Y-100442025D01*
X173151281Y-100490004D01*
X173363944Y-100632102D01*
X173699500Y-100698848D01*
X173784201Y-100682000D01*
X180491777Y-100682000D01*
X181766001Y-101956224D01*
X181766000Y-106069777D01*
X181176277Y-106659500D01*
X167234224Y-106659500D01*
X165442474Y-104867750D01*
X167587000Y-104867750D01*
X167587000Y-105108310D01*
X167683673Y-105341699D01*
X167862302Y-105520327D01*
X168095691Y-105617000D01*
X168386250Y-105617000D01*
X168545000Y-105458250D01*
X168545000Y-104709000D01*
X168799000Y-104709000D01*
X168799000Y-105458250D01*
X168957750Y-105617000D01*
X169248309Y-105617000D01*
X169481698Y-105520327D01*
X169660327Y-105341699D01*
X169757000Y-105108310D01*
X169757000Y-104867750D01*
X169598250Y-104709000D01*
X168799000Y-104709000D01*
X168545000Y-104709000D01*
X167745750Y-104709000D01*
X167587000Y-104867750D01*
X165442474Y-104867750D01*
X164965005Y-104390282D01*
X164917025Y-104318475D01*
X164797177Y-104238395D01*
X164776126Y-104132565D01*
X164581586Y-103841414D01*
X164290435Y-103646874D01*
X163947000Y-103578560D01*
X162697000Y-103578560D01*
X162353565Y-103646874D01*
X162062414Y-103841414D01*
X161903999Y-104078500D01*
X160511440Y-104078500D01*
X160511440Y-103881000D01*
X160462157Y-103633235D01*
X160321809Y-103423191D01*
X160111765Y-103282843D01*
X159864000Y-103233560D01*
X158304000Y-103233560D01*
X158056235Y-103282843D01*
X157846191Y-103423191D01*
X157734000Y-103591095D01*
X157621809Y-103423191D01*
X157411765Y-103282843D01*
X157244000Y-103249473D01*
X157244000Y-102460000D01*
X167574560Y-102460000D01*
X167574560Y-103082000D01*
X167623843Y-103329765D01*
X167764191Y-103539809D01*
X167897694Y-103629013D01*
X167862302Y-103643673D01*
X167683673Y-103822301D01*
X167587000Y-104055690D01*
X167587000Y-104296250D01*
X167745750Y-104455000D01*
X168545000Y-104455000D01*
X168545000Y-104435000D01*
X168799000Y-104435000D01*
X168799000Y-104455000D01*
X169598250Y-104455000D01*
X169683781Y-104369469D01*
X169764191Y-104489809D01*
X169974235Y-104630157D01*
X170222000Y-104679440D01*
X171122000Y-104679440D01*
X171369765Y-104630157D01*
X171576530Y-104492000D01*
X176878261Y-104492000D01*
X176964245Y-104699585D01*
X177494415Y-105229755D01*
X178187114Y-105516680D01*
X178936886Y-105516680D01*
X179629585Y-105229755D01*
X180159755Y-104699585D01*
X180446680Y-104006886D01*
X180446680Y-103257114D01*
X180159755Y-102564415D01*
X179629585Y-102034245D01*
X178936886Y-101747320D01*
X178187114Y-101747320D01*
X177494415Y-102034245D01*
X176964245Y-102564415D01*
X176878261Y-102772000D01*
X171576530Y-102772000D01*
X171369765Y-102633843D01*
X171122000Y-102584560D01*
X170222000Y-102584560D01*
X169974235Y-102633843D01*
X169769440Y-102770684D01*
X169769440Y-102282000D01*
X169720157Y-102034235D01*
X169579809Y-101824191D01*
X169496430Y-101768479D01*
X169482102Y-101696445D01*
X169292025Y-101411975D01*
X169220218Y-101363995D01*
X168908004Y-101051781D01*
X168860025Y-100979975D01*
X168575555Y-100789898D01*
X168324701Y-100740000D01*
X168324696Y-100740000D01*
X168240000Y-100723153D01*
X168155304Y-100740000D01*
X156379299Y-100740000D01*
X156128445Y-100789898D01*
X155843975Y-100979975D01*
X155811931Y-101027931D01*
X155763975Y-101059975D01*
X155573898Y-101344446D01*
X155524000Y-101595300D01*
X155524001Y-103249473D01*
X155356235Y-103282843D01*
X155146191Y-103423191D01*
X155005843Y-103633235D01*
X154956560Y-103881000D01*
X154956560Y-104531000D01*
X154983936Y-104668631D01*
X154969000Y-104704690D01*
X154969000Y-104870250D01*
X155127750Y-105029000D01*
X155206341Y-105029000D01*
X155356235Y-105129157D01*
X155491185Y-105156000D01*
X155356235Y-105182843D01*
X155261715Y-105246000D01*
X152647567Y-105246000D01*
X152639126Y-105203565D01*
X152444586Y-104912414D01*
X152153435Y-104717874D01*
X151810000Y-104649560D01*
X150885000Y-104649560D01*
X150541565Y-104717874D01*
X150250414Y-104912414D01*
X150055874Y-105203565D01*
X149987560Y-105547000D01*
X149987560Y-106797000D01*
X150055874Y-107140435D01*
X150250414Y-107431586D01*
X150541565Y-107626126D01*
X150885000Y-107694440D01*
X151810000Y-107694440D01*
X152153435Y-107626126D01*
X152444586Y-107431586D01*
X152639126Y-107140435D01*
X152673824Y-106966000D01*
X155261715Y-106966000D01*
X155356235Y-107029157D01*
X155524000Y-107062527D01*
X155524001Y-108765277D01*
X155440565Y-108781874D01*
X155149414Y-108976414D01*
X154954874Y-109267565D01*
X154886560Y-109611000D01*
X154886560Y-110861000D01*
X154954874Y-111204435D01*
X155149414Y-111495586D01*
X155440565Y-111690126D01*
X155784000Y-111758440D01*
X156709000Y-111758440D01*
X157052435Y-111690126D01*
X157343586Y-111495586D01*
X157538126Y-111204435D01*
X157606440Y-110861000D01*
X157606440Y-109611000D01*
X157538126Y-109267565D01*
X157343586Y-108976414D01*
X157244000Y-108909873D01*
X157244000Y-107062527D01*
X157411765Y-107029157D01*
X157621809Y-106888809D01*
X157734000Y-106720905D01*
X157846191Y-106888809D01*
X158056235Y-107029157D01*
X158224000Y-107062527D01*
X158224001Y-108909873D01*
X158124414Y-108976414D01*
X157929874Y-109267565D01*
X157861560Y-109611000D01*
X157861560Y-110861000D01*
X157929874Y-111204435D01*
X158124414Y-111495586D01*
X158415565Y-111690126D01*
X158759000Y-111758440D01*
X159684000Y-111758440D01*
X160027435Y-111690126D01*
X160318586Y-111495586D01*
X160513126Y-111204435D01*
X160581440Y-110861000D01*
X160581440Y-109611000D01*
X160513126Y-109267565D01*
X160318586Y-108976414D01*
X160027435Y-108781874D01*
X159944000Y-108765278D01*
X159944000Y-108199250D01*
X161812000Y-108199250D01*
X161812000Y-108752309D01*
X161908673Y-108985698D01*
X162087301Y-109164327D01*
X162320690Y-109261000D01*
X163036250Y-109261000D01*
X163195000Y-109102250D01*
X163195000Y-108040500D01*
X163449000Y-108040500D01*
X163449000Y-109102250D01*
X163607750Y-109261000D01*
X164323310Y-109261000D01*
X164556699Y-109164327D01*
X164735327Y-108985698D01*
X164832000Y-108752309D01*
X164832000Y-108199250D01*
X164673250Y-108040500D01*
X163449000Y-108040500D01*
X163195000Y-108040500D01*
X161970750Y-108040500D01*
X161812000Y-108199250D01*
X159944000Y-108199250D01*
X159944000Y-107074691D01*
X161812000Y-107074691D01*
X161812000Y-107627750D01*
X161970750Y-107786500D01*
X163195000Y-107786500D01*
X163195000Y-106724750D01*
X163449000Y-106724750D01*
X163449000Y-107786500D01*
X164673250Y-107786500D01*
X164832000Y-107627750D01*
X164832000Y-107074691D01*
X164735327Y-106841302D01*
X164556699Y-106662673D01*
X164323310Y-106566000D01*
X163607750Y-106566000D01*
X163449000Y-106724750D01*
X163195000Y-106724750D01*
X163036250Y-106566000D01*
X162320690Y-106566000D01*
X162087301Y-106662673D01*
X161908673Y-106841302D01*
X161812000Y-107074691D01*
X159944000Y-107074691D01*
X159944000Y-107062527D01*
X160111765Y-107029157D01*
X160321809Y-106888809D01*
X160462157Y-106678765D01*
X160511440Y-106431000D01*
X160511440Y-105798500D01*
X161903999Y-105798500D01*
X162062414Y-106035586D01*
X162353565Y-106230126D01*
X162697000Y-106298440D01*
X163947000Y-106298440D01*
X164290435Y-106230126D01*
X164339571Y-106197294D01*
X166018000Y-107875724D01*
X166018001Y-110161981D01*
X166018000Y-110161986D01*
X166018000Y-110330261D01*
X165810415Y-110416245D01*
X165280245Y-110946415D01*
X164993320Y-111639114D01*
X164993320Y-112388886D01*
X165280245Y-113081585D01*
X165810415Y-113611755D01*
X166503114Y-113898680D01*
X167252886Y-113898680D01*
X167945585Y-113611755D01*
X168210251Y-113347089D01*
X172836517Y-113347089D01*
X172965725Y-113639859D01*
X173665883Y-113908071D01*
X174415384Y-113887928D01*
X175014275Y-113639859D01*
X175112607Y-113417050D01*
X182011000Y-113417050D01*
X182011000Y-114166950D01*
X182297974Y-114859767D01*
X182828233Y-115390026D01*
X183521050Y-115677000D01*
X184270950Y-115677000D01*
X184963767Y-115390026D01*
X185494026Y-114859767D01*
X185781000Y-114166950D01*
X185781000Y-113417050D01*
X185494026Y-112724233D01*
X184963767Y-112193974D01*
X184270950Y-111907000D01*
X183521050Y-111907000D01*
X182828233Y-112193974D01*
X182297974Y-112724233D01*
X182011000Y-113417050D01*
X175112607Y-113417050D01*
X175143483Y-113347089D01*
X173990000Y-112193605D01*
X172836517Y-113347089D01*
X168210251Y-113347089D01*
X168475755Y-113081585D01*
X168762680Y-112388886D01*
X168762680Y-111689883D01*
X172095929Y-111689883D01*
X172116072Y-112439384D01*
X172364141Y-113038275D01*
X172656911Y-113167483D01*
X173810395Y-112014000D01*
X174169605Y-112014000D01*
X175323089Y-113167483D01*
X175615859Y-113038275D01*
X175884071Y-112338117D01*
X175863928Y-111588616D01*
X175615859Y-110989725D01*
X175323089Y-110860517D01*
X174169605Y-112014000D01*
X173810395Y-112014000D01*
X172656911Y-110860517D01*
X172364141Y-110989725D01*
X172095929Y-111689883D01*
X168762680Y-111689883D01*
X168762680Y-111639114D01*
X168475755Y-110946415D01*
X168210251Y-110680911D01*
X172836517Y-110680911D01*
X173990000Y-111834395D01*
X175143483Y-110680911D01*
X175014275Y-110388141D01*
X174314117Y-110119929D01*
X173564616Y-110140072D01*
X172965725Y-110388141D01*
X172836517Y-110680911D01*
X168210251Y-110680911D01*
X167945585Y-110416245D01*
X167738000Y-110330261D01*
X167738000Y-108379500D01*
X181447804Y-108379500D01*
X181532500Y-108396347D01*
X181617196Y-108379500D01*
X181617201Y-108379500D01*
X181868055Y-108329602D01*
X182152525Y-108139525D01*
X182200505Y-108067718D01*
X183174219Y-107094004D01*
X183246025Y-107046025D01*
X183343947Y-106899475D01*
X183436102Y-106761556D01*
X183502848Y-106426000D01*
X183486000Y-106341299D01*
X183486000Y-101684697D01*
X183502847Y-101600000D01*
X183486000Y-101515303D01*
X183486000Y-101515299D01*
X183436102Y-101264445D01*
X183436102Y-101264444D01*
X183294004Y-101051781D01*
X183246025Y-100979975D01*
X183174218Y-100931995D01*
X181516004Y-99273781D01*
X181468025Y-99201975D01*
X181183555Y-99011898D01*
X180932701Y-98962000D01*
X180932696Y-98962000D01*
X180848000Y-98945153D01*
X180763304Y-98962000D01*
X174055723Y-98962000D01*
X172184812Y-97091089D01*
X177408517Y-97091089D01*
X177537725Y-97383859D01*
X178237883Y-97652071D01*
X178987384Y-97631928D01*
X179586275Y-97383859D01*
X179715483Y-97091089D01*
X178562000Y-95937605D01*
X177408517Y-97091089D01*
X172184812Y-97091089D01*
X170527606Y-95433883D01*
X176667929Y-95433883D01*
X176688072Y-96183384D01*
X176936141Y-96782275D01*
X177228911Y-96911483D01*
X178382395Y-95758000D01*
X178741605Y-95758000D01*
X179895089Y-96911483D01*
X180187859Y-96782275D01*
X180456071Y-96082117D01*
X180435928Y-95332616D01*
X180187859Y-94733725D01*
X179895089Y-94604517D01*
X178741605Y-95758000D01*
X178382395Y-95758000D01*
X177228911Y-94604517D01*
X176936141Y-94733725D01*
X176667929Y-95433883D01*
X170527606Y-95433883D01*
X169518634Y-94424911D01*
X177408517Y-94424911D01*
X178562000Y-95578395D01*
X179715483Y-94424911D01*
X179586275Y-94132141D01*
X178886117Y-93863929D01*
X178136616Y-93884072D01*
X177537725Y-94132141D01*
X177408517Y-94424911D01*
X169518634Y-94424911D01*
X166976000Y-91882277D01*
X166976000Y-89373750D01*
X167587000Y-89373750D01*
X167587000Y-89614310D01*
X167683673Y-89847699D01*
X167862302Y-90026327D01*
X168095691Y-90123000D01*
X168386250Y-90123000D01*
X168545000Y-89964250D01*
X168545000Y-89215000D01*
X168799000Y-89215000D01*
X168799000Y-89964250D01*
X168957750Y-90123000D01*
X169248309Y-90123000D01*
X169481698Y-90026327D01*
X169660327Y-89847699D01*
X169757000Y-89614310D01*
X169757000Y-89373750D01*
X169598250Y-89215000D01*
X168799000Y-89215000D01*
X168545000Y-89215000D01*
X167745750Y-89215000D01*
X167587000Y-89373750D01*
X166976000Y-89373750D01*
X166976000Y-89323299D01*
X166926102Y-89072445D01*
X166736025Y-88787975D01*
X166451555Y-88597898D01*
X166116000Y-88531152D01*
X165847802Y-88584500D01*
X164740001Y-88584500D01*
X164581586Y-88347414D01*
X164290435Y-88152874D01*
X163947000Y-88084560D01*
X162697000Y-88084560D01*
X162353565Y-88152874D01*
X162062414Y-88347414D01*
X162054004Y-88360000D01*
X160206285Y-88360000D01*
X160111765Y-88296843D01*
X159864000Y-88247560D01*
X158304000Y-88247560D01*
X158056235Y-88296843D01*
X157846191Y-88437191D01*
X157734000Y-88605095D01*
X157621809Y-88437191D01*
X157411765Y-88296843D01*
X157244000Y-88263473D01*
X157244000Y-87128000D01*
X167574560Y-87128000D01*
X167574560Y-87588000D01*
X167623843Y-87835765D01*
X167764191Y-88045809D01*
X167897694Y-88135013D01*
X167862302Y-88149673D01*
X167683673Y-88328301D01*
X167587000Y-88561690D01*
X167587000Y-88802250D01*
X167745750Y-88961000D01*
X168545000Y-88961000D01*
X168545000Y-88941000D01*
X168799000Y-88941000D01*
X168799000Y-88961000D01*
X169598250Y-88961000D01*
X169683781Y-88875469D01*
X169764191Y-88995809D01*
X169974235Y-89136157D01*
X170222000Y-89185440D01*
X171122000Y-89185440D01*
X171369765Y-89136157D01*
X171576530Y-88998000D01*
X176878261Y-88998000D01*
X176964245Y-89205585D01*
X177494415Y-89735755D01*
X178187114Y-90022680D01*
X178936886Y-90022680D01*
X179629585Y-89735755D01*
X180159755Y-89205585D01*
X180446680Y-88512886D01*
X180446680Y-87763114D01*
X180159755Y-87070415D01*
X179629585Y-86540245D01*
X178936886Y-86253320D01*
X178187114Y-86253320D01*
X177494415Y-86540245D01*
X176964245Y-87070415D01*
X176878261Y-87278000D01*
X171576530Y-87278000D01*
X171369765Y-87139843D01*
X171122000Y-87090560D01*
X170222000Y-87090560D01*
X169974235Y-87139843D01*
X169769440Y-87276684D01*
X169769440Y-86788000D01*
X169720157Y-86540235D01*
X169579809Y-86330191D01*
X169496430Y-86274479D01*
X169482102Y-86202445D01*
X169452249Y-86157767D01*
X169292025Y-85917975D01*
X169220216Y-85869994D01*
X169070005Y-85719783D01*
X169022025Y-85647975D01*
X168737555Y-85457898D01*
X168486701Y-85408000D01*
X168486696Y-85408000D01*
X168402000Y-85391153D01*
X168317304Y-85408000D01*
X156640697Y-85408000D01*
X156556000Y-85391153D01*
X156471303Y-85408000D01*
X156471299Y-85408000D01*
X156220445Y-85457898D01*
X155935975Y-85647975D01*
X155887994Y-85719784D01*
X155835783Y-85771994D01*
X155763975Y-85819975D01*
X155573898Y-86104446D01*
X155524000Y-86355300D01*
X155524000Y-86355304D01*
X155507153Y-86440000D01*
X155524000Y-86524696D01*
X155524001Y-88263473D01*
X155356235Y-88296843D01*
X155146191Y-88437191D01*
X155005843Y-88647235D01*
X154956560Y-88895000D01*
X154956560Y-89545000D01*
X154983936Y-89682631D01*
X154969000Y-89718690D01*
X154969000Y-89884250D01*
X155127750Y-90043000D01*
X155206341Y-90043000D01*
X155356235Y-90143157D01*
X155491185Y-90170000D01*
X155356235Y-90196843D01*
X155261715Y-90260000D01*
X153958239Y-90260000D01*
X153751555Y-90121898D01*
X153500701Y-90072000D01*
X153500696Y-90072000D01*
X153416000Y-90055153D01*
X153331304Y-90072000D01*
X152660695Y-90072000D01*
X152639126Y-89963565D01*
X152444586Y-89672414D01*
X152153435Y-89477874D01*
X151810000Y-89409560D01*
X150885000Y-89409560D01*
X150541565Y-89477874D01*
X150250414Y-89672414D01*
X150055874Y-89963565D01*
X149987560Y-90307000D01*
X149732440Y-90307000D01*
X149664126Y-89963565D01*
X149469586Y-89672414D01*
X149178435Y-89477874D01*
X148835000Y-89409560D01*
X147910000Y-89409560D01*
X147566565Y-89477874D01*
X147275414Y-89672414D01*
X147080874Y-89963565D01*
X147059305Y-90072000D01*
X144685739Y-90072000D01*
X144599755Y-89864415D01*
X144069585Y-89334245D01*
X143376886Y-89047320D01*
X142627114Y-89047320D01*
X141934415Y-89334245D01*
X141404245Y-89864415D01*
X141117320Y-90557114D01*
X138886000Y-90557114D01*
X138886000Y-84715050D01*
X139085000Y-84715050D01*
X139085000Y-85464950D01*
X139371974Y-86157767D01*
X139902233Y-86688026D01*
X140595050Y-86975000D01*
X141344950Y-86975000D01*
X142037767Y-86688026D01*
X142568026Y-86157767D01*
X142855000Y-85464950D01*
X142855000Y-84715050D01*
X182011000Y-84715050D01*
X182011000Y-85464950D01*
X182297974Y-86157767D01*
X182828233Y-86688026D01*
X183521050Y-86975000D01*
X184270950Y-86975000D01*
X184963767Y-86688026D01*
X185494026Y-86157767D01*
X185781000Y-85464950D01*
X185781000Y-84715050D01*
X185494026Y-84022233D01*
X184963767Y-83491974D01*
X184270950Y-83205000D01*
X183521050Y-83205000D01*
X182828233Y-83491974D01*
X182297974Y-84022233D01*
X182011000Y-84715050D01*
X142855000Y-84715050D01*
X142568026Y-84022233D01*
X142037767Y-83491974D01*
X141344950Y-83205000D01*
X140595050Y-83205000D01*
X139902233Y-83491974D01*
X139371974Y-84022233D01*
X139085000Y-84715050D01*
X138886000Y-84715050D01*
X138886000Y-83006000D01*
X185980000Y-83006000D01*
X185980001Y-115876000D01*
G36*
X157656560Y-105299310D02*
X157640252Y-105283002D01*
X157656560Y-105283002D01*
X157656560Y-105299310D01*
X157656560Y-105299310D01*
G37*
X157656560Y-105299310D02*
X157640252Y-105283002D01*
X157656560Y-105283002D01*
X157656560Y-105299310D01*
G36*
X157656560Y-90313310D02*
X157640252Y-90297002D01*
X157656560Y-90297002D01*
X157656560Y-90313310D01*
X157656560Y-90313310D01*
G37*
X157656560Y-90313310D02*
X157640252Y-90297002D01*
X157656560Y-90297002D01*
X157656560Y-90313310D01*
G04 #@! TD*
M02*
